<svg width="19" height="20" viewBox="0 0 19 20" fill="none" xmlns="http://www.w3.org/2000/svg">
<path d="M9.7 0.799988C4.62 0.799988 0.5 4.91999 0.5 9.99999C0.5 15.08 4.62 19.2 9.7 19.2C14.78 19.2 18.9 15.08 18.9 9.99999C18.9 4.91999 14.78 0.799988 9.7 0.799988ZM9.7 1.59999C14.34 1.59999 18.1 5.35999 18.1 9.99999C18.1 14.64 14.34 18.4 9.7 18.4C5.06 18.4 1.3 14.64 1.3 9.99999C1.3 5.35999 5.06 1.59999 9.7 1.59999ZM9.3 5.19999V9.59999H4.9V10.4H9.3V14.8H10.1V10.4H14.5V9.59999H10.1V5.19999H9.3Z" fill="white"/>
</svg>
