<svg width="40" height="40" viewBox="0 0 40 40" fill="none" xmlns="http://www.w3.org/2000/svg">
<g clip-path="url(#clip0_225_60148)">
<path d="M22.0238 0.71388C24.0742 -0.336796 26.5874 0.336726 27.8383 2.27167C28.6216 3.48393 29.9405 4.24526 31.382 4.31771C33.6831 4.43318 35.5228 6.27285 35.6382 8.57398C35.7107 10.0154 36.472 11.3339 37.6843 12.1177C39.6192 13.3681 40.2927 15.8813 39.2421 17.9317C38.5839 19.2164 38.5839 20.7391 39.2421 22.0233C40.2927 24.0738 39.6192 26.587 37.6843 27.8374C36.472 28.6207 35.7107 29.9396 35.6382 31.3811C35.5228 33.6822 33.6831 35.5219 31.382 35.6374C29.9405 35.7098 28.622 36.4711 27.8383 37.6834C26.5878 39.6183 24.0746 40.2919 22.0242 39.2412C20.7395 38.583 19.2169 38.583 17.9326 39.2412C15.8822 40.2919 13.369 39.6183 12.1185 37.6834C11.3352 36.4711 10.0163 35.7098 8.57485 35.6374C6.27373 35.5219 4.43406 33.6822 4.31858 31.3811C4.24614 29.9396 3.4848 28.6211 2.27255 27.8374C0.336726 26.5874 -0.336357 24.0742 0.71388 22.0238C1.37204 20.7391 1.37204 19.2164 0.71388 17.9322C-0.336796 15.8817 0.336726 13.3685 2.27167 12.1181C3.48393 11.3348 4.24526 10.0159 4.31771 8.57442C4.43318 6.27329 6.27285 4.43362 8.57398 4.31814C10.0154 4.2457 11.3339 3.48436 12.1177 2.27211C13.3681 0.337165 15.8813 -0.336357 17.9317 0.71432C19.2164 1.37204 20.7391 1.37204 22.0238 0.71388Z" fill="#0099FF"/>
<path d="M16.439 29.3297V20.8119L27.7931 15.7363L32.052 19.9952L16.439 29.3297Z" fill="#0077E3"/>
<path d="M16.4387 29.3296L7.90332 20.7986L12.1622 16.5353L16.4387 20.8117L26.6118 10.6255L30.8707 14.88L16.4387 29.3296Z" fill="white"/>
</g>
<defs>
<clipPath id="clip0_225_60148">
<rect width="40" height="40" fill="white"/>
</clipPath>
</defs>
</svg>
