<?xml version="1.0" encoding="utf-8"?>
<!-- Generator: Adobe Illustrator 28.2.0, SVG Export Plug-In . SVG Version: 6.00 Build 0)  -->
<svg version="1.1" id="Layer_1" xmlns="http://www.w3.org/2000/svg" xmlns:xlink="http://www.w3.org/1999/xlink" x="0px" y="0px"
	 viewBox="0 0 436 144" style="enable-background:new 0 0 436 144;" xml:space="preserve">
<style type="text/css">
	.st0{fill:#0099FF;}
	.st1{fill:#FFFFFF;}
	.st2{fill:#0099FF;stroke:#FFFFFF;stroke-width:3;stroke-miterlimit:10;}
</style>
<g>
	<path d="M230.9-39.9l0-6l10.1-2.5l3.2-58.1l-9.4-2.2l0.2-5.9l26.4,0l22,50.8l22.7-50.8l25.8,0l0,5.9l-9.5,2.2l3.8,58.2l10.2,2.3
		l0,6l-37.4,0l0-6l9.4-2.2l-2.9-44.9l-23.8,53.6l-6.9,0l-23.2-53.9l-2.4,45.2l9.5,2.2l0,6L230.9-39.9z"/>
	<path d="M368.7-38.5c-4,0-7.8-0.7-11.3-2.1c-3.5-1.4-6.6-3.4-9.1-5.9c-2.6-2.5-4.6-5.5-6.1-8.9c-1.5-3.5-2.2-7.3-2.2-11.4
		c0-4.1,0.7-7.9,2.2-11.4c1.5-3.4,3.5-6.4,6.1-8.9c2.6-2.5,5.6-4.4,9.1-5.8c3.5-1.4,7.3-2.1,11.3-2.1c4,0,7.8,0.7,11.3,2.1
		c3.5,1.4,6.5,3.3,9.1,5.8c2.6,2.5,4.6,5.4,6.1,8.9c1.5,3.4,2.2,7.2,2.2,11.3c0,4-0.7,7.8-2.2,11.3c-1.5,3.5-3.5,6.5-6.1,9
		c-2.6,2.5-5.6,4.5-9.1,5.9C376.5-39.2,372.8-38.5,368.7-38.5z M357.1-66.8c0,6.7,1,11.9,2.9,15.7c2,3.8,4.9,5.7,8.7,5.7
		s6.7-1.9,8.7-5.7c1.9-3.8,2.9-9,2.9-15.7c0-6.6-1-11.8-2.9-15.6c-2-3.8-4.9-5.6-8.7-5.6c-3.8,0-6.7,1.9-8.7,5.7
		C358.1-78.6,357.1-73.4,357.1-66.8z"/>
	<path d="M398.9-115.7l0-5.6l17-4.1l8.4,0l0,35.8c4.4-3.6,9.5-5.4,15.3-5.5c6.6,0,12,2.2,16,6.5c4.1,4.4,6.1,10.9,6.1,19.7
		c0,6.5-1.6,12-4.9,16.7c-3.3,4.7-7.4,8.1-12.2,10.3c-4.9,2.2-10.1,3.3-15.7,3.3c-8.1,0-15.1-1.8-21-5.4l-0.1-71.7L398.9-115.7z
		 M424.5-45.9c0.9,0.1,2.1,0.2,3.6,0.2c4.8,0,8.9-2,12.1-5.9c3.2-3.9,4.8-9.5,4.8-16.9c0-11.7-3.6-17.5-10.8-17.5
		c-2.8,0-6,1.1-9.8,3.2L424.5-45.9z"/>
	<path d="M468.9-40.2l0-5.6l9.1-2.1l0-35.8l-9.1,0l0-5.6l17-4.1l8.4,0l0,45.5l9.1,2.1l0,5.6L468.9-40.2z M476.2-109.9
		c0-2.8,1-5.1,2.9-7c1.9-1.9,4.3-2.8,7-2.8c2.8,0,5.2,0.9,7.1,2.8c1.9,1.9,2.8,4.2,2.8,7c0,2.8-0.9,5.2-2.8,7.1
		c-1.9,1.9-4.2,2.9-7.1,2.9c-2.8,0-5.1-1-7-2.9C477.1-104.7,476.2-107,476.2-109.9z"/>
	<path d="M506.6-40.2l0-5.6l9.1-2.1l-0.1-67.8l-9.1,0l0-5.6l17-4.1l8.4,0l0.1,77.5l9.1,2.1l0,5.6L506.6-40.2z"/>
	<path d="M545.8-67.6c0-8.4,2.3-15.1,7.1-20.1c4.7-5,11.1-7.5,19.2-7.5c8.2,0,14.5,2.8,18.7,8.4c4.2,5.6,6.4,12.5,6.4,20.8l-34.9,0
		c0.5,5.2,2.4,9.7,5.7,13.5s7.5,5.7,12.6,5.7c3.8,0,8-0.8,12.4-2.4l2.2,6.1c-6.6,2.9-13.1,4.4-19.4,4.4c-9.2,0-16.4-2.7-21.8-8
		C548.5-52.1,545.8-59,545.8-67.6z M562.2-72.6l18-1.2c0-1.7-0.1-3.3-0.3-4.7c-0.2-1.5-0.8-3.2-1.8-5.3c-1.8-3-3.9-4.5-6.3-4.5
		c-2.8,0-5.2,1.5-7,4.4c-1.1,1.8-1.8,3.7-2.1,5.9C562.3-75.9,562.1-74.1,562.2-72.6z"/>
</g>
<g>
	<path class="st0" d="M545.5-102.8v-3.2l5.3-1.3v-31.3l-5.3-1.3v-3.2h17.6c4.5,0,8.1,0.8,10.7,2.3c2.6,1.6,4,4,4,7.5
		c0,2.1-0.7,3.9-2.2,5.6c-1.5,1.7-3.3,2.8-5.3,3.3v0.2c3.2,0.6,5.7,1.8,7.6,3.5c1.9,1.8,2.8,4,2.8,6.6c0,3.4-1.5,6.2-4.4,8.2
		c-2.9,2.1-6.6,3.1-11.1,3.1H545.5z M560.1-125.8h0.8c2,0,3.8-0.6,5.2-1.8c1.4-1.2,2.1-3,2.1-5.2c0-4.1-2.5-6.2-7.6-6.2h-0.5V-125.8
		z M560.1-106.9h2c6,0,8.9-2.4,8.9-7.3c0-2.3-0.7-4.2-2.2-5.5c-1.4-1.3-3.6-2-6.5-2h-2.3V-106.9z"/>
	<path class="st0" d="M607.2-144c4,0,7.8,0.7,11.2,2.2v10.7h-3.2l-2.6-8.5c-1-0.2-2.1-0.2-3.2-0.2c-4.6,0-8.3,1.4-10.9,4.3
		c-2.6,2.9-4,7.1-4,12.6c0,11.2,4.6,16.9,13.8,16.9c0.6,0,1.1,0,1.7-0.1v-10.9l-6.6-2v-2.6h20.2v2.6l-4.3,2v12.3
		c-0.8,0.4-1.7,0.7-2.7,1.1c-1,0.3-2.1,0.6-3.3,0.9c-1.2,0.2-2.4,0.4-3.6,0.6c-1.2,0.2-2.4,0.2-3.6,0.2c-6.8,0-12-1.8-15.7-5.5
		c-3.6-3.6-5.5-8.8-5.5-15.5c0-6.7,1.9-11.9,5.8-15.5C594.5-142.2,600-144,607.2-144z"/>
</g>
<g>
	<path class="st1" d="M101,99.9H75V59.2h-0.7l-8.1,40.8H42l-8-40.8h-0.7v40.8H7.6l3.3-85.6h36.7L54,53.1h1.2l6.3-38.7h36.2L101,99.9
		z"/>
	<path class="st1" d="M109,56.6c0-15.3,3.1-26.4,9.2-33.3c6.1-6.9,16.2-10.3,30.2-10.3c14,0,24,3.4,30,10.2c6,6.8,9,17.8,9,33.1
		s-3.1,26.6-9.3,34c-6.2,7.3-16.2,11-30,11c-13.8,0-23.8-3.6-29.9-10.9C112.1,83.2,109,71.9,109,56.6z M156,40.2
		c-1.2-2.3-3.8-3.5-7.7-3.5c-4,0-6.5,1.2-7.6,3.4c-1.1,2.3-1.7,7.2-1.7,14.7V61c0,7.7,0.6,12.7,1.8,15c1.2,2.3,3.8,3.4,7.9,3.4
		c4,0,6.6-1.1,7.6-3.3c1-2.2,1.5-7.1,1.5-14.7V55C157.8,47.5,157.2,42.6,156,40.2z"/>
	<path class="st1" d="M265.8,74.9c0,16.7-10.4,25.1-31.1,25.1h-39V14.4h38.4c10.3,0,17.9,1.8,22.8,5.5c4.9,3.7,7.4,9.3,7.4,16.9
		c0,7.6-3.2,13.5-9.6,17.6V55C262.1,58.4,265.8,65,265.8,74.9z M232.8,48.4c0.8-1.1,1.2-3,1.2-5.7c0-2.7-0.4-4.7-1.2-5.9
		c-0.8-1.2-2-1.8-3.8-1.8h-4v15h4.1C230.8,50.1,232,49.5,232.8,48.4z M234,81.3c0.8-1.1,1.2-3.3,1.2-6.7s-0.4-5.8-1.3-7.2
		c-0.9-1.4-2.5-2.1-4.9-2.1h-4v17.6h4C231.5,82.9,233.2,82.3,234,81.3z"/>
	<path class="st1" d="M303.2,99.9h-29.1V14.4h29.1V99.9z"/>
	<path class="st1" d="M366.4,99.9H315V14.4h29.5v63.4h23.8L366.4,99.9z"/>
	<path class="st1" d="M426.5,99.9h-54.6V14.4h56.5l-1.9,22.7h-25.1v10.3h21.9v19.8h-21.9V79h27L426.5,99.9z"/>
</g>
<g>
	<path class="st2" d="M228.1,119.6c0,11.5-8.3,17.3-24.8,17.3h-31.1V77.9h30.7c8.2,0,14.3,1.3,18.2,3.8c3.9,2.5,5.9,6.4,5.9,11.7
		c0,5.3-2.6,9.3-7.7,12.2v0.4C225.1,108.3,228.1,112.8,228.1,119.6z M201.8,101.4c0.6-0.8,0.9-2.1,0.9-3.9c0-1.9-0.3-3.2-0.9-4
		c-0.6-0.8-1.6-1.2-3-1.2h-3.2v10.3h3.3C200.2,102.5,201.1,102.2,201.8,101.4z M202.7,124c0.7-0.7,1-2.3,1-4.6s-0.3-4-1-5
		c-0.7-1-2-1.5-3.9-1.5h-3.2v12.2h3.2C200.7,125.1,202,124.8,202.7,124z"/>
	<path class="st2" d="M264.1,122.4c1.3,0,3.1-0.2,5.3-0.6v-5.7h-5.5V103h25.9v33.9h-16.6l-1.6-3h-0.4c-3.8,2.7-8.3,4-13.5,4
		c-17.2,0-25.7-10-25.7-30c0-10,2.3-17.6,7-22.9c4.7-5.3,12.5-7.9,23.6-7.9c8.2,0,16,1,23.3,2.9l-3.6,17.8c-8.2-2-14.1-2.9-17.6-2.9
		c-3.6,0-5.9,1-7,3c-1.1,2-1.7,5.5-1.7,10.3c0,4.9,0.5,8.4,1.6,10.7C258.4,121.2,260.7,122.4,264.1,122.4z"/>
</g>
<text transform="matrix(1 0 0 1 6.5156 306.3306)" style="font-family:'PassionOne-Bold'; font-size:99.541px;">MOBILE</text>
<text transform="matrix(1 0 0 1 314.5156 306.3306)" class="st0" style="font-family:'PassionOne-Bold'; font-size:99.541px;">BG</text>
</svg>
