<?xml version="1.0" encoding="utf-8"?>
<!-- Generator: Adobe Illustrator 28.2.0, SVG Export Plug-In . SVG Version: 6.00 Build 0)  -->
<svg version="1.1" id="Layer_1" xmlns="http://www.w3.org/2000/svg" xmlns:xlink="http://www.w3.org/1999/xlink" x="0px" y="0px"
	 viewBox="0 0 206.9 56.9" style="enable-background:new 0 0 206.9 56.9;" xml:space="preserve">
<style type="text/css">
	.st0{clip-path:url(#SVGID_00000144313398078212199260000016419796115306991012_);}
	.st1{fill-rule:evenodd;clip-rule:evenodd;fill:#0099FF;}
	.st2{fill:#0099FF;}
</style>
<g>
	<g>
		<g>
			<defs>
				<path id="SVGID_1_" d="M9.1,3.6H197c3,0,5.5,2.5,5.5,5.5v38.8c0,3-2.5,5.5-5.5,5.5H9.1c-3,0-5.5-2.5-5.5-5.5V9.1
					C3.6,6.1,6.1,3.6,9.1,3.6z"/>
			</defs>
			<clipPath id="SVGID_00000066517496653986955700000017401777183663431099_">
				<use xlink:href="#SVGID_1_"  style="overflow:visible;"/>
			</clipPath>
			<g style="clip-path:url(#SVGID_00000066517496653986955700000017401777183663431099_);">
				<g>
					<rect x="-2.3" y="0.3" class="st1" width="25.3" height="58.7"/>
				</g>
			</g>
		</g>
	</g>
	<g>
		<path d="M197,54.4H9.1c-3.5,0-6.5-3-6.5-6.5V9.1c0-3.5,3-6.5,6.5-6.5H197c3.5,0,6.5,3,6.5,6.5v38.8
			C203.5,51.4,200.6,54.4,197,54.4z M9.1,4.6c-2.4,0-4.5,2.1-4.5,4.5v38.8c0,2.4,2.1,4.5,4.5,4.5H197c2.4,0,4.5-2.1,4.5-4.5V9.1
			c0-2.4-2.1-4.5-4.5-4.5H9.1z"/>
	</g>
	<path d="M34.3,15.1h6.8v3.4c0.3-1.3,0.9-2.2,1.6-2.8c0.8-0.6,1.9-0.9,3.3-0.9c1.1,0,2.1,0.3,3,0.8s1.4,1.2,1.8,2.1
		c0.6-1,1.2-1.8,2-2.2c0.7-0.5,1.7-0.7,3-0.7c2.3,0,3.9,0.7,4.8,2.1c0.9,1.4,1.3,3.4,1.3,6.1l-0.1,21.4h-7V22.9
		c0-1.9-0.5-2.8-1.4-2.8c-0.7,0-1.1,0.3-1.4,1c-0.3,0.7-0.4,1.4-0.4,2.3v21h-7V22.9c0-0.8-0.1-1.5-0.3-2s-0.5-0.8-1.1-0.8
		c-0.7,0-1.2,0.4-1.5,1.1s-0.4,1.6-0.4,2.5v20.7h-7V15.1L34.3,15.1z"/>
	<path d="M79.5,17.3c-1.5-1.7-3.7-2.5-6.4-2.5s-4.8,0.9-6.4,2.5c-1.5,1.6-2.3,3.8-2.3,6.6v11.7c0,6.1,3,9.1,8.8,9.1
		c5.8,0,8.7-3,8.6-9V23.9C81.8,21.1,81.1,18.9,79.5,17.3z M74.8,37.1c0,0.7-0.1,1.2-0.4,1.6c-0.2,0.4-0.6,0.6-1.2,0.6
		c-0.6,0-1-0.2-1.2-0.6c-0.3-0.4-0.4-0.9-0.4-1.6V22.7c0-1.7,0.5-2.6,1.6-2.6c1.1,0,1.6,0.9,1.6,2.6V37.1z"/>
	<path d="M100.6,16.8c-1-1.3-2.6-2-4.9-2c-1.5,0-2.8,0.6-3.9,1.7V9.8h-7.2v34.6h7.2v-3.1c0.8,2.3,2.2,3.4,4.1,3.4
		c2,0,3.7-0.7,4.7-2.2s1.5-3.4,1.5-5.8V22.6C102.1,20.1,101.6,18.1,100.6,16.8z M95,35.4c0,1-0.1,1.7-0.1,2.2
		c-0.1,0.5-0.2,0.9-0.4,1.2c-0.2,0.3-0.5,0.5-1,0.5c-0.7,0-1.2-0.4-1.5-0.9c-0.2-0.7-0.3-1.6-0.3-2.9V23.2c0-0.9,0.2-1.7,0.4-2.2
		c0.3-0.5,0.7-0.8,1.4-0.8c0.6,0,1,0.3,1.2,0.8c0.2,0.5,0.3,1.3,0.3,2.3V35.4z"/>
	<path d="M104.5,12.3V8.9c0-0.4,0.3-0.8,0.8-0.8h5.5c0.4,0,0.8,0.3,0.8,0.8v3.4c0,0.4-0.3,0.8-0.8,0.8h-5.5
		C104.9,13.1,104.5,12.7,104.5,12.3z"/>
	<rect x="104.5" y="15.1" width="7" height="29.3"/>
	<rect x="114.3" y="9.8" width="7.1" height="34.6"/>
	<path d="M141,30.4c0.1-1.3,0.1-3.1,0.1-5.2v-2.1c0-5.5-2.8-8.3-8.4-8.3c-2.8,0-5,0.7-6.5,2.1c-1.5,1.5-2.3,3.5-2.3,6.2v11.7
		c0,3.3,0.7,5.7,2,7.4c1.3,1.7,3.5,2.5,6.5,2.5c3.3,0,5.5-0.8,6.7-2.4c1.3-1.6,2-4.1,2-7.5v-1.7h-7V36c0,0.8-0.1,1.4-0.1,1.8
		c0,0.4-0.2,0.8-0.4,1.1s-0.6,0.5-1.1,0.5c-0.7,0-1.2-0.3-1.4-0.9c-0.2-0.6-0.3-1.4-0.3-2.4v-5.7H141z M130.9,23.1
		c0-2.1,0.6-3.2,1.8-3.2c1.1,0,1.6,1.1,1.6,3.2v3.8c0,0-3.3,0-3.4,0V23.1z"/>
	<path d="M168.9,16.8c-1-1.3-2.6-2-4.9-2c-1.5,0-2.8,0.6-3.9,1.7V9.8h-7.2v34.6h7.2v-3.1c0.8,2.3,2.2,3.4,4.1,3.4
		c2.1,0,3.7-0.7,4.7-2.2s1.5-3.4,1.5-5.8V22.6C170.4,20.1,169.9,18.1,168.9,16.8z M163.4,35.4c0,1-0.1,1.7-0.1,2.2
		c-0.1,0.5-0.2,0.9-0.4,1.2c-0.2,0.3-0.5,0.5-1,0.5c-0.8,0-1.2-0.4-1.5-0.9c-0.2-0.7-0.3-1.6-0.3-2.9V23.2c0-0.9,0.2-1.7,0.4-2.2
		c0.3-0.5,0.7-0.8,1.4-0.8c0.6,0,1,0.3,1.2,0.8c0.2,0.5,0.3,1.3,0.3,2.3V35.4z"/>
	<path d="M183.4,15.1v3.5c-0.3-1.2-0.8-2.1-1.5-2.7c-0.8-0.6-1.7-0.9-3-0.9c-2.1,0-3.6,0.7-4.5,2.1c-0.9,1.3-1.3,3.3-1.3,5.9v11
		c0,2.2,0.5,4,1.4,5.4c0.9,1.3,2.4,2,4.4,2c2.4,0,3.8-1,4.4-3V40c0,1.2-0.2,2.1-0.8,2.8c-0.6,0.7-1.4,1-2.5,1
		c-1.7,0-3.4-0.5-5.1-1.5l-2.4,4c1.1,0.9,2.3,1.6,3.5,1.9s2.8,0.5,4.9,0.5c3.3,0,5.7-0.8,7.4-2.2c1.5-1.5,2.3-3.8,2.3-7.1V15.1
		H183.4z M183.2,33c0,2-0.5,3-1.6,3c-0.6,0-1.1-0.3-1.3-0.9c-0.2-0.5-0.3-1.2-0.3-2.1V22.6c0-0.8,0.1-1.4,0.3-1.8
		c0.2-0.5,0.6-0.7,1.2-0.7c0.5,0,0.9,0.3,1.2,0.8c0.3,0.6,0.5,1.1,0.5,1.7V33z"/>
	<path class="st2" d="M144.1,43v-3.2c0-0.7,0.6-1.3,1.3-1.3h3.2c0.7,0,1.3,0.6,1.3,1.3V43c0,0.7-0.6,1.3-1.3,1.3h-3.2
		C144.7,44.4,144.1,43.8,144.1,43z"/>
</g>
</svg>
