<svg width="28" height="28" viewBox="0 0 28 28" fill="none" xmlns="http://www.w3.org/2000/svg">
<path d="M11.614 0.231579C5.39994 0.231579 0.315727 5.31579 0.315727 11.5298C0.315727 17.7439 5.39994 22.8281 11.614 22.8281C14.3256 22.8281 16.8112 21.8112 18.7319 20.2295L25.5108 27.0084C25.9627 27.4603 26.6406 27.4603 27.0926 27.0084C27.5445 26.5565 27.5445 25.8786 27.0926 25.4267L20.3136 18.6477C21.8954 16.727 22.9122 14.2414 22.9122 11.5298C22.9122 5.31579 17.828 0.231579 11.614 0.231579ZM11.614 2.49123C16.5852 2.49123 20.6526 6.5586 20.6526 11.5298C20.6526 16.5011 16.5852 20.5684 11.614 20.5684C6.64274 20.5684 2.57538 16.5011 2.57538 11.5298C2.57538 6.5586 6.64274 2.49123 11.614 2.49123Z" fill="#0099FF"/>
</svg>
