<?xml version="1.0" encoding="utf-8"?>
<!-- Generator: Adobe Illustrator 28.2.0, SVG Export Plug-In . SVG Version: 6.00 Build 0)  -->
<svg version="1.1" id="Layer_1" xmlns="http://www.w3.org/2000/svg" xmlns:xlink="http://www.w3.org/1999/xlink" x="0px" y="0px"
	 viewBox="0 0 28 28" style="enable-background:new 0 0 28 28;" xml:space="preserve">
<style type="text/css">
	.st0{fill:#FFFFFF;}
</style>
<path class="st0" d="M11.6,0.2C5.4,0.2,0.3,5.3,0.3,11.5c0,6.2,5.1,11.3,11.3,11.3c2.7,0,5.2-1,7.1-2.6l6.8,6.8
	c0.5,0.5,1.1,0.5,1.6,0c0.5-0.5,0.5-1.1,0-1.6l-6.8-6.8c1.6-1.9,2.6-4.4,2.6-7.1C22.9,5.3,17.8,0.2,11.6,0.2z M11.6,2.5
	c5,0,9,4.1,9,9c0,5-4.1,9-9,9c-5,0-9-4.1-9-9C2.6,6.6,6.6,2.5,11.6,2.5z"/>
</svg>
