<svg width="95" height="49" viewBox="0 0 95 49" fill="none" xmlns="http://www.w3.org/2000/svg">
<path d="M93.4638 34.8598C93.7115 34.0367 93.9098 33.1652 93.9098 32.2937V27.3552V23.3851C93.9098 22.9009 93.8602 22.3684 93.7611 21.7874C93.662 21.1095 93.4142 20.4317 93.0673 19.7055L88.1612 9.53802C87.0214 7.11721 84.494 5.56788 81.7684 5.56788H45.5921C45.8399 5.08372 45.9885 4.59955 45.9885 4.01856V3.34073C45.9885 1.50091 44.4523 0 42.5691 0H37.663C35.7799 0 34.2436 1.50091 34.2436 3.34073V4.01856C34.2436 4.64797 34.4418 5.22897 34.7392 5.71313C31.5676 6.10046 28.5942 7.35929 26.1659 9.34436L16.4032 17.3331C15.7094 17.8656 15.0652 18.3014 14.421 18.5919L7.33438 21.9326C7.28482 21.9326 7.23526 21.981 7.18571 22.0294C6.3928 22.4168 5.64945 22.9009 4.9061 23.4335C3.66719 24.4018 2.6265 25.5154 1.83359 26.8711C0.644236 28.8077 0 31.0349 0 33.3105V36.3607C0 38.5394 1.53625 40.4277 3.61763 40.9602C3.7663 41.0571 3.96453 41.1539 4.16275 41.1539H4.85655H7.43349C8.37506 45.1241 11.9927 48.029 16.2546 48.029C20.5164 48.029 24.1341 45.0756 25.0756 41.1539H28.3464H63.1847H66.4554C67.397 45.1241 71.0146 48.029 75.2765 48.029C79.5384 48.029 83.156 45.0756 84.0975 41.1539H87.3683H92.1257C93.7115 41.1539 95 39.8951 95 38.2973V37.329C95 36.2639 94.3558 35.3439 93.4638 34.8598ZM92.0266 23.3851V26.4353H87.1205V22.8525H91.9771C91.9771 23.0462 92.0266 23.1914 92.0266 23.3851ZM36.0772 3.29231C36.0772 2.46923 36.771 1.79141 37.6135 1.79141H42.5196C43.362 1.79141 44.0558 2.46923 44.0558 3.29231V3.97014C44.0558 4.84164 43.362 5.51946 42.5196 5.51946H37.6135C36.771 5.51946 36.0772 4.84164 36.0772 3.97014V3.29231ZM4.50965 26.3385C4.70788 26.0964 4.95566 25.9028 5.15389 25.7091C5.35211 25.5154 5.5999 25.2733 5.79812 25.0797H7.58216C7.78039 25.0797 7.92905 25.2249 7.92905 25.467V26.0964C7.92905 26.2901 7.78039 26.4837 7.58216 26.4837H4.41054C4.46009 26.4353 4.46009 26.3869 4.50965 26.3385ZM23.3412 40.1372C22.8952 43.6231 19.8226 46.2376 16.205 46.2376C12.5874 46.2376 9.56442 43.6231 9.06886 40.1372C9.0193 39.8467 9.0193 39.5562 9.0193 39.2173C9.0193 38.0553 9.31664 36.8933 9.86176 35.8765C11.1502 33.601 13.5785 32.1969 16.205 32.1969C18.8315 32.1969 21.2598 33.601 22.5483 35.8281C23.1429 36.8933 23.3907 38.0068 23.3907 39.2173C23.4403 39.5078 23.3907 39.7982 23.3412 40.1372ZM27.4048 39.3625H25.2739C25.2739 39.3141 25.2739 39.2657 25.2739 39.2173C25.2739 37.7163 24.927 36.3123 24.1836 34.9566C22.5978 32.1 19.5253 30.3571 16.205 30.3571C12.8847 30.3571 9.81221 32.1 8.2264 34.9566C7.48305 36.2639 7.13615 37.7163 7.13615 39.1688C7.13615 39.2173 7.13615 39.2657 7.13615 39.3141H5.00522C5.00522 39.2657 5.00522 39.2173 5.00522 39.1688C5.00522 37.9584 5.20344 36.7964 5.5999 35.6829C7.13615 31.2286 11.398 28.2752 16.205 28.2752C16.8492 28.2752 17.4935 28.3236 18.0882 28.4204C22.1022 29.0982 25.4721 31.858 26.7606 35.6829C27.157 36.7964 27.3552 37.9584 27.3552 39.1688C27.4048 39.2657 27.4048 39.3141 27.4048 39.3625ZM62.3918 36.8448C62.3422 36.9901 62.3422 37.1838 62.2926 37.329C62.1935 37.9584 62.144 38.5394 62.144 39.1688C62.144 39.2173 62.144 39.2657 62.144 39.3141H29.288C29.288 39.2657 29.288 39.2173 29.288 39.1688C29.288 38.5394 29.2384 37.91 29.1393 37.329C29.0897 37.1838 29.0897 36.9901 29.0402 36.8448C28.9906 36.6512 28.9906 36.5059 28.9411 36.3123H62.4909C62.4413 36.5059 62.4413 36.6996 62.3918 36.8448ZM82.3631 40.1372C81.9171 43.6231 78.8446 46.2376 75.2269 46.2376C71.6093 46.2376 68.5863 43.6231 68.0908 40.1372C68.0412 39.8467 68.0412 39.5562 68.0412 39.2173C68.0412 38.0553 68.3386 36.8933 68.8837 35.8765C70.1721 33.601 72.6004 32.1969 75.2269 32.1969C77.8534 32.1969 80.2817 33.601 81.5702 35.8281C82.1648 36.8933 82.4126 38.0068 82.4126 39.2173C82.4126 39.5078 82.4126 39.7982 82.3631 40.1372ZM86.4267 39.3625H84.2958C84.2958 39.3141 84.2958 39.2657 84.2958 39.2173C84.2958 37.7163 83.9489 36.3123 83.2055 34.9566C81.6197 32.1 78.5472 30.3571 75.2269 30.3571C71.9066 30.3571 68.8341 32.1 67.2483 34.9566C66.505 36.2639 66.1581 37.7163 66.1581 39.1688C66.1581 39.2173 66.1581 39.2657 66.1581 39.3141H64.0271C64.0271 39.2657 64.0271 39.2173 64.0271 39.1688C64.0271 37.9584 64.2254 36.7964 64.6218 35.6344C66.1085 31.1801 70.3704 28.2267 75.2269 28.2267C75.8216 28.2267 76.4163 28.2752 77.011 28.372C81.0746 29.0014 84.494 31.7611 85.832 35.6829C86.2285 36.7964 86.4267 37.9584 86.4267 39.1688C86.4267 39.2657 86.4267 39.3141 86.4267 39.3625ZM87.0709 33.843C86.9223 33.5525 86.8232 33.3105 86.6745 33.02C86.4763 32.7295 86.278 32.3905 86.0798 32.1C85.9311 31.858 85.7329 31.6159 85.5843 31.3738C85.3365 31.0833 85.0887 30.8412 84.8905 30.5507C84.6922 30.3571 84.494 30.115 84.2958 29.9213C84.048 29.6792 83.7507 29.4371 83.4533 29.2435C83.2055 29.0498 83.0073 28.9046 82.7595 28.7109C82.4622 28.5172 82.1153 28.3236 81.7684 28.1299C81.5206 27.9847 81.3224 27.8394 81.0746 27.7426C80.7277 27.5489 80.3313 27.4521 79.9844 27.3068C79.7366 27.21 79.4888 27.1132 79.241 27.0163C78.795 26.8711 78.3985 26.8227 77.9525 26.7258C77.7543 26.6774 77.5065 26.629 77.3083 26.5806C76.6641 26.4837 75.9703 26.4353 75.2765 26.4353C74.5827 26.4353 73.8889 26.4837 73.2447 26.5806C73.0464 26.629 72.7986 26.6774 72.6004 26.7258C72.1544 26.8227 71.7084 26.9195 71.312 27.0163C71.0642 27.1132 70.8164 27.21 70.5686 27.3068C70.2217 27.4521 69.8252 27.5973 69.4784 27.7426C69.2306 27.8878 68.9828 28.0331 68.735 28.1783C68.4377 28.372 68.0908 28.5172 67.7934 28.7109C67.5456 28.9046 67.2979 29.0982 67.0501 29.2919C66.8023 29.4856 66.505 29.7276 66.2572 29.9213C66.0094 30.115 65.8112 30.3571 65.6129 30.5991C65.4147 30.8412 65.1669 31.0833 64.9687 31.3254C64.7705 31.5675 64.5723 31.858 64.4236 32.1485C64.2254 32.439 64.0767 32.681 63.8785 32.9715C63.7298 33.262 63.5811 33.5525 63.4324 33.843C63.3333 34.0367 63.2342 34.2304 63.1351 34.4724H28.3959C28.2968 34.2304 28.1977 34.0367 28.0986 33.843C27.9499 33.5525 27.8508 33.3105 27.7021 33.02C27.5039 32.7295 27.3057 32.439 27.1075 32.1C26.9588 31.858 26.7606 31.6159 26.6119 31.3738C26.3641 31.0833 26.1659 30.8412 25.9181 30.5507C25.7199 30.3571 25.5217 30.115 25.3234 29.9213C25.0756 29.6792 24.7783 29.4371 24.481 29.2435C24.2827 29.0498 24.035 28.9046 23.8367 28.7109C23.5394 28.5172 23.1925 28.3236 22.8456 28.1299C22.5978 27.9847 22.3996 27.8394 22.1518 27.7426C21.8049 27.5489 21.4084 27.4521 21.0616 27.3068C20.8138 27.21 20.566 27.1132 20.3182 27.0163C19.8722 26.8711 19.4757 26.8227 19.0297 26.7258C18.8315 26.6774 18.5837 26.629 18.3855 26.5806C17.7413 26.4837 17.0475 26.4353 16.3537 26.4353C10.7538 26.4353 5.74857 29.9213 3.96453 35.1019C3.71675 35.7313 3.56808 36.3607 3.46896 37.0385C3.41941 37.2322 3.4194 37.4743 3.4194 37.7163C3.36985 38.1037 3.32029 38.491 3.27074 38.8299C2.47783 38.2973 1.98226 37.4258 1.98226 36.4091V33.3589C1.98226 31.5675 2.42827 29.8245 3.32029 28.2752H7.73083C8.96975 28.2752 9.96088 27.3068 9.96088 26.0964V25.467C9.96088 24.5471 9.3662 23.7724 8.57329 23.4335L15.313 20.238C16.1059 19.8507 16.8988 19.3665 17.6917 18.7371L27.4048 10.7484C30.0313 8.5697 33.4012 7.4077 36.8701 7.4077H37.7621H42.6682H81.9171C83.9489 7.4077 85.7825 8.5697 86.6249 10.3127L91.531 20.4801C91.6302 20.6738 91.6797 20.8675 91.7788 21.0127H86.4267C85.9312 21.0127 85.4851 21.4 85.4851 21.9326V27.3552C85.4851 27.8394 85.8816 28.2752 86.4267 28.2752H92.2248V32.2937C92.2248 33.02 92.0762 33.7946 91.8779 34.5209H87.6161C87.2692 34.2788 87.1701 34.0367 87.0709 33.843ZM93.1169 38.3458C93.1169 38.8783 92.6708 39.3625 92.1257 39.3625H88.3594C88.3594 39.3141 88.3594 39.2657 88.3594 39.2173C88.3594 38.5878 88.3099 37.9584 88.2107 37.329C88.1612 37.1838 88.1612 36.9901 88.1116 36.8448C88.0621 36.6512 88.0621 36.5059 88.0125 36.3123L91.9771 36.2639C92.0762 36.3123 92.1257 36.3123 92.2248 36.3123C92.7204 36.3607 93.1664 36.7964 93.1664 37.2806V38.3458H93.1169Z" fill="#0099FF"/>
<path d="M81.7684 9.05396H64.0271H44.155H34.6896C33.3516 9.05396 32.0631 9.53812 31.0225 10.4096L22.7465 17.6236C22.0527 18.2531 21.8049 19.173 22.1518 20.0445C22.4987 20.916 23.3412 21.4485 24.2828 21.4485H44.155H64.0271H81.7684C83.5524 21.4485 84.9896 20.0445 84.9896 18.3499V12.1526C84.9896 10.4096 83.5524 9.05396 81.7684 9.05396ZM43.2629 19.6087H24.3323C24.0845 19.6087 24.035 19.4635 23.9854 19.3666C23.9359 19.2698 23.9359 19.1246 24.0845 18.9793L32.3605 11.7653C33.0047 11.1843 33.8967 10.8938 34.7392 10.8938H43.2629V19.6087ZM63.1351 19.6087H45.1461V10.8938H63.1351V19.6087ZM83.1064 18.3015C83.1064 19.0277 82.5118 19.6087 81.7684 19.6087H64.9687V10.8938H81.7684C82.5118 10.8938 83.1064 11.4748 83.1064 12.201V18.3015Z" fill="#0099FF"/>
</svg>
