<?xml version="1.0" encoding="utf-8"?>
<!-- Generator: Adobe Illustrator 28.2.0, SVG Export Plug-In . SVG Version: 6.00 Build 0)  -->
<svg version="1.1" id="Layer_1" xmlns="http://www.w3.org/2000/svg" xmlns:xlink="http://www.w3.org/1999/xlink" x="0px" y="0px"
	 viewBox="0 0 95 49" style="enable-background:new 0 0 95 49;" xml:space="preserve">
<style type="text/css">
	.st0{fill:#FFFFFF;}
</style>
<g>
	<path class="st0" d="M93.5,34.9c0.2-0.8,0.4-1.7,0.4-2.6v-4.9v-4c0-0.5,0-1-0.1-1.6c-0.1-0.7-0.3-1.4-0.7-2.1L88.2,9.5
		c-1.1-2.4-3.7-4-6.4-4H45.6C45.8,5.1,46,4.6,46,4V3.3C46,1.5,44.5,0,42.6,0h-4.9c-1.9,0-3.4,1.5-3.4,3.3V4c0,0.6,0.2,1.2,0.5,1.7
		c-3.2,0.4-6.1,1.6-8.6,3.6l-9.8,8c-0.7,0.5-1.3,1-2,1.3l-7.1,3.3c0,0-0.1,0-0.1,0.1c-0.8,0.4-1.5,0.9-2.3,1.4
		c-1.2,1-2.3,2.1-3.1,3.4C0.6,28.8,0,31,0,33.3v3.1c0,2.2,1.5,4.1,3.6,4.6c0.1,0.1,0.3,0.2,0.5,0.2h0.7h2.6c0.9,4,4.6,6.9,8.8,6.9
		c4.3,0,7.9-3,8.8-6.9h3.3h34.8h3.3c0.9,4,4.6,6.9,8.8,6.9c4.3,0,7.9-3,8.8-6.9h3.3h4.8c1.6,0,2.9-1.3,2.9-2.9v-1
		C95,36.3,94.4,35.3,93.5,34.9z M92,23.4v3.1h-4.9v-3.6H92C92,23,92,23.2,92,23.4z M36.1,3.3c0-0.8,0.7-1.5,1.5-1.5h4.9
		c0.8,0,1.5,0.7,1.5,1.5V4c0,0.9-0.7,1.5-1.5,1.5h-4.9c-0.8,0-1.5-0.7-1.5-1.5V3.3z M4.5,26.3c0.2-0.2,0.4-0.4,0.6-0.6
		c0.2-0.2,0.4-0.4,0.6-0.6h1.8c0.2,0,0.3,0.1,0.3,0.4v0.6c0,0.2-0.1,0.4-0.3,0.4H4.4C4.5,26.4,4.5,26.4,4.5,26.3z M23.3,40.1
		c-0.4,3.5-3.5,6.1-7.1,6.1s-6.6-2.6-7.1-6.1c0-0.3,0-0.6,0-0.9c0-1.2,0.3-2.3,0.8-3.3c1.3-2.3,3.7-3.7,6.3-3.7s5.1,1.4,6.3,3.6
		c0.6,1.1,0.8,2.2,0.8,3.4C23.4,39.5,23.4,39.8,23.3,40.1z M27.4,39.4h-2.1c0,0,0-0.1,0-0.1c0-1.5-0.3-2.9-1.1-4.3
		c-1.6-2.9-4.7-4.6-8-4.6s-6.4,1.7-8,4.6c-0.7,1.3-1.1,2.8-1.1,4.2c0,0,0,0.1,0,0.1H5c0,0,0-0.1,0-0.1c0-1.2,0.2-2.4,0.6-3.5
		c1.5-4.5,5.8-7.4,10.6-7.4c0.6,0,1.3,0,1.9,0.1c4,0.7,7.4,3.4,8.7,7.3c0.4,1.1,0.6,2.3,0.6,3.5C27.4,39.3,27.4,39.3,27.4,39.4z
		 M62.4,36.8c0,0.1,0,0.3-0.1,0.5c-0.1,0.6-0.1,1.2-0.1,1.8c0,0,0,0.1,0,0.1H29.3c0,0,0-0.1,0-0.1c0-0.6,0-1.3-0.1-1.8
		c0-0.1,0-0.3-0.1-0.5c0-0.2,0-0.3-0.1-0.5h33.5C62.4,36.5,62.4,36.7,62.4,36.8z M82.4,40.1c-0.4,3.5-3.5,6.1-7.1,6.1
		c-3.6,0-6.6-2.6-7.1-6.1c0-0.3,0-0.6,0-0.9c0-1.2,0.3-2.3,0.8-3.3c1.3-2.3,3.7-3.7,6.3-3.7c2.6,0,5.1,1.4,6.3,3.6
		c0.6,1.1,0.8,2.2,0.8,3.4C82.4,39.5,82.4,39.8,82.4,40.1z M86.4,39.4h-2.1c0,0,0-0.1,0-0.1c0-1.5-0.3-2.9-1.1-4.3
		c-1.6-2.9-4.7-4.6-8-4.6c-3.3,0-6.4,1.7-8,4.6c-0.7,1.3-1.1,2.8-1.1,4.2c0,0,0,0.1,0,0.1H64c0,0,0-0.1,0-0.1c0-1.2,0.2-2.4,0.6-3.5
		c1.5-4.5,5.7-7.4,10.6-7.4c0.6,0,1.2,0,1.8,0.1c4.1,0.6,7.5,3.4,8.8,7.3c0.4,1.1,0.6,2.3,0.6,3.5C86.4,39.3,86.4,39.3,86.4,39.4z
		 M87.1,33.8c-0.1-0.3-0.2-0.5-0.4-0.8c-0.2-0.3-0.4-0.6-0.6-0.9c-0.1-0.2-0.3-0.5-0.5-0.7c-0.2-0.3-0.5-0.5-0.7-0.8
		c-0.2-0.2-0.4-0.4-0.6-0.6c-0.2-0.2-0.5-0.5-0.8-0.7c-0.2-0.2-0.4-0.3-0.7-0.5c-0.3-0.2-0.6-0.4-1-0.6c-0.2-0.1-0.4-0.3-0.7-0.4
		c-0.3-0.2-0.7-0.3-1.1-0.4c-0.2-0.1-0.5-0.2-0.7-0.3c-0.4-0.1-0.8-0.2-1.3-0.3c-0.2,0-0.4-0.1-0.6-0.1c-0.6-0.1-1.3-0.1-2-0.1
		c-0.7,0-1.4,0-2,0.1c-0.2,0-0.4,0.1-0.6,0.1c-0.4,0.1-0.9,0.2-1.3,0.3c-0.2,0.1-0.5,0.2-0.7,0.3c-0.3,0.1-0.7,0.3-1.1,0.4
		c-0.2,0.1-0.5,0.3-0.7,0.4c-0.3,0.2-0.6,0.3-0.9,0.5c-0.2,0.2-0.5,0.4-0.7,0.6c-0.2,0.2-0.5,0.4-0.8,0.6c-0.2,0.2-0.4,0.4-0.6,0.7
		c-0.2,0.2-0.4,0.5-0.6,0.7c-0.2,0.2-0.4,0.5-0.5,0.8c-0.2,0.3-0.3,0.5-0.5,0.8c-0.1,0.3-0.3,0.6-0.4,0.9c-0.1,0.2-0.2,0.4-0.3,0.6
		H28.4c-0.1-0.2-0.2-0.4-0.3-0.6c-0.1-0.3-0.2-0.5-0.4-0.8c-0.2-0.3-0.4-0.6-0.6-0.9c-0.1-0.2-0.3-0.5-0.5-0.7
		c-0.2-0.3-0.4-0.5-0.7-0.8c-0.2-0.2-0.4-0.4-0.6-0.6c-0.2-0.2-0.5-0.5-0.8-0.7c-0.2-0.2-0.4-0.3-0.6-0.5c-0.3-0.2-0.6-0.4-1-0.6
		c-0.2-0.1-0.4-0.3-0.7-0.4c-0.3-0.2-0.7-0.3-1.1-0.4c-0.2-0.1-0.5-0.2-0.7-0.3c-0.4-0.1-0.8-0.2-1.3-0.3c-0.2,0-0.4-0.1-0.6-0.1
		c-0.6-0.1-1.3-0.1-2-0.1c-5.6,0-10.6,3.5-12.4,8.7c-0.2,0.6-0.4,1.3-0.5,1.9c0,0.2,0,0.4,0,0.7c0,0.4-0.1,0.8-0.1,1.1
		C2.5,38.3,2,37.4,2,36.4v-3.1c0-1.8,0.4-3.5,1.3-5.1h4.4c1.2,0,2.2-1,2.2-2.2v-0.6c0-0.9-0.6-1.7-1.4-2l6.7-3.2
		c0.8-0.4,1.6-0.9,2.4-1.5l9.7-8c2.6-2.2,6-3.3,9.5-3.3h0.9h4.9h39.2c2,0,3.9,1.2,4.7,2.9l4.9,10.2c0.1,0.2,0.1,0.4,0.2,0.5h-5.4
		c-0.5,0-0.9,0.4-0.9,0.9v5.4c0,0.5,0.4,0.9,0.9,0.9h5.8v4c0,0.7-0.1,1.5-0.3,2.2h-4.3C87.3,34.3,87.2,34,87.1,33.8z M93.1,38.3
		c0,0.5-0.4,1-1,1h-3.8c0,0,0-0.1,0-0.1c0-0.6,0-1.3-0.1-1.9c0-0.1,0-0.3-0.1-0.5c0-0.2,0-0.3-0.1-0.5l4,0c0.1,0,0.1,0,0.2,0
		c0.5,0,0.9,0.5,0.9,1L93.1,38.3L93.1,38.3z"/>
	<path class="st0" d="M81.8,9.1H64H44.2h-9.5c-1.3,0-2.6,0.5-3.7,1.4l-8.3,7.2c-0.7,0.6-0.9,1.5-0.6,2.4c0.3,0.9,1.2,1.4,2.1,1.4
		h19.9H64h17.7c1.8,0,3.2-1.4,3.2-3.1v-6.2C85,10.4,83.6,9.1,81.8,9.1z M43.3,19.6H24.3c-0.2,0-0.3-0.1-0.3-0.2c0-0.1,0-0.2,0.1-0.4
		l8.3-7.2c0.6-0.6,1.5-0.9,2.4-0.9h8.5V19.6z M63.1,19.6h-18v-8.7h18V19.6z M83.1,18.3c0,0.7-0.6,1.3-1.3,1.3H65v-8.7h16.8
		c0.7,0,1.3,0.6,1.3,1.3V18.3z"/>
</g>
</svg>
