<svg width="82" height="62" viewBox="0 0 82 62" fill="none" xmlns="http://www.w3.org/2000/svg">
<path d="M23.6111 29.2778H13.5523C12.7692 29.2778 12.1067 29.6935 11.8055 30.4062L8.73366 36.8794C8.4325 37.4732 8.49273 38.1859 8.85412 38.7204C9.21552 39.3142 9.81784 39.6112 10.5406 39.6112H23.6713C24.7555 39.6112 25.5987 38.7204 25.5987 37.7108V31.1782C25.5385 30.1686 24.6953 29.2778 23.6111 29.2778ZM23.9122 37.6514C23.9122 37.8296 23.7918 37.9483 23.6111 37.9483H10.4804C10.3599 37.9483 10.2395 37.8889 10.2395 37.8296C10.1792 37.7702 10.1792 37.7108 10.2395 37.5326L13.3113 31.0594C13.3716 30.9407 13.4318 30.8813 13.6125 30.8813H23.6713C23.852 30.8813 23.9725 31.0001 23.9725 31.1782V37.6514H23.9122Z" fill="#0099FF"/>
<path d="M50.6555 27.7931H48.728C47.8848 27.7931 47.1018 28.2682 46.7404 29.0402L42.8253 36.9981C42.765 37.1168 42.765 37.2356 42.765 37.3544V38.8985C42.765 39.3736 43.1264 39.7299 43.6083 39.7299H50.7157C51.9806 39.7299 52.9443 38.7203 52.9443 37.5326V30.0498C52.8841 28.8027 51.9204 27.7931 50.6555 27.7931ZM51.2578 37.5326C51.2578 37.8295 51.0169 38.1264 50.6555 38.1264H44.3311V37.5919L48.0052 30.0498L48.1257 29.8122C48.2462 29.6341 48.4269 29.5153 48.6678 29.5153H50.5952C50.8964 29.5153 51.1976 29.7529 51.1976 30.1092V37.5326H51.2578Z" fill="#0099FF"/>
<path d="M81.8559 20.7854C81.7354 20.6073 81.5547 20.4885 81.374 20.4291L75.1099 18.8257C73.6041 17.4598 71.6766 16.6877 69.6287 16.6877H67.7013C67.5206 16.6877 67.3399 16.7471 67.1592 16.8065L11.2635 2.43487C10.9021 1.00958 9.57696 0 8.01092 0H3.37302C1.50581 0 0 1.48467 0 3.32567V7.89847C0 9.73946 1.50581 11.2241 3.37302 11.2241H4.87883V12.59C4.87883 13.8372 4.21627 14.9655 3.07185 15.5C0.963718 16.6284 -0.180696 18.9444 0.240931 21.2605C0.662558 23.4579 2.46953 25.2395 4.69813 25.6552C5.05953 25.7146 5.36069 25.7146 5.66185 25.7146C6.92673 25.7146 8.19162 25.2989 9.21557 24.4674C10.4804 23.3985 11.2032 21.9138 11.2032 20.3103C11.2032 19.8353 10.8418 19.4789 10.36 19.4789C9.87812 19.4789 9.51673 19.8353 9.51673 20.3103C9.51673 21.4387 9.03487 22.5077 8.13138 23.2203C7.22789 23.9329 6.14371 24.2299 4.93906 24.0517C3.37302 23.7548 2.10814 22.5077 1.80697 21.023C1.50581 19.3602 2.34907 17.7567 3.79465 16.9847C5.42092 16.0939 6.44487 14.431 6.44487 12.59V11.2241H7.89045C9.21556 11.2241 10.36 10.4521 10.9021 9.32376L31.5016 15.5L44.3913 28.2088C44.3311 28.2682 44.2709 28.387 44.2709 28.4464L40.3557 36.8199C40.0546 37.4732 39.9341 38.1264 39.9341 38.7797V42.5211H32.5255V29.6341C32.5255 27.9713 31.1402 26.6054 29.4537 26.6054H20.5995V26.0709C20.5995 24.1705 19.0335 22.5671 17.0458 22.5671C15.1183 22.5671 13.4921 24.1111 13.4921 26.0709V26.6648C11.5044 26.7241 9.69742 27.9119 8.85417 29.7529L5.90278 36.1073C5.36069 37.3544 5.05953 38.6609 5.05953 40.0268V54.5766C5.05953 56.6552 6.74603 58.318 8.85417 58.318H11.8056H15.0581C15.7207 59.387 16.6242 60.3372 17.7083 60.9904C18.7925 61.6437 20.1176 62 21.4428 62C22.7679 62 24.093 61.6437 25.1772 60.9904C26.3216 60.3372 27.2251 59.4464 27.8876 58.318H29.2127C30.2969 58.318 31.3209 57.7835 31.9232 56.9521H41.982H45.1141C46.0778 59.9215 48.9088 62 52.1613 62C55.0525 62 57.522 60.3372 58.7266 57.9617C59.9313 60.3372 62.4611 62 65.3522 62C68.6048 62 71.3755 59.9808 72.3994 56.9521C75.2906 56.8927 77.6999 54.5766 77.6999 51.6667V44.0057V34.3257V29.159L78.9045 29.5153C78.9647 29.5153 79.0852 29.5747 79.1454 29.5747C79.2659 29.5747 79.4466 29.5153 79.5671 29.4559C79.7478 29.3372 79.9285 29.159 79.9887 28.9215L81.9764 21.3793C82.0366 21.2011 81.9764 20.9636 81.8559 20.7854ZM9.75766 3.32567V7.89847C9.75766 7.95785 9.75766 8.07663 9.75766 8.13602C9.63719 8.96743 8.9144 9.5613 8.07115 9.5613H3.43325C2.52976 9.5613 1.74674 8.78927 1.74674 7.89847V3.32567C1.74674 2.43487 2.52976 1.66284 3.43325 1.66284H8.07115C8.97464 1.66284 9.69742 2.31609 9.75766 3.32567C9.75766 3.26628 9.75766 3.26628 9.75766 3.32567ZM15.299 26.0709C15.299 25.0613 16.1423 24.2299 17.1663 24.2299C18.1902 24.2299 19.0335 25.0613 19.0335 26.0709V26.6054H15.299V26.0709ZM26.7432 57.1303C26.2613 58.1398 25.4783 58.9713 24.4544 59.5651C22.7076 60.5747 20.4188 60.5747 18.6721 59.5651C17.7083 59.0307 16.9253 58.1992 16.3832 57.1303C15.9616 56.3582 15.7809 55.5268 15.7809 54.636C15.7809 51.4885 18.3709 48.9349 21.5632 48.9349C24.7555 48.9349 27.3455 51.4885 27.3455 54.636C27.3455 55.4674 27.1046 56.2989 26.7432 57.1303ZM31.0197 54.933C31.0197 55.2299 30.9595 55.4674 30.7788 55.705C30.4776 56.2989 29.8753 56.6552 29.2127 56.6552H28.6707C28.6707 56.5958 28.6706 56.5364 28.7309 56.477C28.7911 56.2395 28.8513 56.0613 28.8513 55.8238C28.8513 55.705 28.9116 55.6456 28.9116 55.5268C28.9718 55.2299 28.9718 54.8736 28.9718 54.5766C28.9718 50.5383 25.659 47.2126 21.503 47.2126C17.4072 47.2126 14.0944 50.4789 14.0944 54.5766C14.0944 54.8736 14.0944 55.2299 14.1546 55.5268C14.1546 55.6456 14.2149 55.705 14.2149 55.8238C14.2751 56.0613 14.2751 56.2989 14.3353 56.477C14.3353 56.5364 14.3353 56.5958 14.3956 56.5958H12.709V51.0728C12.709 48.2816 14.9979 46.0843 17.7686 46.0843H22.1053C24.6351 46.0843 26.9841 46.9751 28.8513 48.6973C29.273 49.0536 29.6946 49.5287 30.056 50.0038C30.1765 50.182 30.2367 50.3008 30.3572 50.4789C30.5981 50.7759 30.7788 51.1322 30.9595 51.4291V54.933H31.0197ZM31.0197 43.2337V48.4598C30.9595 48.4004 30.9595 48.4004 30.8993 48.341C30.5981 48.0441 30.2969 47.6877 29.9958 47.4502C27.8876 45.4904 25.0567 44.4215 22.1655 44.4215H17.8288C14.0944 44.4215 11.0828 47.3908 11.0828 51.0728V56.6552H8.97464C7.83022 56.6552 6.8665 55.705 6.8665 54.5766V39.9674C6.8665 38.8391 7.10743 37.7107 7.58929 36.7012L10.5407 30.3467C11.143 29.0402 12.4681 28.2088 13.9137 28.2088H14.516H19.9369H29.6344C30.4174 28.2088 31.08 28.8621 31.08 29.6341V43.2337H31.0197ZM32.646 55.2299C32.646 55.1111 32.646 54.9923 32.646 54.8736V51.1322V44.0651H40.0546V54.933C40.0546 55.0517 40.0546 55.1705 40.0546 55.2299H32.646ZM65.7136 26.1897C65.8341 26.3678 66.0148 26.546 66.1955 26.6648C66.2557 26.6648 66.2557 26.7241 66.3159 26.7241C66.4966 26.8429 66.6773 26.9617 66.9183 27.0211C66.9785 27.0211 66.9785 27.0211 67.0387 27.0805C67.2797 27.1398 67.5206 27.1992 67.7615 27.1992H68.8457C69.448 27.1992 69.9299 27.6743 69.9299 28.2682V33.4943H67.7013C63.8464 33.4943 60.6541 30.4061 60.6541 26.546V23.9923L65.4727 25.4176C65.4727 25.4176 65.4727 25.477 65.5329 25.477C65.5329 25.7739 65.5931 25.9521 65.7136 26.1897ZM56.1969 25.5958H49.6918L42.765 18.7069L58.9676 23.5766V26.6054C58.9676 29.4559 60.4131 31.9502 62.5815 33.5536H58.0641V27.4368C58.0641 26.3678 57.2208 25.5958 56.1969 25.5958ZM32.3448 13.8966L11.4442 7.66092V4.15709L65.5931 17.9943C65.5931 18.0536 65.5329 18.113 65.5329 18.1724C65.5329 18.2318 65.4727 18.2912 65.4727 18.3506C65.4124 18.5287 65.4125 18.7069 65.4125 18.9444V23.6954L61.0757 22.3889L40.0546 16.2126H39.9943L32.3448 13.8966ZM35.0553 16.3908L39.392 17.6973L47.5234 25.7146C47.4029 25.7739 47.2222 25.8333 47.1018 25.8927C46.9211 25.9521 46.7404 26.0115 46.5597 26.1303C46.4392 26.1897 46.2585 26.3084 46.1381 26.3678C45.9574 26.4866 45.7767 26.6054 45.6562 26.7241C45.6562 26.7241 45.596 26.7241 45.596 26.7835L35.0553 16.3908ZM52.2215 60.2778C49.752 60.2778 47.6439 58.7931 46.8006 56.5958C46.8608 56.5364 46.8609 56.477 46.8609 56.477L46.9211 56.4176C46.9813 56.2989 46.9813 56.2395 46.9813 56.1207V53.9234C46.9813 52.0824 48.4871 50.5977 50.3543 50.5977H56.2571C57.3413 51.6667 58.0039 53.1513 58.0039 54.6954C58.0039 57.7241 55.4139 60.2778 52.2215 60.2778ZM58.8471 51.3103C58.7266 51.0728 58.5459 50.7759 58.4255 50.5383H59.329C59.1483 50.7759 58.9676 51.0134 58.8471 51.3103ZM65.4727 60.2778C62.2804 60.2778 59.6904 57.7241 59.6904 54.5766C59.6904 53.0326 60.2927 51.5479 61.4371 50.4789H67.4604C69.3276 50.4789 70.8334 51.9636 70.8334 53.8046V56.0019C70.8334 56.1207 70.8936 56.2395 70.9538 56.3582C70.9538 56.3582 70.9538 56.3582 70.9538 56.4176C70.1106 58.7337 67.9422 60.2778 65.4727 60.2778ZM76.0736 51.6073C76.0736 53.6264 74.4473 55.2299 72.3994 55.2299V53.8046C72.3994 51.0728 70.1708 48.8755 67.4001 48.8755H61.0155H56.5583H50.3543C47.5836 48.8755 45.355 51.0728 45.355 53.8046V55.2299H42.0423C41.8616 55.2299 41.6809 55.1111 41.6809 54.933V43.2337V38.6609C41.6809 38.2452 41.8013 37.7701 41.982 37.3544L45.8971 28.9808C45.9574 28.8027 46.0778 28.6245 46.2585 28.4464C46.8609 27.6743 47.8246 27.1992 48.7883 27.1992H49.3304H56.1366C56.2571 27.1992 56.3173 27.2586 56.3173 27.4368V34.3257V44.0057C56.3173 44.4808 56.6787 44.8372 57.1606 44.8372H76.0134V51.6073H76.0736ZM76.0736 43.1743H58.0039V35.1571H67.5808H70.6527H76.0134V43.1743H76.0736ZM76.0736 28.0307V33.4943H71.4959V28.2682C71.4959 26.7835 70.2913 25.5958 68.7855 25.5958H67.7013C67.3399 25.5958 67.0387 25.2989 67.0387 24.8831V19.0038C67.0387 18.8851 67.099 18.7663 67.1592 18.6475C67.1592 18.5881 67.2194 18.5881 67.2796 18.5881C67.3399 18.5287 67.4001 18.4693 67.4604 18.41C67.5808 18.3506 67.7013 18.3506 67.7615 18.3506H69.6889C71.3755 18.3506 73.0017 19.0038 74.2666 20.1916C75.5315 21.4387 76.1941 23.0421 76.1941 24.7644V28.0307H76.0736ZM78.6034 27.6743L77.7601 27.4368V24.705C77.7601 24.2299 77.6999 23.7548 77.6396 23.2797C77.6396 23.1609 77.5794 23.1015 77.5794 22.9828C77.4589 22.5077 77.3385 22.092 77.1578 21.6762C77.1578 21.6169 77.0975 21.5575 77.0373 21.4981C76.9771 21.3199 76.8566 21.1418 76.7964 20.9636L80.1694 21.8544L78.6034 27.6743Z" fill="#0099FF"/>
</svg>
