<?xml version="1.0" encoding="utf-8"?>
<!-- Generator: Adobe Illustrator 28.2.0, SVG Export Plug-In . SVG Version: 6.00 Build 0)  -->
<svg version="1.1" id="Layer_1" xmlns="http://www.w3.org/2000/svg" xmlns:xlink="http://www.w3.org/1999/xlink" x="0px" y="0px"
	 viewBox="0 0 82 62" style="enable-background:new 0 0 82 62;" xml:space="preserve">
<style type="text/css">
	.st0{fill:#FFFFFF;}
</style>
<g>
	<path class="st0" d="M23.6,29.3H13.6c-0.8,0-1.4,0.4-1.7,1.1l-3.1,6.5c-0.3,0.6-0.2,1.3,0.1,1.8c0.4,0.6,1,0.9,1.7,0.9h13.1
		c1.1,0,1.9-0.9,1.9-1.9v-6.5C25.5,30.2,24.7,29.3,23.6,29.3z M23.9,37.7c0,0.2-0.1,0.3-0.3,0.3H10.5c-0.1,0-0.2-0.1-0.2-0.1
		c-0.1-0.1-0.1-0.1,0-0.3l3.1-6.5c0.1-0.1,0.1-0.2,0.3-0.2h10.1c0.2,0,0.3,0.1,0.3,0.3L23.9,37.7L23.9,37.7z"/>
	<path class="st0" d="M50.7,27.8h-1.9c-0.8,0-1.6,0.5-2,1.2l-3.9,8c-0.1,0.1-0.1,0.2-0.1,0.4v1.5c0,0.5,0.4,0.8,0.8,0.8h7.1
		c1.3,0,2.2-1,2.2-2.2V30C52.9,28.8,51.9,27.8,50.7,27.8z M51.3,37.5c0,0.3-0.2,0.6-0.6,0.6h-6.3v-0.5L48,30l0.1-0.2
		c0.1-0.2,0.3-0.3,0.5-0.3h1.9c0.3,0,0.6,0.2,0.6,0.6L51.3,37.5L51.3,37.5z"/>
	<path class="st0" d="M81.9,20.8c-0.1-0.2-0.3-0.3-0.5-0.4l-6.3-1.6c-1.5-1.4-3.4-2.1-5.5-2.1h-1.9c-0.2,0-0.4,0.1-0.5,0.1L11.3,2.4
		C10.9,1,9.6,0,8,0H3.4C1.5,0,0,1.5,0,3.3v4.6c0,1.8,1.5,3.3,3.4,3.3h1.5v1.4c0,1.2-0.7,2.4-1.8,2.9c-2.1,1.1-3.3,3.4-2.8,5.8
		c0.4,2.2,2.2,4,4.5,4.4c0.4,0.1,0.7,0.1,1,0.1c1.3,0,2.5-0.4,3.6-1.2c1.3-1.1,2-2.6,2-4.2c0-0.5-0.4-0.8-0.8-0.8
		c-0.5,0-0.8,0.4-0.8,0.8c0,1.1-0.5,2.2-1.4,2.9c-0.9,0.7-2,1-3.2,0.8c-1.6-0.3-2.8-1.5-3.1-3c-0.3-1.7,0.5-3.3,2-4
		c1.6-0.9,2.7-2.6,2.7-4.4v-1.4h1.4c1.3,0,2.5-0.8,3-1.9l20.6,6.2l12.9,12.7c-0.1,0.1-0.1,0.2-0.1,0.2l-3.9,8.4
		c-0.3,0.7-0.4,1.3-0.4,2v3.7h-7.4V29.6c0-1.7-1.4-3-3.1-3h-8.9v-0.5c0-1.9-1.6-3.5-3.6-3.5c-1.9,0-3.6,1.5-3.6,3.5v0.6
		c-2,0.1-3.8,1.2-4.6,3.1l-3,6.4c-0.5,1.2-0.8,2.6-0.8,3.9v14.5c0,2.1,1.7,3.7,3.8,3.7h3h3.3c0.7,1.1,1.6,2,2.7,2.7
		c1.1,0.7,2.4,1,3.7,1c1.3,0,2.7-0.4,3.7-1c1.1-0.7,2-1.5,2.7-2.7h1.3c1.1,0,2.1-0.5,2.7-1.4H42h3.1c1,3,3.8,5,7,5
		c2.9,0,5.4-1.7,6.6-4c1.2,2.4,3.7,4,6.6,4c3.3,0,6-2,7-5c2.9-0.1,5.3-2.4,5.3-5.3V44v-9.7v-5.2l1.2,0.4c0.1,0,0.2,0.1,0.2,0.1
		c0.1,0,0.3-0.1,0.4-0.1c0.2-0.1,0.4-0.3,0.4-0.5l2-7.5C82,21.2,82,21,81.9,20.8z M9.8,3.3v4.6c0,0.1,0,0.2,0,0.2
		C9.6,9,8.9,9.6,8.1,9.6H3.4c-0.9,0-1.7-0.8-1.7-1.7V3.3c0-0.9,0.8-1.7,1.7-1.7h4.6C9,1.7,9.7,2.3,9.8,3.3C9.8,3.3,9.8,3.3,9.8,3.3z
		 M15.3,26.1c0-1,0.8-1.8,1.9-1.8c1,0,1.9,0.8,1.9,1.8v0.5h-3.7V26.1z M26.7,57.1c-0.5,1-1.3,1.8-2.3,2.4c-1.7,1-4,1-5.8,0
		c-1-0.5-1.7-1.4-2.3-2.4c-0.4-0.8-0.6-1.6-0.6-2.5c0-3.1,2.6-5.7,5.8-5.7s5.8,2.6,5.8,5.7C27.3,55.5,27.1,56.3,26.7,57.1z M31,54.9
		c0,0.3-0.1,0.5-0.2,0.8c-0.3,0.6-0.9,1-1.6,1h-0.5c0-0.1,0-0.1,0.1-0.2c0.1-0.2,0.1-0.4,0.1-0.7c0-0.1,0.1-0.2,0.1-0.3
		c0.1-0.3,0.1-0.7,0.1-1c0-4-3.3-7.4-7.5-7.4c-4.1,0-7.4,3.3-7.4,7.4c0,0.3,0,0.7,0.1,1c0,0.1,0.1,0.2,0.1,0.3
		c0.1,0.2,0.1,0.5,0.1,0.7c0,0.1,0,0.1,0.1,0.1h-1.7v-5.5c0-2.8,2.3-5,5.1-5h4.3c2.5,0,4.9,0.9,6.7,2.6c0.4,0.4,0.8,0.8,1.2,1.3
		c0.1,0.2,0.2,0.3,0.3,0.5c0.2,0.3,0.4,0.7,0.6,1L31,54.9L31,54.9z M31,43.2v5.2c-0.1-0.1-0.1-0.1-0.1-0.1c-0.3-0.3-0.6-0.7-0.9-0.9
		c-2.1-2-4.9-3-7.8-3h-4.3c-3.7,0-6.7,3-6.7,6.7v5.6H9c-1.1,0-2.1-1-2.1-2.1V40c0-1.1,0.2-2.3,0.7-3.3l3-6.4
		c0.6-1.3,1.9-2.1,3.4-2.1h0.6h5.4h9.7c0.8,0,1.4,0.7,1.4,1.4L31,43.2L31,43.2z M32.6,55.2c0-0.1,0-0.2,0-0.4v-3.7v-7.1h7.4v10.9
		c0,0.1,0,0.2,0,0.3H32.6z M65.7,26.2c0.1,0.2,0.3,0.4,0.5,0.5c0.1,0,0.1,0.1,0.1,0.1c0.2,0.1,0.4,0.2,0.6,0.3c0.1,0,0.1,0,0.1,0.1
		c0.2,0.1,0.5,0.1,0.7,0.1h1.1c0.6,0,1.1,0.5,1.1,1.1v5.2h-2.2c-3.9,0-7-3.1-7-6.9V24l4.8,1.4c0,0,0,0.1,0.1,0.1
		C65.5,25.8,65.6,26,65.7,26.2z M56.2,25.6h-6.5l-6.9-6.9L59,23.6v3c0,2.9,1.4,5.3,3.6,6.9h-4.5v-6.1C58.1,26.4,57.2,25.6,56.2,25.6
		z M32.3,13.9L11.4,7.7V4.2L65.6,18c0,0.1-0.1,0.1-0.1,0.2c0,0.1-0.1,0.1-0.1,0.2c-0.1,0.2-0.1,0.4-0.1,0.6v4.8l-4.3-1.3l-21-6.2H40
		L32.3,13.9z M35.1,16.4l4.3,1.3l8.1,8c-0.1,0.1-0.3,0.1-0.4,0.2c-0.2,0.1-0.4,0.1-0.5,0.2c-0.1,0.1-0.3,0.2-0.4,0.2
		c-0.2,0.1-0.4,0.2-0.5,0.4c0,0-0.1,0-0.1,0.1L35.1,16.4z M52.2,60.3c-2.5,0-4.6-1.5-5.4-3.7c0.1-0.1,0.1-0.1,0.1-0.1l0.1-0.1
		c0.1-0.1,0.1-0.2,0.1-0.3v-2.2c0-1.8,1.5-3.3,3.4-3.3h5.9c1.1,1.1,1.7,2.6,1.7,4.1C58,57.7,55.4,60.3,52.2,60.3z M58.8,51.3
		c-0.1-0.2-0.3-0.5-0.4-0.8h0.9C59.1,50.8,59,51,58.8,51.3z M65.5,60.3c-3.2,0-5.8-2.6-5.8-5.7c0-1.5,0.6-3,1.7-4.1h6
		c1.9,0,3.4,1.5,3.4,3.3V56c0,0.1,0.1,0.2,0.1,0.4c0,0,0,0,0,0.1C70.1,58.7,67.9,60.3,65.5,60.3z M76.1,51.6c0,2-1.6,3.6-3.7,3.6
		v-1.4c0-2.7-2.2-4.9-5-4.9H61h-4.5h-6.2c-2.8,0-5,2.2-5,4.9v1.4H42c-0.2,0-0.4-0.1-0.4-0.3V43.2v-4.6c0-0.4,0.1-0.9,0.3-1.3
		l3.9-8.4c0.1-0.2,0.2-0.4,0.4-0.5c0.6-0.8,1.6-1.2,2.5-1.2h0.5h6.8c0.1,0,0.2,0.1,0.2,0.2v6.9V44c0,0.5,0.4,0.8,0.8,0.8H76
		L76.1,51.6L76.1,51.6z M76.1,43.2H58v-8h9.6h3.1H76L76.1,43.2L76.1,43.2z M76.1,28v5.5h-4.6v-5.2c0-1.5-1.2-2.7-2.7-2.7h-1.1
		c-0.4,0-0.7-0.3-0.7-0.7V19c0-0.1,0.1-0.2,0.1-0.4c0-0.1,0.1-0.1,0.1-0.1c0.1-0.1,0.1-0.1,0.2-0.2c0.1-0.1,0.2-0.1,0.3-0.1h1.9
		c1.7,0,3.3,0.7,4.6,1.8c1.3,1.2,1.9,2.9,1.9,4.6V28H76.1z M78.6,27.7l-0.8-0.2v-2.7c0-0.5-0.1-1-0.1-1.4c0-0.1-0.1-0.2-0.1-0.3
		c-0.1-0.5-0.2-0.9-0.4-1.3c0-0.1-0.1-0.1-0.1-0.2c-0.1-0.2-0.2-0.4-0.2-0.5l3.4,0.9L78.6,27.7z"/>
</g>
</svg>
