<?xml version="1.0" encoding="utf-8"?>
<!-- Generator: Adobe Illustrator 28.2.0, SVG Export Plug-In . SVG Version: 6.00 Build 0)  -->
<svg version="1.1" id="Layer_1" xmlns="http://www.w3.org/2000/svg" xmlns:xlink="http://www.w3.org/1999/xlink" x="0px" y="0px"
	 viewBox="0 0 93 47" style="enable-background:new 0 0 93 47;" xml:space="preserve">
<style type="text/css">
	.st0{fill:#FFFFFF;}
</style>
<g>
	<path class="st0" d="M92.1,0H31.4c-0.5,0-0.9,0.4-0.9,0.9v13.5h-1.2v-3.1C29.3,9.5,27.8,8,26,8H15.3c-3.2,0-6.1,1.6-7.8,4.2l-5.9,9
		c-1,1.6-1.6,3.4-1.6,5.3v3.9v6.5v1.4c0,1.8,1.4,3.2,3.2,3.2h5.7c0.9,0,1.7-0.4,2.3-1c1.1,3.4,4.3,5.9,8.1,5.9c4.4,0,8-3.4,8.4-7.6
		c0.3-0.1,0.6-0.4,0.8-0.7c0.7-1.7,0.9-3.5,0.5-5.3h1.4v3.3v4.5c0,0.5,0.4,0.9,0.9,0.9h27.2c1.4,3,4.4,5,7.7,5c3.3,0,6.3-2,7.7-5h13
		c0.5,0,0.9-0.4,0.9-0.9V37h4.2c0.5,0,0.9-0.4,0.9-0.9V0.9C93,0.4,92.6,0,92.1,0z M1.9,31.3h1.3c0.8,0,1.4,0.6,1.4,1.4v1.7
		c0,0.8-0.6,1.4-1.4,1.4H1.9V31.3z M19.3,44.6c-3.6,0-6.6-3-6.6-6.6c0-0.1,0-0.3,0-0.5l0.3-0.8c0.8-2.3,3-3.9,5.5-3.9h1.9
		c0.2,0,0.3,0.1,0.5,0.1c0.1,0,0.2,0,0.3,0.1c0.2,0,0.3,0.1,0.5,0.2c0.1,0,0.2,0.1,0.3,0.1c0.1,0.1,0.3,0.2,0.5,0.3
		c0.1,0,0.2,0.1,0.3,0.2c0.1,0.1,0.3,0.2,0.4,0.3c0.1,0.1,0.2,0.1,0.3,0.2c0.1,0.1,0.2,0.3,0.4,0.4c0.1,0.1,0.1,0.1,0.2,0.2
		c0.1,0.1,0.2,0.3,0.3,0.5c0,0.1,0.1,0.1,0.2,0.2c0.1,0.2,0.2,0.4,0.3,0.6c0,0.1,0.1,0.1,0.1,0.2c0.1,0.3,0.2,0.6,0.3,0.9
		c0,0.2,0.1,0.3,0.2,0.5C25.8,41.8,22.8,44.6,19.3,44.6z M27.2,36.3c0,0,0-0.1,0-0.1c0-0.1-0.1-0.3-0.2-0.4
		c-0.1-0.2-0.2-0.4-0.3-0.6c-0.1-0.1-0.1-0.3-0.2-0.4c-0.1-0.2-0.2-0.3-0.4-0.5c-0.1-0.1-0.2-0.2-0.3-0.3c-0.1-0.1-0.3-0.3-0.4-0.5
		c-0.1-0.1-0.2-0.2-0.3-0.3c0,0-0.1-0.1-0.2-0.2h1.5c0.1,0,0.2,0,0.3,0c0.2,0,0.5,0,0.7-0.1c0,0.1,0,0.2,0.1,0.4
		C27.5,34.1,27.5,35.2,27.2,36.3z M27.4,15.3v14.2c0,0.4-0.1,0.7-0.4,1c-0.2,0.2-0.4,0.3-0.8,0.3l-5.6,0h-2c-3.3,0-6.1,2-7.3,5.1
		l-1,2.7C10,39.3,9.5,39.7,9,39.7H3.2c-0.7,0-1.3-0.6-1.3-1.3v-0.5h1.3c1.8,0,3.3-1.5,3.3-3.3v-1.7c0-1.8-1.5-3.3-3.3-3.3H1.9v-2.9
		c0-1.5,0.4-3,1.2-4.2l5.9-9c1.4-2.1,3.7-3.4,6.2-3.4H26c0.7,0,1.4,0.6,1.4,1.4L27.4,15.3L27.4,15.3z M30.5,30.9H29c0,0,0-0.1,0-0.2
		c0-0.1,0.1-0.3,0.1-0.4c0-0.2,0-0.4,0-0.7V16.3h1.2L30.5,30.9L30.5,30.9z M32.4,39.7V37h25.5c0,0.3,0,0.6,0,0.9c0,0.5,0,1,0.1,1.6
		c0,0,0,0,0,0.1H32.4z M72.5,40.3c-0.9,2.6-3.4,4.3-6.2,4.3c-2.8,0-5.3-1.7-6.2-4.3c-0.3-0.7-0.4-1.5-0.4-2.3c0-0.3,0-0.6,0-0.9v0
		h13.1v0c0,0.3,0,0.6,0,0.9C72.9,38.8,72.8,39.5,72.5,40.3z M86,39.7H74.6c0,0,0,0,0-0.1c0.1-0.5,0.1-1,0.1-1.6c0-0.3,0-0.6,0-0.9
		H86V39.7z M91.2,35.1H87H73.6H59H32.4v-3.3V15.3V1.9h58.8V35.1z"/>
	<path class="st0" d="M24.4,10.6h-8.1c-1.9,0-3.7,0.9-4.9,2.5l-6.7,9.8c-0.1,0.1-0.1,0.3-0.1,0.5v1.3c0,1.5,1.2,2.8,2.8,2.8h17
		c0.5,0,0.9-0.4,0.9-0.9v-15C25.4,11.1,24.9,10.6,24.4,10.6z M23.5,25.7h-16c-0.5,0-0.9-0.4-0.9-0.9v-1l6.4-9.5
		c0.8-1.1,2.1-1.7,3.4-1.7h7.1V25.7z"/>
</g>
</svg>
