<svg width="93" height="47" viewBox="0 0 93 47" fill="none" xmlns="http://www.w3.org/2000/svg">
<path d="M92.1007 0H31.4296C30.9323 0 30.4847 0.397139 30.4847 0.943205V14.3963H29.2912V11.2688C29.2912 9.48169 27.7993 7.99242 26.009 7.99242H15.317C12.1342 7.99242 9.20012 9.58097 7.50929 12.212L1.59137 21.2469C0.547033 22.8355 0 24.6226 0 26.509V30.3811V36.8843V38.3239C0 40.111 1.44218 41.5507 3.23247 41.5507H8.90174C9.79688 41.5507 10.5926 41.1535 11.1893 40.5578C12.2834 43.9831 15.4661 46.4653 19.2457 46.4653C23.6717 46.4653 27.2522 43.0896 27.6501 38.8203C27.9982 38.6714 28.2966 38.4232 28.4458 38.0757C29.1917 36.3879 29.3906 34.6007 28.9928 32.764H30.3853V36.09V40.6075C30.3853 41.1039 30.7831 41.5507 31.3301 41.5507H58.4829C59.8754 44.5292 62.8592 46.5149 66.1911 46.5149C69.5231 46.5149 72.5069 44.5292 73.8993 41.5507H86.9287C87.426 41.5507 87.8736 41.1535 87.8736 40.6075V37.0332H92.0509C92.5482 37.0332 92.9958 36.6361 92.9958 36.09V0.943205C93.0455 0.397139 92.6477 0 92.1007 0ZM1.93948 31.3243H3.23247C4.02816 31.3243 4.67466 31.9697 4.67466 32.764V34.5014C4.67466 35.2957 4.02816 35.9411 3.23247 35.9411H1.93948V31.3243ZM19.2954 44.5788C15.6651 44.5788 12.6812 41.6003 12.6812 37.9764C12.6812 37.8275 12.6812 37.6289 12.6812 37.48L12.9796 36.6857C13.825 34.3525 16.0132 32.8136 18.4997 32.8136H20.3895C20.5884 32.8632 20.7376 32.9129 20.9365 32.9625C21.0359 33.0122 21.1851 33.0122 21.2846 33.0618C21.4835 33.1115 21.6327 33.2107 21.8316 33.31C21.9311 33.3597 22.0803 33.4093 22.1797 33.459C22.3289 33.5582 22.5279 33.6575 22.677 33.7568C22.7765 33.8064 22.876 33.8561 22.9754 33.9554C23.1246 34.0547 23.2738 34.2036 23.423 34.3029C23.5225 34.4022 23.6219 34.4518 23.7214 34.5511C23.8706 34.7 23.97 34.8489 24.1192 34.9979C24.2187 35.0971 24.2684 35.1468 24.3679 35.2461C24.5171 35.395 24.6165 35.5936 24.716 35.7921C24.7657 35.8914 24.8155 35.9411 24.9149 36.0404C25.0144 36.2389 25.1138 36.4375 25.263 36.6857C25.3128 36.785 25.3625 36.8346 25.3625 36.9339C25.5117 37.2318 25.6111 37.5296 25.6609 37.8771C25.7106 38.0757 25.7603 38.2246 25.9095 38.3735C25.7603 41.7989 22.8262 44.5788 19.2954 44.5788ZM27.1528 36.2886C27.1528 36.2389 27.1031 36.1893 27.1031 36.1396C27.0533 35.9907 26.9539 35.8418 26.9041 35.6929C26.8047 35.4943 26.7052 35.2957 26.6058 35.0972C26.5063 34.9482 26.4566 34.7993 26.3571 34.7C26.2079 34.5014 26.1084 34.3525 25.9593 34.1539C25.8598 34.005 25.7603 33.9057 25.6609 33.8064C25.5117 33.6575 25.3625 33.459 25.2133 33.31C25.1138 33.2107 24.9646 33.0618 24.8652 32.9625C24.8155 32.9129 24.716 32.8136 24.6663 32.764H26.1582C26.2576 32.764 26.4068 32.764 26.4566 32.764C26.7052 32.764 26.9539 32.7143 27.2025 32.615C27.2522 32.7143 27.2522 32.8632 27.302 33.0122C27.4512 34.1043 27.4512 35.2461 27.1528 36.2886ZM27.4014 15.3395V29.5372C27.4014 29.9343 27.2522 30.2818 26.9539 30.5301C26.7549 30.7286 26.5063 30.8279 26.1084 30.8775L20.4889 30.9272H18.4997C15.2175 30.9768 12.3829 32.9625 11.2391 36.0404L10.2445 38.7707C10.0455 39.3168 9.54823 39.6642 9.0012 39.6642H3.23247C2.48652 39.6642 1.88975 39.0685 1.88975 38.3239V37.8275H3.18274C5.02277 37.8275 6.51468 36.3382 6.51468 34.5014V32.764C6.51468 30.9272 5.02277 29.4379 3.18274 29.4379H1.88975V26.509C1.88975 25.0197 2.33733 23.5305 3.13301 22.2894L9.05093 13.2545C10.4434 11.1199 12.7807 9.87883 15.2672 9.87883H25.9593C26.7052 9.87883 27.3517 10.5242 27.3517 11.2688V15.3395H27.4014ZM30.4847 30.8775H28.9928C29.0425 30.8279 29.0425 30.7286 29.0425 30.679C29.0923 30.5301 29.142 30.3811 29.1917 30.2322C29.2415 30.0336 29.2415 29.7854 29.2415 29.5372V16.2827H30.435V30.8775H30.4847ZM32.3745 39.6642V37.0332H57.8364C57.7867 37.3807 57.7867 37.6786 57.7867 37.9764C57.7867 38.5225 57.8364 39.0189 57.9359 39.565C57.9359 39.6146 57.9359 39.6146 57.9359 39.6642H32.3745ZM72.4572 40.26C71.5123 42.8414 69.0258 44.5788 66.2409 44.5788C63.456 44.5788 60.9694 42.8414 60.0246 40.26C59.7262 39.5153 59.6267 38.7707 59.6267 37.9764C59.6267 37.6786 59.6764 37.3807 59.6764 37.0828V37.0332H72.7555V37.0828C72.8053 37.3807 72.8053 37.6786 72.8053 37.9764C72.9047 38.7707 72.7555 39.5153 72.4572 40.26ZM86.0335 39.6642H74.5956C74.5956 39.6146 74.5956 39.6146 74.5956 39.565C74.695 39.0685 74.7448 38.5225 74.7448 37.9764C74.7448 37.6786 74.7448 37.3311 74.695 37.0332H86.0335V39.6642ZM91.1558 35.1468H86.9784H73.601H58.9802H32.3745V31.8208V15.3395V1.88641H91.1558V35.1468Z" fill="#0099FF"/>
<path d="M24.4176 10.6235H16.3612C14.4218 10.6235 12.6315 11.5171 11.4379 13.1057L4.77407 22.8852C4.67461 23.0341 4.62488 23.2327 4.62488 23.4313V24.7716C4.62488 26.3105 5.86814 27.5516 7.40978 27.5516H24.3678C24.8651 27.5516 25.3127 27.1544 25.3127 26.6084V11.5667C25.3624 11.0703 24.9149 10.6235 24.4176 10.6235ZM23.4727 25.6652H7.45951C6.96221 25.6652 6.51463 25.268 6.51463 24.7716V23.7291L12.9299 14.2474C13.7753 13.1553 15.0185 12.5596 16.3612 12.5596H23.4727V25.6652Z" fill="#0099FF"/>
</svg>
