<svg width="102" height="35" viewBox="0 0 102 35" fill="none" xmlns="http://www.w3.org/2000/svg">
<path d="M101.156 21.2372L99.142 13.17C98.344 9.89742 95.418 7.69034 91.998 7.91865L89.794 8.03281C84.132 6.05405 75.05 3.69476 66.5 2.05848C61.37 1.0691 54.226 -0.0724958 49.514 0.00361043C45.068 0.0416635 38.684 2.05848 30.514 6.05405C25.27 8.60361 20.938 11.1532 19.114 12.2567L14.098 12.5611C10.298 12.7894 6.726 14.4638 4.066 17.2417C1.444 20.0195 0 23.6726 0 27.516C0 28.0868 0.456 28.5434 1.026 28.5434H7.334H11.856C12.616 32.1585 15.808 34.8983 19.608 34.8983C23.408 34.8983 26.676 32.1204 27.36 28.5434H31.008H70.452H74.1C74.86 32.1585 78.052 34.8983 81.852 34.8983C85.652 34.8983 88.92 32.1204 89.604 28.5434H94.126H95.494C97.318 28.5434 99.028 27.7063 100.13 26.2602C101.232 24.8142 101.612 22.9877 101.156 21.2372ZM66.728 6.54874L67.146 4.26556C73.074 5.4452 79.192 6.92927 84.132 8.37529L80.37 8.60361L66.196 9.44078L66.728 6.54874ZM31.882 8.18503L31.958 7.65228C39.482 3.99918 45.562 2.09653 49.552 2.05848C53.01 1.98237 58.368 2.66733 65.132 3.92308L64.22 8.83193L64.068 9.59299L40.318 11.001C40.318 10.9248 40.28 10.8868 40.28 10.8107C40.28 10.7346 40.242 10.6204 40.242 10.5443C40.204 10.4302 40.166 10.3541 40.166 10.2399C40.128 10.1638 40.128 10.0877 40.09 9.97352C40.052 9.85936 39.976 9.78326 39.938 9.70715C39.9 9.63104 39.862 9.55494 39.824 9.47883C39.748 9.40273 39.672 9.28857 39.596 9.21246C39.558 9.13635 39.482 9.0983 39.444 9.02219C39.368 8.94609 39.292 8.86998 39.178 8.79388C39.102 8.75582 39.064 8.67972 38.988 8.64166C38.874 8.56556 38.798 8.5275 38.684 8.48945C38.608 8.4514 38.57 8.41334 38.494 8.37529C38.38 8.33724 38.228 8.29919 38.114 8.26113C38.038 8.26113 38 8.22308 37.924 8.22308C37.734 8.18503 37.544 8.14697 37.316 8.14697H32.452C32.224 8.14697 32.072 8.14697 31.882 8.18503ZM31.578 10.6965C31.616 10.5824 31.73 10.5063 31.806 10.4302C31.844 10.3921 31.882 10.3541 31.92 10.316C32.072 10.2399 32.224 10.1638 32.414 10.1638H37.278C37.43 10.1638 37.544 10.2018 37.658 10.2399C37.696 10.2399 37.734 10.2779 37.772 10.316C37.848 10.3541 37.924 10.3921 38 10.4682C38.038 10.5063 38.038 10.5443 38.076 10.5824C38.114 10.6585 38.19 10.6965 38.19 10.7726C38.228 10.8107 38.228 10.8868 38.228 10.9248C38.228 10.9629 38.266 11.039 38.266 11.0771L31.502 11.4956L31.578 10.6965ZM29.754 8.71777L29.602 10.0496C29.602 10.1257 29.564 10.1638 29.564 10.2399L29.412 11.6098L24.89 11.8762L23.712 11.9523C25.384 11.001 27.474 9.85936 29.754 8.71777ZM25.536 27.2116C25.536 27.2877 25.536 27.3257 25.498 27.4018C25.27 30.4461 22.686 32.8054 19.646 32.8054C16.606 32.8054 14.022 30.408 13.756 27.2496C13.756 27.1735 13.756 27.0594 13.756 26.9071C13.756 23.6726 16.378 21.0089 19.646 21.0089C22.914 21.0089 25.536 23.6726 25.536 26.9071C25.536 27.0594 25.536 27.1355 25.536 27.2116ZM27.588 26.4886C27.588 26.2602 27.512 26.07 27.474 25.8417C27.436 25.6133 27.436 25.385 27.36 25.1567C27.284 24.8903 27.208 24.624 27.094 24.3576C27.018 24.1293 26.942 23.901 26.866 23.7107C26.752 23.4443 26.6 23.216 26.486 22.9877C26.372 22.7974 26.258 22.5691 26.144 22.4169C25.992 22.1886 25.802 21.9983 25.612 21.77C25.46 21.6178 25.346 21.4275 25.156 21.2753C24.966 21.085 24.738 20.8948 24.51 20.7425C24.32 20.5903 24.168 20.4762 23.978 20.324C23.712 20.1717 23.446 20.0195 23.18 19.9054C22.99 19.8293 22.838 19.7151 22.648 19.601C22.344 19.4868 22.002 19.3726 21.66 19.2965C21.508 19.2585 21.318 19.1824 21.166 19.1443C20.672 19.0302 20.14 18.9921 19.608 18.9921C19.076 18.9921 18.544 19.0302 18.05 19.1443C17.86 19.1824 17.708 19.2585 17.556 19.2965C17.214 19.3726 16.91 19.4868 16.568 19.601C16.378 19.6771 16.188 19.7912 16.036 19.9054C15.77 20.0576 15.504 20.1717 15.238 20.324C15.048 20.4381 14.896 20.5903 14.706 20.7425C14.478 20.9328 14.25 21.085 14.06 21.2753C13.908 21.4275 13.756 21.6178 13.604 21.77C13.414 21.9602 13.224 22.1886 13.072 22.4169C12.958 22.6071 12.844 22.7974 12.73 22.9877C12.578 23.216 12.464 23.4443 12.35 23.7107C12.274 23.901 12.198 24.1293 12.122 24.3576C12.046 24.624 11.932 24.8903 11.856 25.1567C11.818 25.385 11.78 25.6133 11.742 25.8417C11.704 26.07 11.666 26.2602 11.628 26.4886H8.436C8.474 26.2983 8.474 26.07 8.512 25.8797C8.55 25.5753 8.626 25.2709 8.702 24.9664C8.778 24.5859 8.892 24.2434 9.044 23.901C9.158 23.5965 9.272 23.3302 9.386 23.0257C9.538 22.6833 9.728 22.3788 9.918 22.0364C10.07 21.77 10.222 21.5036 10.412 21.2753C10.64 20.9709 10.868 20.7045 11.134 20.4001C11.324 20.1718 11.514 19.9434 11.742 19.7532C12.008 19.4868 12.312 19.2585 12.616 19.0302C12.844 18.8399 13.072 18.6496 13.3 18.4974C13.642 18.2691 13.984 18.1169 14.364 17.9266C14.592 17.8125 14.858 17.6602 15.086 17.5461C15.504 17.3939 15.96 17.2797 16.378 17.1275C16.606 17.0514 16.834 16.9753 17.062 16.9372C17.746 16.785 18.43 16.7089 19.152 16.7089C19.874 16.7089 20.558 16.785 21.242 16.9372C21.47 16.9753 21.698 17.0894 21.926 17.1275C22.382 17.2417 22.8 17.3558 23.218 17.5461C23.484 17.6602 23.712 17.8125 23.94 17.9266C24.282 18.1169 24.662 18.2691 25.004 18.4974C25.232 18.6496 25.46 18.8399 25.688 19.0302C25.992 19.2585 26.296 19.4868 26.562 19.7532C26.79 19.9434 26.98 20.1718 27.17 20.4001C27.436 20.6664 27.664 20.9709 27.892 21.2753C28.082 21.5036 28.234 21.77 28.386 22.0364C28.576 22.3408 28.766 22.6833 28.918 23.0257C29.032 23.2921 29.146 23.5965 29.26 23.901C29.374 24.2434 29.488 24.624 29.602 24.9664C29.678 25.2709 29.716 25.5753 29.792 25.9178C29.83 26.108 29.83 26.3364 29.868 26.5266H27.588V26.4886ZM87.742 27.2116C87.742 27.2877 87.742 27.3257 87.704 27.4018C87.476 30.4461 84.892 32.8054 81.852 32.8054C78.812 32.8054 76.228 30.408 75.962 27.2496C75.962 27.1735 75.962 27.0594 75.962 26.9071C75.962 23.6346 78.622 21.0089 81.852 21.0089C85.082 21.0089 87.742 23.6726 87.742 26.9071C87.742 27.0594 87.742 27.1355 87.742 27.2116ZM89.794 26.4886C89.794 26.2602 89.718 26.07 89.68 25.8417C89.642 25.6133 89.642 25.385 89.566 25.1567C89.49 24.8903 89.414 24.624 89.3 24.3576C89.224 24.1293 89.148 23.901 89.072 23.7107C88.958 23.4443 88.806 23.216 88.692 22.9877C88.578 22.7974 88.464 22.5691 88.35 22.4169C88.198 22.1886 88.008 21.9983 87.818 21.77C87.666 21.6178 87.552 21.4275 87.362 21.2753C87.172 21.085 86.944 20.8948 86.716 20.7425C86.526 20.5903 86.374 20.4762 86.184 20.324C85.918 20.1717 85.652 20.0195 85.386 19.9054C85.196 19.8293 85.044 19.7151 84.854 19.601C84.55 19.4868 84.208 19.3726 83.866 19.2965C83.714 19.2585 83.524 19.1824 83.372 19.1443C82.878 19.0302 82.346 18.9921 81.814 18.9921C81.282 18.9921 80.75 19.0302 80.256 19.1443C80.066 19.1824 79.914 19.2585 79.762 19.2965C79.42 19.3726 79.116 19.4868 78.774 19.601C78.584 19.6771 78.394 19.7912 78.242 19.9054C77.976 20.0576 77.71 20.1717 77.444 20.324C77.254 20.4381 77.102 20.5903 76.912 20.7425C76.684 20.9328 76.456 21.085 76.266 21.2753C76.114 21.4275 75.962 21.6178 75.81 21.77C75.62 21.9602 75.43 22.1886 75.278 22.4169C75.164 22.6071 75.05 22.7974 74.936 22.9877C74.784 23.216 74.67 23.4443 74.556 23.7107C74.48 23.901 74.404 24.1293 74.328 24.3576C74.252 24.624 74.138 24.8903 74.062 25.1567C74.024 25.385 73.986 25.6133 73.948 25.8417C73.91 26.07 73.872 26.2602 73.834 26.4886H71.516C71.554 26.2983 71.554 26.07 71.592 25.8797C71.63 25.5753 71.706 25.2709 71.782 24.9664C71.858 24.5859 72.01 24.2434 72.124 23.901C72.238 23.5965 72.352 23.3302 72.466 23.0638C72.618 22.7213 72.808 22.4169 72.998 22.0744C73.15 21.808 73.302 21.5417 73.492 21.3133C73.72 21.0089 73.948 20.7425 74.214 20.4381C74.404 20.2098 74.594 19.9815 74.822 19.7912C75.088 19.5248 75.392 19.2965 75.696 19.0682C75.924 18.8779 76.152 18.6877 76.38 18.5355C76.722 18.3071 77.064 18.1549 77.444 17.9647C77.672 17.8505 77.938 17.6983 78.166 17.5841C78.584 17.4319 79.04 17.3178 79.458 17.1656C79.686 17.0895 79.914 17.0133 80.142 16.9753C80.826 16.8231 81.51 16.747 82.232 16.747C82.954 16.747 83.638 16.8231 84.322 16.9753C84.55 17.0133 84.778 17.1275 85.006 17.1656C85.462 17.2797 85.88 17.3939 86.298 17.5841C86.564 17.6983 86.792 17.8125 87.02 17.9647C87.362 18.1549 87.742 18.3071 88.084 18.5355C88.312 18.6877 88.54 18.8779 88.768 19.0682C89.072 19.2965 89.376 19.5248 89.642 19.7912C89.87 19.9815 90.06 20.2098 90.25 20.4381C90.516 20.7045 90.744 21.0089 90.972 21.3133C91.162 21.5417 91.314 21.808 91.466 22.0744C91.656 22.3788 91.846 22.7213 91.998 23.0638C92.112 23.3302 92.226 23.6346 92.34 23.939C92.454 24.2815 92.568 24.662 92.682 25.0045C92.758 25.3089 92.796 25.6133 92.872 25.9178C92.91 26.108 92.91 26.3364 92.948 26.5266H89.794V26.4886ZM98.496 25.0045C97.774 25.9558 96.672 26.4886 95.456 26.4886H95.076C95.076 26.4505 95.076 26.4125 95.076 26.3364C95.076 26.1461 95.038 25.9558 95 25.7275C94.962 25.4992 94.924 25.2709 94.886 25.0806C94.848 24.8903 94.81 24.7001 94.772 24.5098C94.734 24.2815 94.658 24.0912 94.62 23.901C94.582 23.7107 94.506 23.5204 94.43 23.3302C94.354 23.1399 94.278 22.9116 94.202 22.7213C94.126 22.531 94.05 22.3788 93.974 22.1886C93.898 21.9983 93.784 21.808 93.708 21.6178C93.632 21.4275 93.518 21.2753 93.442 21.085C93.328 20.8948 93.214 20.7425 93.1 20.5523C92.986 20.4001 92.872 20.2098 92.758 20.0576C92.644 19.9054 92.53 19.7151 92.378 19.5629C92.264 19.4107 92.15 19.2585 91.998 19.1063C91.846 18.9541 91.732 18.8018 91.58 18.6496C91.428 18.4974 91.314 18.3833 91.162 18.231C91.01 18.0788 90.858 17.9647 90.706 17.8125C90.554 17.6983 90.402 17.5461 90.25 17.4319C90.098 17.3178 89.908 17.1656 89.756 17.0514C89.604 16.9372 89.452 16.8231 89.3 16.7089C89.11 16.5948 88.92 16.4806 88.768 16.3664C88.616 16.2903 88.464 16.1762 88.274 16.1001C88.084 15.9859 87.894 15.9098 87.666 15.7956C87.514 15.7195 87.324 15.6434 87.172 15.5673C86.944 15.4912 86.754 15.4151 86.526 15.339C86.374 15.2629 86.184 15.2248 86.032 15.1487C85.804 15.0726 85.576 15.0346 85.31 14.9585C85.158 14.9204 84.968 14.8824 84.816 14.8443C84.55 14.8063 84.284 14.7682 84.018 14.7302C83.866 14.6921 83.714 14.6921 83.6 14.6541C83.182 14.616 82.764 14.5779 82.308 14.5779C81.852 14.5779 81.434 14.616 81.016 14.6541C80.864 14.6541 80.712 14.6921 80.598 14.7302C80.332 14.7682 80.066 14.8063 79.8 14.8443C79.648 14.8824 79.458 14.9204 79.306 14.9585C79.078 15.0346 78.85 15.0726 78.584 15.1487C78.394 15.1868 78.242 15.2629 78.09 15.339C77.862 15.4151 77.672 15.4912 77.444 15.5673C77.292 15.6434 77.102 15.7195 76.95 15.7956C76.76 15.8718 76.532 15.9859 76.342 16.1001C76.19 16.1762 76 16.2903 75.848 16.3664C75.658 16.4806 75.468 16.5948 75.316 16.7089C75.164 16.8231 75.012 16.9372 74.86 17.0514C74.708 17.1656 74.518 17.2797 74.366 17.4319C74.214 17.5461 74.062 17.6602 73.91 17.8125C73.758 17.9647 73.606 18.0788 73.454 18.231C73.302 18.3833 73.188 18.4974 73.036 18.6496C72.884 18.8018 72.77 18.9541 72.618 19.1063C72.504 19.2585 72.352 19.4107 72.238 19.5629C72.124 19.7151 71.972 19.9054 71.858 20.0576C71.744 20.2098 71.63 20.362 71.516 20.5523C71.402 20.7425 71.288 20.8948 71.174 21.085C71.06 21.2372 70.984 21.4275 70.908 21.5797C70.794 21.77 70.718 21.9602 70.642 22.1505C70.566 22.3408 70.49 22.493 70.414 22.6833C70.338 22.8735 70.262 23.0638 70.186 23.2921C70.11 23.4824 70.072 23.6726 69.996 23.8629C69.92 24.0912 69.882 24.2815 69.844 24.5098C69.806 24.7001 69.768 24.8903 69.73 25.0806C69.692 25.3089 69.654 25.5372 69.616 25.7656C69.578 25.9558 69.54 26.1461 69.54 26.3364C69.54 26.3744 69.54 26.4505 69.502 26.4886H32.034C32.034 26.4505 32.034 26.4125 32.034 26.3364C32.034 26.1461 31.996 25.9558 31.958 25.7275C31.92 25.4992 31.882 25.2709 31.844 25.0806C31.806 24.8903 31.768 24.7001 31.73 24.5098C31.692 24.2815 31.616 24.0912 31.578 23.8629C31.54 23.6726 31.464 23.4824 31.388 23.2921C31.312 23.1018 31.236 22.8735 31.16 22.6833C31.084 22.493 31.008 22.3408 30.932 22.1505C30.856 21.9602 30.742 21.77 30.666 21.5797C30.59 21.4275 30.476 21.2372 30.4 21.085C30.286 20.8948 30.172 20.7045 30.058 20.5523C29.944 20.4001 29.83 20.2479 29.754 20.0956C29.64 19.9054 29.488 19.7532 29.374 19.601C29.26 19.4487 29.146 19.2965 28.994 19.1443C28.842 18.9921 28.728 18.8399 28.576 18.6877C28.462 18.5355 28.31 18.4213 28.158 18.2691C28.006 18.1169 27.854 18.0027 27.702 17.8505C27.55 17.7364 27.398 17.5841 27.246 17.47C27.094 17.3558 26.904 17.2036 26.752 17.0895C26.6 16.9753 26.448 16.8611 26.296 16.747C26.106 16.6328 25.916 16.5187 25.726 16.4045C25.574 16.3284 25.422 16.2142 25.232 16.1381C25.042 16.024 24.852 15.9479 24.624 15.8337C24.472 15.7576 24.282 15.6815 24.13 15.6054C23.902 15.5293 23.712 15.4532 23.484 15.3771C23.332 15.301 23.142 15.2629 22.99 15.1868C22.762 15.1107 22.534 15.0726 22.268 14.9965C22.116 14.9585 21.926 14.9204 21.774 14.8824C21.508 14.8443 21.242 14.8063 20.976 14.7682C20.824 14.7302 20.672 14.7302 20.558 14.6921C20.14 14.6541 19.722 14.616 19.266 14.616C18.848 14.616 18.392 14.6541 17.974 14.6921C17.822 14.6921 17.67 14.7302 17.556 14.7682C17.29 14.8063 17.024 14.8443 16.758 14.8824C16.606 14.9204 16.416 14.9585 16.264 14.9965C16.036 15.0726 15.808 15.1107 15.542 15.1868C15.352 15.2248 15.2 15.301 15.048 15.3771C14.82 15.4532 14.63 15.5293 14.402 15.6054C14.25 15.6815 14.06 15.7576 13.908 15.8337C13.718 15.9098 13.49 16.024 13.3 16.1381C13.148 16.2142 12.958 16.3284 12.806 16.4045C12.616 16.5187 12.426 16.6328 12.274 16.747C12.122 16.8611 11.97 16.9753 11.818 17.0895C11.666 17.2036 11.476 17.3178 11.324 17.47C11.172 17.5841 11.02 17.6983 10.868 17.8505C10.716 18.0027 10.564 18.1169 10.412 18.2691C10.26 18.4213 10.146 18.5355 9.994 18.6877C9.842 18.8399 9.728 18.9921 9.576 19.1443C9.462 19.2965 9.31 19.4487 9.196 19.601C9.082 19.7532 8.93 19.9434 8.816 20.0956C8.702 20.2479 8.588 20.4001 8.474 20.5903C8.36 20.7806 8.246 20.9328 8.132 21.1231C8.018 21.2753 7.942 21.4656 7.866 21.6558C7.752 21.8461 7.676 22.0364 7.6 22.2266C7.524 22.4169 7.448 22.5691 7.372 22.7594C7.296 22.9496 7.22 23.1399 7.144 23.3682C7.068 23.5585 7.03 23.7487 6.954 23.939C6.878 24.1293 6.84 24.3576 6.802 24.5479C6.764 24.7381 6.688 24.9284 6.65 25.1187C6.612 25.347 6.574 25.5372 6.536 25.7656C6.498 25.9558 6.46 26.1461 6.46 26.3744C6.46 26.4125 6.46 26.4505 6.46 26.5266H2.166C2.394 23.5965 3.61 20.8187 5.624 18.6877C7.904 16.2903 10.982 14.8443 14.288 14.616L19.494 14.3116C19.532 14.3116 19.532 14.3116 19.57 14.3116L25.878 13.931L30.476 13.6647H30.666C30.704 13.6647 30.704 13.6647 30.742 13.6647L39.368 13.17L65.056 11.6479H65.094L89.832 10.1638L92.226 10.0116C94.544 9.85936 96.672 11.4195 97.242 13.7027L99.256 21.77C99.484 22.8735 99.218 24.0532 98.496 25.0045Z" fill="#0099FF"/>
</svg>
