<?xml version="1.0" encoding="utf-8"?>
<!-- Generator: Adobe Illustrator 28.2.0, SVG Export Plug-In . SVG Version: 6.00 Build 0)  -->
<svg version="1.1" id="Layer_1" xmlns="http://www.w3.org/2000/svg" xmlns:xlink="http://www.w3.org/1999/xlink" x="0px" y="0px"
	 viewBox="0 0 102 35" style="enable-background:new 0 0 102 35;" xml:space="preserve">
<style type="text/css">
	.st0{fill:#FFFFFF;}
</style>
<path class="st0" d="M101.2,21.2l-2-8.1c-0.8-3.3-3.7-5.5-7.1-5.3L89.8,8c-5.7-2-14.7-4.3-23.3-6c-5.1-1-12.3-2.1-17-2.1
	c-4.4,0-10.8,2.1-19,6.1c-5.2,2.5-9.6,5.1-11.4,6.2l-5,0.3c-3.8,0.2-7.4,1.9-10,4.7C1.4,20,0,23.7,0,27.5c0,0.6,0.5,1,1,1h6.3h4.5
	c0.8,3.6,4,6.4,7.8,6.4s7.1-2.8,7.8-6.4H31h39.4h3.6c0.8,3.6,4,6.4,7.8,6.4c3.8,0,7.1-2.8,7.8-6.4h4.5h1.4c1.8,0,3.5-0.8,4.6-2.3
	C101.2,24.8,101.6,23,101.2,21.2z M66.7,6.5l0.4-2.3c5.9,1.2,12,2.7,17,4.1l-3.8,0.2L66.2,9.4L66.7,6.5z M31.9,8.2L32,7.7
	C39.5,4,45.6,2.1,49.6,2.1C53,2,58.4,2.7,65.1,3.9l-0.9,4.9l-0.2,0.8L40.3,11c0-0.1,0-0.1,0-0.2c0-0.1,0-0.2,0-0.3
	c0-0.1-0.1-0.2-0.1-0.3c0-0.1,0-0.2-0.1-0.3c0-0.1-0.1-0.2-0.2-0.3c0-0.1-0.1-0.2-0.1-0.2c-0.1-0.1-0.2-0.2-0.2-0.3
	c0-0.1-0.1-0.1-0.2-0.2c-0.1-0.1-0.2-0.2-0.3-0.2c-0.1,0-0.1-0.1-0.2-0.2c-0.1-0.1-0.2-0.1-0.3-0.2c-0.1,0-0.1-0.1-0.2-0.1
	c-0.1,0-0.3-0.1-0.4-0.1c-0.1,0-0.1,0-0.2,0c-0.2,0-0.4-0.1-0.6-0.1h-4.9C32.2,8.1,32.1,8.1,31.9,8.2z M31.6,10.7
	c0-0.1,0.2-0.2,0.2-0.3c0,0,0.1-0.1,0.1-0.1c0.2-0.1,0.3-0.2,0.5-0.2h4.9c0.2,0,0.3,0,0.4,0.1c0,0,0.1,0,0.1,0.1
	c0.1,0,0.2,0.1,0.2,0.2c0,0,0,0.1,0.1,0.1c0,0.1,0.1,0.1,0.1,0.2c0,0,0,0.1,0,0.2c0,0,0,0.1,0,0.2l-6.8,0.4L31.6,10.7z M29.8,8.7
	L29.6,10c0,0.1,0,0.1,0,0.2l-0.2,1.4l-4.5,0.3L23.7,12C25.4,11,27.5,9.9,29.8,8.7z M25.5,27.2c0,0.1,0,0.1,0,0.2
	c-0.2,3-2.8,5.4-5.9,5.4s-5.6-2.4-5.9-5.6c0-0.1,0-0.2,0-0.3c0-3.2,2.6-5.9,5.9-5.9s5.9,2.7,5.9,5.9C25.5,27.1,25.5,27.1,25.5,27.2z
	 M27.6,26.5c0-0.2-0.1-0.4-0.1-0.6c0-0.2,0-0.5-0.1-0.7c-0.1-0.3-0.2-0.5-0.3-0.8c-0.1-0.2-0.2-0.5-0.2-0.6
	c-0.1-0.3-0.3-0.5-0.4-0.7c-0.1-0.2-0.2-0.4-0.3-0.6c-0.2-0.2-0.3-0.4-0.5-0.6c-0.2-0.2-0.3-0.3-0.5-0.5c-0.2-0.2-0.4-0.4-0.6-0.5
	c-0.2-0.2-0.3-0.3-0.5-0.4c-0.3-0.2-0.5-0.3-0.8-0.4c-0.2-0.1-0.3-0.2-0.5-0.3c-0.3-0.1-0.6-0.2-1-0.3c-0.2,0-0.3-0.1-0.5-0.2
	c-0.5-0.1-1-0.2-1.6-0.2s-1.1,0-1.6,0.2c-0.2,0-0.3,0.1-0.5,0.2c-0.3,0.1-0.6,0.2-1,0.3c-0.2,0.1-0.4,0.2-0.5,0.3
	c-0.3,0.2-0.5,0.3-0.8,0.4c-0.2,0.1-0.3,0.3-0.5,0.4c-0.2,0.2-0.5,0.3-0.6,0.5c-0.2,0.2-0.3,0.3-0.5,0.5c-0.2,0.2-0.4,0.4-0.5,0.6
	c-0.1,0.2-0.2,0.4-0.3,0.6c-0.2,0.2-0.3,0.5-0.4,0.7c-0.1,0.2-0.2,0.4-0.2,0.6c-0.1,0.3-0.2,0.5-0.3,0.8c0,0.2-0.1,0.5-0.1,0.7
	c0,0.2-0.1,0.4-0.1,0.6H8.4c0-0.2,0-0.4,0.1-0.6c0-0.3,0.1-0.6,0.2-0.9c0.1-0.4,0.2-0.7,0.3-1.1c0.1-0.3,0.2-0.6,0.3-0.9
	c0.2-0.3,0.3-0.6,0.5-1c0.2-0.3,0.3-0.5,0.5-0.8c0.2-0.3,0.5-0.6,0.7-0.9c0.2-0.2,0.4-0.5,0.6-0.6c0.3-0.3,0.6-0.5,0.9-0.7
	c0.2-0.2,0.5-0.4,0.7-0.5c0.3-0.2,0.7-0.4,1.1-0.6c0.2-0.1,0.5-0.3,0.7-0.4c0.4-0.2,0.9-0.3,1.3-0.4c0.2-0.1,0.5-0.2,0.7-0.2
	c0.7-0.2,1.4-0.2,2.1-0.2s1.4,0.1,2.1,0.2c0.2,0,0.5,0.2,0.7,0.2c0.5,0.1,0.9,0.2,1.3,0.4c0.3,0.1,0.5,0.3,0.7,0.4
	c0.3,0.2,0.7,0.3,1.1,0.6c0.2,0.2,0.5,0.3,0.7,0.5c0.3,0.2,0.6,0.5,0.9,0.7c0.2,0.2,0.4,0.4,0.6,0.6c0.3,0.3,0.5,0.6,0.7,0.9
	c0.2,0.2,0.3,0.5,0.5,0.8c0.2,0.3,0.4,0.6,0.5,1c0.1,0.3,0.2,0.6,0.3,0.9c0.1,0.3,0.2,0.7,0.3,1.1c0.1,0.3,0.1,0.6,0.2,1
	c0,0.2,0,0.4,0.1,0.6L27.6,26.5L27.6,26.5z M87.7,27.2c0,0.1,0,0.1,0,0.2c-0.2,3-2.8,5.4-5.9,5.4s-5.6-2.4-5.9-5.6
	c0-0.1,0-0.2,0-0.3c0-3.3,2.7-5.9,5.9-5.9c3.2,0,5.9,2.7,5.9,5.9C87.7,27.1,87.7,27.1,87.7,27.2z M89.8,26.5c0-0.2-0.1-0.4-0.1-0.6
	c0-0.2,0-0.5-0.1-0.7c-0.1-0.3-0.2-0.5-0.3-0.8c-0.1-0.2-0.2-0.5-0.2-0.6c-0.1-0.3-0.3-0.5-0.4-0.7c-0.1-0.2-0.2-0.4-0.3-0.6
	c-0.2-0.2-0.3-0.4-0.5-0.6c-0.2-0.2-0.3-0.3-0.5-0.5c-0.2-0.2-0.4-0.4-0.6-0.5c-0.2-0.2-0.3-0.3-0.5-0.4c-0.3-0.2-0.5-0.3-0.8-0.4
	c-0.2-0.1-0.3-0.2-0.5-0.3c-0.3-0.1-0.6-0.2-1-0.3c-0.2,0-0.3-0.1-0.5-0.2c-0.5-0.1-1-0.2-1.6-0.2c-0.5,0-1.1,0-1.6,0.2
	c-0.2,0-0.3,0.1-0.5,0.2c-0.3,0.1-0.6,0.2-1,0.3c-0.2,0.1-0.4,0.2-0.5,0.3c-0.3,0.2-0.5,0.3-0.8,0.4c-0.2,0.1-0.3,0.3-0.5,0.4
	c-0.2,0.2-0.5,0.3-0.6,0.5c-0.2,0.2-0.3,0.3-0.5,0.5c-0.2,0.2-0.4,0.4-0.5,0.6c-0.1,0.2-0.2,0.4-0.3,0.6c-0.2,0.2-0.3,0.5-0.4,0.7
	c-0.1,0.2-0.2,0.4-0.2,0.6c-0.1,0.3-0.2,0.5-0.3,0.8c0,0.2-0.1,0.5-0.1,0.7c0,0.2-0.1,0.4-0.1,0.6h-2.3c0-0.2,0-0.4,0.1-0.6
	c0-0.3,0.1-0.6,0.2-0.9c0.1-0.4,0.2-0.7,0.3-1.1c0.1-0.3,0.2-0.6,0.3-0.8c0.2-0.3,0.3-0.6,0.5-1c0.2-0.3,0.3-0.5,0.5-0.8
	c0.2-0.3,0.5-0.6,0.7-0.9c0.2-0.2,0.4-0.5,0.6-0.6c0.3-0.3,0.6-0.5,0.9-0.7c0.2-0.2,0.5-0.4,0.7-0.5c0.3-0.2,0.7-0.4,1.1-0.6
	c0.2-0.1,0.5-0.3,0.7-0.4c0.4-0.2,0.9-0.3,1.3-0.4c0.2-0.1,0.5-0.2,0.7-0.2c0.7-0.2,1.4-0.2,2.1-0.2s1.4,0.1,2.1,0.2
	c0.2,0,0.5,0.2,0.7,0.2c0.5,0.1,0.9,0.2,1.3,0.4c0.3,0.1,0.5,0.2,0.7,0.4c0.3,0.2,0.7,0.3,1.1,0.6c0.2,0.2,0.5,0.3,0.7,0.5
	c0.3,0.2,0.6,0.5,0.9,0.7c0.2,0.2,0.4,0.4,0.6,0.6c0.3,0.3,0.5,0.6,0.7,0.9c0.2,0.2,0.3,0.5,0.5,0.8c0.2,0.3,0.4,0.6,0.5,1
	c0.1,0.3,0.2,0.6,0.3,0.9c0.1,0.3,0.2,0.7,0.3,1.1c0.1,0.3,0.1,0.6,0.2,0.9c0,0.2,0,0.4,0.1,0.6L89.8,26.5L89.8,26.5z M98.5,25
	c-0.7,1-1.8,1.5-3,1.5h-0.4c0,0,0-0.1,0-0.2c0-0.2,0-0.4-0.1-0.6c0-0.2-0.1-0.5-0.1-0.6s-0.1-0.4-0.1-0.6c0-0.2-0.1-0.4-0.2-0.6
	c0-0.2-0.1-0.4-0.2-0.6c-0.1-0.2-0.2-0.4-0.2-0.6c-0.1-0.2-0.2-0.3-0.2-0.5c-0.1-0.2-0.2-0.4-0.3-0.6c-0.1-0.2-0.2-0.3-0.3-0.5
	c-0.1-0.2-0.2-0.3-0.3-0.5c-0.1-0.2-0.2-0.3-0.3-0.5c-0.1-0.2-0.2-0.3-0.4-0.5c-0.1-0.2-0.2-0.3-0.4-0.5c-0.2-0.2-0.3-0.3-0.4-0.5
	c-0.2-0.2-0.3-0.3-0.4-0.4c-0.2-0.2-0.3-0.3-0.5-0.4c-0.2-0.1-0.3-0.3-0.5-0.4c-0.2-0.1-0.3-0.3-0.5-0.4c-0.2-0.1-0.3-0.2-0.5-0.3
	c-0.2-0.1-0.4-0.2-0.5-0.3c-0.2-0.1-0.3-0.2-0.5-0.3c-0.2-0.1-0.4-0.2-0.6-0.3c-0.2-0.1-0.3-0.2-0.5-0.2c-0.2-0.1-0.4-0.2-0.6-0.2
	c-0.2-0.1-0.3-0.1-0.5-0.2c-0.2-0.1-0.5-0.1-0.7-0.2c-0.2,0-0.3-0.1-0.5-0.1c-0.3,0-0.5-0.1-0.8-0.1c-0.2,0-0.3,0-0.4-0.1
	c-0.4,0-0.8-0.1-1.3-0.1s-0.9,0-1.3,0.1c-0.2,0-0.3,0-0.4,0.1c-0.3,0-0.5,0.1-0.8,0.1c-0.2,0-0.3,0.1-0.5,0.1
	c-0.2,0.1-0.5,0.1-0.7,0.2c-0.2,0-0.3,0.1-0.5,0.2c-0.2,0.1-0.4,0.2-0.6,0.2c-0.2,0.1-0.3,0.2-0.5,0.2c-0.2,0.1-0.4,0.2-0.6,0.3
	c-0.2,0.1-0.3,0.2-0.5,0.3c-0.2,0.1-0.4,0.2-0.5,0.3c-0.2,0.1-0.3,0.2-0.5,0.3c-0.2,0.1-0.3,0.2-0.5,0.4c-0.2,0.1-0.3,0.2-0.5,0.4
	c-0.2,0.2-0.3,0.3-0.5,0.4c-0.2,0.2-0.3,0.3-0.4,0.4c-0.2,0.2-0.3,0.3-0.4,0.5c-0.1,0.2-0.3,0.3-0.4,0.5c-0.1,0.2-0.3,0.3-0.4,0.5
	s-0.2,0.3-0.3,0.5c-0.1,0.2-0.2,0.3-0.3,0.5c-0.1,0.2-0.2,0.3-0.3,0.5c-0.1,0.2-0.2,0.4-0.3,0.6c-0.1,0.2-0.2,0.3-0.2,0.5
	c-0.1,0.2-0.2,0.4-0.2,0.6c-0.1,0.2-0.1,0.4-0.2,0.6c-0.1,0.2-0.1,0.4-0.2,0.6c0,0.2-0.1,0.4-0.1,0.6c0,0.2-0.1,0.5-0.1,0.7
	c0,0.2-0.1,0.4-0.1,0.6c0,0,0,0.1,0,0.2H32c0,0,0-0.1,0-0.2c0-0.2,0-0.4-0.1-0.6c0-0.2-0.1-0.5-0.1-0.6s-0.1-0.4-0.1-0.6
	c0-0.2-0.1-0.4-0.2-0.6c0-0.2-0.1-0.4-0.2-0.6s-0.2-0.4-0.2-0.6c-0.1-0.2-0.2-0.3-0.2-0.5c-0.1-0.2-0.2-0.4-0.3-0.6
	c-0.1-0.2-0.2-0.3-0.3-0.5c-0.1-0.2-0.2-0.4-0.3-0.5c-0.1-0.2-0.2-0.3-0.3-0.5c-0.1-0.2-0.3-0.3-0.4-0.5c-0.1-0.2-0.2-0.3-0.4-0.5
	c-0.2-0.2-0.3-0.3-0.4-0.5c-0.1-0.2-0.3-0.3-0.4-0.4c-0.2-0.2-0.3-0.3-0.5-0.4c-0.2-0.1-0.3-0.3-0.5-0.4c-0.2-0.1-0.3-0.3-0.5-0.4
	c-0.2-0.1-0.3-0.2-0.5-0.3c-0.2-0.1-0.4-0.2-0.6-0.3c-0.2-0.1-0.3-0.2-0.5-0.3c-0.2-0.1-0.4-0.2-0.6-0.3c-0.2-0.1-0.3-0.2-0.5-0.2
	c-0.2-0.1-0.4-0.2-0.6-0.2c-0.2-0.1-0.3-0.1-0.5-0.2c-0.2-0.1-0.5-0.1-0.7-0.2c-0.2,0-0.3-0.1-0.5-0.1c-0.3,0-0.5-0.1-0.8-0.1
	c-0.2,0-0.3,0-0.4-0.1c-0.4,0-0.8-0.1-1.3-0.1c-0.4,0-0.9,0-1.3,0.1c-0.2,0-0.3,0-0.4,0.1c-0.3,0-0.5,0.1-0.8,0.1
	c-0.2,0-0.3,0.1-0.5,0.1c-0.2,0.1-0.5,0.1-0.7,0.2c-0.2,0-0.3,0.1-0.5,0.2c-0.2,0.1-0.4,0.2-0.6,0.2c-0.2,0.1-0.3,0.2-0.5,0.2
	c-0.2,0.1-0.4,0.2-0.6,0.3c-0.2,0.1-0.3,0.2-0.5,0.3c-0.2,0.1-0.4,0.2-0.5,0.3c-0.2,0.1-0.3,0.2-0.5,0.3c-0.2,0.1-0.3,0.2-0.5,0.4
	c-0.2,0.1-0.3,0.2-0.5,0.4s-0.3,0.3-0.5,0.4c-0.2,0.2-0.3,0.3-0.4,0.4c-0.2,0.2-0.3,0.3-0.4,0.5c-0.1,0.2-0.3,0.3-0.4,0.5
	c-0.1,0.2-0.3,0.3-0.4,0.5c-0.1,0.2-0.2,0.3-0.3,0.5c-0.1,0.2-0.2,0.3-0.3,0.5c-0.1,0.2-0.2,0.3-0.3,0.5c-0.1,0.2-0.2,0.4-0.3,0.6
	c-0.1,0.2-0.2,0.3-0.2,0.5c-0.1,0.2-0.2,0.4-0.2,0.6C7.1,23.6,7,23.7,7,23.9s-0.1,0.4-0.2,0.6c0,0.2-0.1,0.4-0.2,0.6
	c0,0.2-0.1,0.4-0.1,0.6c0,0.2-0.1,0.4-0.1,0.6c0,0,0,0.1,0,0.2H2.2c0.2-2.9,1.4-5.7,3.5-7.8c2.3-2.4,5.4-3.8,8.7-4.1l5.2-0.3
	c0,0,0,0,0.1,0l6.3-0.4l4.6-0.3h0.2c0,0,0,0,0.1,0l8.6-0.5l25.7-1.5h0l24.7-1.5l2.4-0.2c2.3-0.2,4.4,1.4,5,3.7l2,8.1
	C99.5,22.9,99.2,24.1,98.5,25z"/>
</svg>
