<?xml version="1.0" encoding="utf-8"?>
<!-- Generator: Adobe Illustrator 28.2.0, SVG Export Plug-In . SVG Version: 6.00 Build 0)  -->
<svg version="1.1" id="Layer_1" xmlns="http://www.w3.org/2000/svg" xmlns:xlink="http://www.w3.org/1999/xlink" x="0px" y="0px"
	 viewBox="0 0 91 53" style="enable-background:new 0 0 91 53;" xml:space="preserve">
<style type="text/css">
	.st0{fill:#FFFFFF;}
</style>
<path class="st0" d="M0,35.8C0,45.3,7.9,53,17.6,53c9.7,0,17.6-7.7,17.6-17.2c0-5.8-3.1-11.2-8-14.3l2.9-6.1l13.1,17.2
	c-0.4,0.5-0.8,1-1.1,1.6h-3.1c-1.5,0-2.8,1.2-2.8,2.7c0,1.5,1.3,2.7,2.8,2.7h3.2c1.1,1.9,3.1,3.2,5.5,3.2c2.3,0,4.4-1.2,5.5-3.2h3
	C58,47.4,65.1,53,73.4,53C83.1,53,91,45.3,91,35.8c0-9.5-7.9-17.2-17.6-17.2c-4.3,0-8.4,1.6-11.7,4.3l-4-3l4.2-8.8
	c0.2-0.4,0.2-0.8,0.2-1.1c2.1-1,5.4-2.9,6.2-5.2c0.3-0.8,0.3-1.6-0.1-2.3c-1.5-2.7-4.6-2.1-8.9-1.2C56.5,1.9,53,2.6,48.8,2.7
	c-0.9,0.1-1.4,0.6-1.4,1.1c-0.2,1.8,4.8,5.4,8.6,6.7l-3.3,6.9l-1-0.4l-18.3-7c0.2-0.5,0.2-1.1,0.1-1.7c-0.2-0.8-0.7-1.3-1.4-1.8
	l-0.1-0.1c-0.2-0.1-0.3-0.2-0.4-0.3c0,0-0.1-0.1-0.2-0.1l-2.8-1.6c0.4-0.5,0.6-1.1,0.6-1.7c0-1.6-1.3-2.8-2.9-2.8h-7.1
	c-1.6,0-2.9,1.3-2.9,2.8c0,1.6,1.3,2.8,2.9,2.8h2.4c0.1,1,0.6,1.8,1.4,2.3l3.5,2l-4.5,9.3c-1.4-0.4-2.9-0.6-4.5-0.6
	C7.9,18.6,0,26.4,0,35.8z M27.3,2.8c0,0.4-0.3,0.9-0.7,1c-0.2,0.1-0.3,0.1-0.4,0.1h-3.6H19c-0.6,0-1.2-0.5-1.2-1.1s0.6-1.1,1.2-1.1
	h7.2C26.8,1.7,27.3,2.2,27.3,2.8z M60.8,8.7c-0.6,0.3-1,0.4-1.4,0.5c-0.6,0.1-1.3,0.1-2-0.1c-3.1-0.7-6.8-3.3-7.9-4.7
	C53.6,4.2,57,3.5,59.7,3c2.1-0.4,3.6-0.7,4.7-0.7c1.2,0,1.8,0.3,2.3,1.1c0.1,0.2,0.2,0.5,0,0.9C66.1,5.9,63.2,7.7,60.8,8.7z
	 M55.9,19.4l-0.2,0.4L54,23.5l-3.6,7.6h-0.1c-0.4-0.2-0.8-0.3-1.3-0.4c-0.3-0.1-0.5-0.1-0.7-0.1l0.1-0.3l3.8-7.9c0,0,0,0,0-0.1
	l1.8-3.7l3.7-7.8h0.1c0.3,0.1,0.7,0.1,0.9,0.1h0.1c0.4,0,0.7-0.1,1-0.1c0.1,0,0.2-0.1,0.3-0.1L55.9,19.4z M47.3,28.4l-7.4-9.7
	l10.2,3.9L47.3,28.4z M58,39.6h3c0.1,0.3,0.2,0.5,0.3,0.7c0.1,0.3,0.2,0.6,0.4,0.9s0.3,0.6,0.6,1c0.2,0.3,0.3,0.5,0.5,0.8
	c0.2,0.3,0.4,0.6,0.7,0.9c0.2,0.2,0.4,0.5,0.6,0.7c0.3,0.3,0.6,0.5,0.8,0.8c0.2,0.2,0.4,0.4,0.7,0.6c0.3,0.2,0.7,0.4,1,0.6
	c0.3,0.2,0.5,0.3,0.8,0.5c0.4,0.2,0.8,0.3,1.2,0.5c0.3,0.1,0.5,0.2,0.8,0.3c0.4,0.2,0.9,0.2,1.4,0.3c0.2,0.1,0.4,0.1,0.7,0.2
	c0.7,0.1,1.4,0.2,2.1,0.2c7.2,0,13-5.7,13-12.7c0-7-5.8-12.7-13-12.7c-0.7,0-1.3,0.1-2,0.2c-0.1,0-0.1,0-0.2,0
	c-0.6,0.1-1.2,0.3-1.8,0.4c-0.1,0.1-0.2,0.1-0.3,0.1c-0.6,0.2-1.2,0.4-1.7,0.7c-0.1,0.1-0.2,0.1-0.3,0.2c-0.6,0.3-1,0.6-1.5,1
	c-0.1,0-0.1,0.1-0.1,0.1l-2.5-1.7c2.9-2.4,6.5-3.7,10.2-3.7c8.7,0,15.8,6.9,15.8,15.4c0,8.5-7.1,15.5-15.8,15.5
	C66.1,51.3,59.7,46.4,58,39.6z M78.2,36.7c0-0.2,0-0.3-0.1-0.4v-0.1c0-0.1-0.1-0.2-0.1-0.2c0,0,0,0,0-0.1c-0.1-0.2-0.1-0.4-0.2-0.5
	c0-0.1-0.1-0.1-0.1-0.1l-0.2-0.2c-0.1-0.1-0.3-0.3-0.4-0.4l-0.1-0.1c-0.2-0.2-0.5-0.4-0.7-0.5c-0.2-0.1-0.3-0.2-0.4-0.3
	c-0.1-0.1-0.1-0.1-0.2-0.2l-1.1-0.9c-0.1-0.1-0.1-0.1-0.2-0.2c-0.4-0.3-0.9-0.6-1.3-1l-5.6-4.2c-0.2-0.2-0.4-0.3-0.6-0.4
	c0.1-0.1,0.3-0.2,0.4-0.3c0.2-0.1,0.4-0.3,0.7-0.4c0.3-0.2,0.7-0.3,1-0.5c0.2-0.1,0.4-0.2,0.7-0.3c0.4-0.2,0.8-0.2,1.2-0.3
	c0.2-0.1,0.4-0.1,0.6-0.2c0.6-0.1,1.3-0.2,1.9-0.2c6.2,0,11.2,4.9,11.2,11c0,6-5,11-11.2,11c-0.6,0-1.2-0.1-1.8-0.2
	c-0.2-0.1-0.4-0.1-0.6-0.2c-0.4-0.1-0.8-0.2-1.2-0.3c-0.2-0.1-0.4-0.2-0.7-0.3c-0.3-0.1-0.7-0.3-1-0.4c-0.2-0.1-0.4-0.3-0.6-0.4
	c-0.3-0.2-0.6-0.3-0.8-0.5c-0.2-0.2-0.4-0.3-0.6-0.5c-0.3-0.2-0.5-0.4-0.7-0.6c-0.2-0.2-0.3-0.4-0.5-0.5c-0.2-0.3-0.4-0.5-0.6-0.8
	c-0.2-0.2-0.3-0.4-0.4-0.6c-0.2-0.3-0.3-0.6-0.5-0.9c-0.1-0.2-0.2-0.4-0.3-0.7c-0.1-0.1-0.1-0.2-0.1-0.4h11.5c0.1,0,0.2,0,0.3,0
	c0.1,0,0.2,0,0.2,0h0.3h0.1h0.1h0.1c0.1,0,0.2,0,0.4-0.1c0,0,0.2,0,0.3-0.1c0.1,0,0.1,0,0.2-0.1h0.1c0.1,0,0.1,0,0.1-0.1
	c0,0,0.2-0.1,0.3-0.2c0.2-0.1,0.3-0.2,0.5-0.4c0.1-0.1,0.1-0.1,0.1-0.1c0-0.1,0.1-0.1,0.1-0.2c0.1-0.1,0.1-0.2,0.1-0.3
	c0.1-0.1,0.1-0.1,0.1-0.2s0.1-0.1,0.1-0.1l0.1-0.3c0.1-0.1,0.1-0.2,0.1-0.4c0.1-0.2,0.1-0.3,0.1-0.5C78.2,36.8,78.2,36.8,78.2,36.7z
	 M53.9,37.9c0.1-0.4,0.1-0.8,0.1-1.1S54,36,53.9,35.6h2.8h4.6h7.9c0.4,0,0.7-0.2,0.8-0.6c0.1-0.4,0-0.8-0.3-1l-10.1-7.6l-3.8-2.8
	l1-2l8,6l0.1,0.1c0.1,0.1,0.2,0.2,0.3,0.2l0.6,0.5c0.2,0.1,0.3,0.3,0.5,0.4l5.6,4.2c0.4,0.4,0.9,0.7,1.4,1c0.4,0.3,0.8,0.5,1.1,0.9
	c0.2,0.1,0.2,0.2,0.3,0.2l1.2,0.9c0.2,0.2,0.4,0.4,0.4,0.6c0.1,0.1,0.1,0.3-0.1,0.8c-0.1,0.2-0.2,0.3-0.3,0.4
	c-0.3,0.2-0.8,0.2-1.4,0.2H74H61.6h-4.7L53.9,37.9L53.9,37.9z M61.7,30.2c-0.6,1.2-1,2.4-1.2,3.7h-2.9c0.2-1.9,0.8-3.7,1.8-5.4
	L61.7,30.2z M63.1,31.3l3.5,2.6h-4.3C62.4,33,62.8,32.1,63.1,31.3z M51.8,32.1l3.3-6.9l2.9,2.2c-1.2,2-1.9,4.2-2.1,6.4h-2.6
	C52.9,33.2,52.4,32.6,51.8,32.1z M44.4,39.6h1.4c0.1,0,0.2,0,0.3,0c1-0.1,1.9-0.8,2.3-1.7c0.1-0.4,0.2-0.7,0.2-1
	c0-1.2-0.8-2.3-1.9-2.6c-0.1-0.1-0.1-0.1-0.2-0.1c-0.2-0.1-0.4-0.1-0.7-0.1h-1.7c0.2-0.3,0.5-0.6,0.8-0.8c0.6-0.4,1.2-0.8,1.9-0.9
	c0.6-0.1,1.2-0.1,1.7,0c0.6,0.1,1.1,0.3,1.6,0.6c0.8,0.5,1.3,1.2,1.7,2c0.2,0.5,0.3,1.1,0.3,1.7c0,0.6-0.1,1.1-0.3,1.7
	c-0.7,1.6-2.3,2.7-4.1,2.7C46.5,41.1,45.3,40.5,44.4,39.6z M45.9,35.9c0.1,0,0.1,0,0.2,0c0.1,0,0.1,0.1,0.1,0.1
	c0.4,0.1,0.8,0.5,0.8,0.9c0,0.2,0,0.3-0.1,0.4c-0.1,0.3-0.4,0.5-0.8,0.6c-0.1,0-0.1,0-0.1,0h-3h-0.1h-3.7c-0.6,0-1-0.4-1-1
	c0-0.5,0.4-1,1-1h3.7L45.9,35.9L45.9,35.9z M31,13.6l1-2.1l0.1-0.1l19.3,7.4l0.4,0.2l-1,2l-13.2-5c-0.4-0.2-0.8-0.1-1,0.3
	c-0.2,0.3-0.2,0.8,0,1.1l9.9,12.9l-0.3,0.8C46,31,45.9,31,45.7,31.1c-0.3,0.1-0.6,0.2-0.8,0.3c-0.1,0.1-0.2,0.1-0.3,0.1L31,13.6z
	 M29.9,9.9l-1.9-1.1l-4.2-2.4c-0.3-0.2-0.5-0.5-0.6-0.8h2.9c0.2,0,0.4,0,0.6-0.1h0.1l4.1,2.3L31,7.9c0.1,0,0.1,0.1,0.1,0.1
	c0.3,0.2,0.4,0.4,0.6,0.7c0.1,0.3,0.1,0.6-0.1,0.9c-0.1,0.1-0.1,0.2-0.2,0.2c-0.1,0.1-0.2,0.1-0.3,0.2C31.1,10,31,10,31,10
	c-0.1,0.1-0.2,0.1-0.2,0.1C30.4,10.1,30.2,10,29.9,9.9z M25.3,21.4l-6.4,13.5c-0.1,0.3-0.3,0.4-0.6,0.5c-0.3,0.1-0.6,0.1-0.8-0.1
	c-0.1-0.1-0.2-0.2-0.3-0.2c-0.2-0.2-0.3-0.4-0.3-0.7c0,0,0,0,0-0.1c0-0.1,0.1-0.3,0.1-0.4l6.4-13.4v-0.1l4.6-9.7l1,0.6
	c0.2,0.2,0.5,0.2,0.8,0.3h0.1l-0.7,1.6c0,0.1-0.1,0.2-0.1,0.2L25.3,21.4z M15.2,35.4c0.3,0.7,0.8,1.2,1.5,1.6
	c0.2,0.1,0.4,0.2,0.6,0.2c0.1,0,0.2,0,0.2,0.1c0.1,0,0.2,0.1,0.3,0.1h0.1c0.1,0,0.1,0,0.1,0c0.3,0,0.6-0.1,0.9-0.2
	c0.7-0.3,1.3-0.8,1.6-1.4l4-8.4c2.8,2,4.3,5.2,4.3,8.6c0,6-5,11-11.2,11c-6.2,0-11.2-4.9-11.2-11s5-11,11.2-11
	c0.6,0,1.2,0.1,1.7,0.1l-4,8.3C15,33.9,15,34.7,15.2,35.4z M1.8,35.8c0-8.5,7.1-15.4,15.8-15.4c1.3,0,2.5,0.2,3.7,0.4l-1.2,2.6
	c-0.8-0.2-1.6-0.3-2.5-0.3c-7.2,0-13,5.7-13,12.7c0,7,5.8,12.7,13,12.7c7.2,0,13-5.7,13-12.7c0-4.1-2-7.8-5.3-10.2l1.2-2.5
	c4.3,2.8,6.9,7.6,6.9,12.8c0,8.5-7.1,15.5-15.9,15.5C8.9,51.3,1.8,44.4,1.8,35.8z"/>
</svg>
