<svg width="91" height="53" viewBox="0 0 91 53" fill="none" xmlns="http://www.w3.org/2000/svg">
<path d="M0 35.8166C0 45.2675 7.87235 53 17.6165 53C27.3055 53 35.2329 45.2675 35.2329 35.8166C35.2329 30.0172 32.15 24.6474 27.2505 21.4792L30.1682 15.3576L43.2704 32.541C42.83 33.0243 42.4446 33.5613 42.1694 34.152H39.0865C37.5451 34.152 36.2789 35.387 36.2789 36.8906C36.2789 38.3941 37.5451 39.6292 39.0865 39.6292H42.3345C43.4356 41.5623 45.4725 42.7974 47.7846 42.7974C50.0968 42.7974 52.1888 41.5623 53.2347 39.6292H56.2075C58.0242 47.4154 65.0708 53 73.3835 53C83.0726 53 91 45.2675 91 35.8166C91 26.3658 83.1276 18.6332 73.3835 18.6332C69.0895 18.6332 64.9607 20.1905 61.7127 22.9828L57.6939 19.9757L61.8778 11.1692C62.043 10.7933 62.098 10.4174 62.098 10.0415C64.245 9.07498 67.493 7.14184 68.3188 4.88652C68.5941 4.08105 68.5941 3.27558 68.2087 2.57751C66.7223 -0.161094 63.6395 0.429585 59.2904 1.34245C56.4828 1.87943 53.0145 2.57751 48.7756 2.7386C47.8397 2.7923 47.3993 3.32928 47.3442 3.86626C47.1791 5.692 52.1888 9.28977 55.9323 10.5248L52.6292 17.3982L51.6382 17.0223L33.3061 9.98784C33.5263 9.45086 33.5263 8.86018 33.4162 8.2695C33.196 7.51773 32.7005 6.92705 32.0399 6.49747L31.9298 6.44377C31.7647 6.33637 31.6546 6.22898 31.4894 6.17528C31.4894 6.17528 31.3793 6.12158 31.3243 6.12158L28.5717 4.56434C28.9571 4.08105 29.1773 3.49038 29.1773 2.846C29.1773 1.28875 27.856 0 26.2595 0H19.1579C17.5614 0 16.2402 1.28875 16.2402 2.846C16.2402 4.40324 17.5614 5.692 19.1579 5.692H21.5802C21.6352 6.65856 22.1857 7.51773 23.0115 8.00101L26.5348 9.98784L22.0756 19.2776C20.6443 18.9017 19.1579 18.6869 17.6165 18.6869C7.92741 18.6332 0 26.3658 0 35.8166ZM27.3055 2.7923C27.3055 3.22188 27.0302 3.65147 26.5898 3.81256C26.4247 3.86626 26.3146 3.91996 26.1494 3.91996H22.516H19.0478C18.4422 3.91996 17.8917 3.38298 17.8917 2.7923C17.8917 2.20162 18.4422 1.66464 19.0478 1.66464H26.2045C26.81 1.66464 27.3055 2.20162 27.3055 2.7923ZM60.8318 8.69909C60.2263 8.96758 59.7858 9.12867 59.4555 9.18237C58.905 9.28977 58.1894 9.28977 57.4186 9.07498C54.2807 8.3769 50.6473 5.74569 49.4912 4.40324C53.6201 4.18845 56.9782 3.54407 59.6758 3.00709C61.7677 2.57751 63.3091 2.30902 64.4102 2.30902C65.5662 2.30902 66.2269 2.63121 66.6673 3.38298C66.7774 3.54407 66.8875 3.86626 66.6673 4.29585C66.0617 5.85309 63.199 7.73252 60.8318 8.69909ZM55.9323 19.4387L55.712 19.8146L53.9504 23.5198L50.317 31.1449H50.262C49.8766 30.9838 49.4362 30.8227 48.9958 30.7153C48.7205 30.6616 48.5003 30.6616 48.2801 30.6079L48.3902 30.3394L52.1888 22.4458C52.1888 22.4458 52.1888 22.4458 52.1888 22.3921L53.9504 18.7406L57.6939 10.9007H57.7489C58.0793 10.9544 58.4096 10.9544 58.6848 10.9544H58.7399C59.1252 10.9544 59.4555 10.9007 59.7859 10.847C59.8409 10.847 59.951 10.7933 60.0611 10.7933L55.9323 19.4387ZM47.3442 28.3526L39.9123 18.6332L50.0968 22.5532L47.3442 28.3526ZM58.0242 39.6292H60.997C61.052 39.8977 61.2172 40.1125 61.2722 40.3273C61.3823 40.6494 61.4924 40.9179 61.6576 41.2401C61.8228 41.5623 61.9879 41.8845 62.2081 42.2067C62.3733 42.4752 62.5384 42.7437 62.7036 43.0122C62.9238 43.3344 63.144 43.6028 63.4192 43.8713C63.6395 44.0861 63.8046 44.3546 64.0248 44.5694C64.3001 44.8379 64.5753 45.0527 64.8506 45.3212C65.0708 45.536 65.291 45.7508 65.5663 45.9119C65.8966 46.1266 66.2269 46.3414 66.5572 46.5562C66.8324 46.7173 67.0526 46.8784 67.3279 47.0395C67.7133 47.2543 68.0986 47.3617 68.484 47.5228C68.7592 47.6302 68.9794 47.7376 69.2547 47.845C69.6951 48.0061 70.1355 48.0598 70.631 48.1672C70.8512 48.2209 71.0714 48.2746 71.3467 48.3283C72.0623 48.4357 72.778 48.4894 73.4937 48.4894C80.6503 48.4894 86.4858 42.7974 86.4858 35.8166C86.4858 28.8359 80.6503 23.1439 73.4937 23.1439C72.833 23.1439 72.1724 23.1976 71.5118 23.305C71.4567 23.305 71.4017 23.305 71.3467 23.305C70.7411 23.4124 70.1355 23.5735 69.53 23.7345C69.4198 23.7882 69.3648 23.7882 69.2547 23.8419C68.6491 24.0567 68.0986 24.2715 67.5481 24.54C67.438 24.5937 67.3829 24.6474 67.2729 24.7011C66.7223 24.9696 66.2269 25.3455 65.7314 25.6677C65.6764 25.6677 65.6764 25.7214 65.6213 25.7214L63.0889 24.0567C65.9516 21.694 69.585 20.4053 73.3285 20.4053C82.0266 20.4053 89.1283 27.3323 89.1283 35.8166C89.1283 44.3546 82.0266 51.2817 73.3285 51.2817C66.0617 51.2817 59.7308 46.3951 58.0242 39.6292ZM78.173 36.7295C78.173 36.5684 78.173 36.4073 78.118 36.2999V36.2462C78.118 36.1388 78.0629 36.0851 78.0629 36.0314C78.0629 36.0314 78.0629 36.0314 78.0629 35.9777C78.0079 35.7629 77.9528 35.6018 77.8427 35.4407C77.8427 35.387 77.7877 35.3333 77.7877 35.3333L77.6225 35.1185C77.5124 35.0111 77.3473 34.8501 77.1821 34.689L77.1271 34.6353C76.9068 34.4742 76.6316 34.2594 76.4114 34.0983C76.2462 33.9909 76.0811 33.8835 75.971 33.7761C75.9159 33.7224 75.8609 33.6687 75.7508 33.615L74.6497 32.7558C74.5947 32.7021 74.5396 32.6484 74.4846 32.5947C74.0442 32.2725 73.6038 31.9504 73.1633 31.5745L67.6031 27.386C67.438 27.2249 67.2178 27.1175 67.0526 26.9564C67.1627 26.849 67.3279 26.7416 67.438 26.6879C67.6582 26.5805 67.8784 26.4195 68.0986 26.3121C68.4289 26.151 68.8143 25.9899 69.1446 25.8288C69.3648 25.7214 69.585 25.6677 69.8052 25.5603C70.1906 25.3992 70.631 25.3455 71.0163 25.2381C71.2365 25.1844 71.4017 25.1307 71.6219 25.077C72.2275 24.9696 72.8881 24.9159 73.4937 24.9159C79.6594 24.9159 84.7241 29.8024 84.7241 35.8703C84.7241 41.8845 79.7145 46.8247 73.4937 46.8247C72.8881 46.8247 72.2825 46.771 71.677 46.6636C71.4568 46.6099 71.2916 46.5562 71.0714 46.5025C70.686 46.3951 70.3007 46.3414 69.9153 46.234C69.6951 46.1803 69.4749 46.073 69.2547 45.9656C68.9244 45.8582 68.5941 45.6971 68.2638 45.536C68.0436 45.4286 67.8234 45.2675 67.6582 45.1601C67.3829 44.999 67.0526 44.8379 66.8324 44.6231C66.6122 44.462 66.4471 44.3009 66.2269 44.1398C65.9516 43.925 65.7314 43.7102 65.5112 43.4954C65.346 43.3343 65.1809 43.1196 65.0157 42.9585C64.7955 42.69 64.5753 42.4752 64.4102 42.2067C64.245 41.9919 64.1349 41.7771 63.9698 41.5623C63.8046 41.2938 63.6395 40.9716 63.4743 40.7031C63.3642 40.4883 63.2541 40.2736 63.144 40.0051C63.0889 39.8977 63.0889 39.7903 63.0339 39.6292H74.5396C74.6497 39.6292 74.7598 39.6292 74.8699 39.6292C74.925 39.6292 75.0351 39.6292 75.0901 39.6292H75.3654H75.4205H75.4755H75.5306C75.6407 39.6292 75.7508 39.6292 75.9159 39.5755C75.9159 39.5755 76.0811 39.5755 76.2462 39.4681C76.3013 39.4681 76.3563 39.4681 76.4664 39.4144H76.5215C76.5765 39.4144 76.5765 39.4144 76.6316 39.3607C76.6316 39.3607 76.7967 39.307 76.9069 39.1996C77.072 39.1459 77.2372 38.9848 77.4023 38.77C77.4574 38.7163 77.5124 38.6626 77.5124 38.6626C77.5124 38.6089 77.6225 38.5552 77.6225 38.5015C77.6776 38.4478 77.7326 38.2867 77.7326 38.233C77.7877 38.1793 77.7877 38.1256 77.7877 38.0719C77.7877 38.0182 77.8427 38.0182 77.8427 38.0182L77.9528 37.7497C78.0079 37.696 78.0629 37.535 78.0629 37.3739C78.118 37.2128 78.118 37.0517 78.118 36.8906C78.173 36.8369 78.173 36.7832 78.173 36.7295ZM53.8953 37.8571C53.9504 37.4813 54.0055 37.1054 54.0055 36.7295C54.0055 36.3536 53.9504 35.9777 53.8953 35.6018H56.6479H61.2722H69.1996C69.585 35.6018 69.9153 35.387 70.0254 35.0111C70.1355 34.6353 70.0254 34.2594 69.7502 34.0446L59.6758 26.4732L55.8772 23.6272L56.8681 21.5866L64.8506 27.6008L64.9607 27.7082C65.0708 27.7619 65.1258 27.8693 65.2359 27.923L65.8415 28.4063C66.0067 28.5137 66.1718 28.6748 66.337 28.7822L71.8972 32.9706C72.3376 33.3465 72.778 33.6687 73.2735 33.9909C73.6588 34.2594 74.0442 34.5279 74.3745 34.8501C74.5396 34.9574 74.5947 35.0111 74.7048 35.0648L75.8609 35.924C76.0811 36.1388 76.2462 36.2999 76.3013 36.5147C76.3563 36.6221 76.3563 36.8369 76.2462 37.2665C76.1912 37.4813 76.0811 37.5887 75.9159 37.6961C75.5856 37.9108 75.0901 37.9108 74.5396 37.9108H74.0442H61.6026H56.8681H53.8953V37.8571ZM61.7127 30.1783C61.1071 31.3597 60.7217 32.5947 60.5015 33.8835H57.6388C57.8591 32.0041 58.4646 30.1783 59.4005 28.46L61.7127 30.1783ZM63.144 31.2523L66.6122 33.8835H62.3182C62.4283 32.9706 62.7586 32.1115 63.144 31.2523ZM51.8034 32.1115L55.1065 25.2381L58.0242 27.4397C56.8681 29.4265 56.1525 31.6282 55.8772 33.8835H53.2898C52.9044 33.2391 52.409 32.6484 51.8034 32.1115ZM44.4265 39.6292H45.8578C45.9129 39.6292 46.023 39.6292 46.1881 39.6292C47.1791 39.5218 48.0599 38.8774 48.5003 37.9645C48.6104 37.5887 48.7205 37.2665 48.7205 36.9443C48.7205 35.7629 47.9498 34.689 46.7937 34.3668C46.7387 34.3131 46.6836 34.3131 46.6286 34.3131C46.4084 34.2594 46.1881 34.2594 45.9129 34.2594H44.2613C44.4816 33.9372 44.7568 33.6687 45.0871 33.4539C45.6376 33.0243 46.2983 32.7021 47.0139 32.5947C47.5644 32.4873 48.17 32.4873 48.7205 32.5947C49.271 32.7021 49.8215 32.9169 50.317 33.2391C51.0877 33.7224 51.6382 34.4205 51.9685 35.2259C52.1888 35.7629 52.2989 36.2999 52.2989 36.8906C52.2989 37.4813 52.1888 38.0182 51.9685 38.5552C51.2529 40.1662 49.6564 41.2401 47.8947 41.2401C46.4634 41.079 45.2523 40.542 44.4265 39.6292ZM45.8578 35.8703C45.9129 35.8703 45.9679 35.8703 46.023 35.8703C46.078 35.8703 46.078 35.924 46.1331 35.924C46.5735 36.0314 46.9038 36.4073 46.9038 36.8369C46.9038 36.998 46.9038 37.1054 46.8488 37.2665C46.7387 37.5887 46.4084 37.8034 46.023 37.8571C45.9679 37.8571 45.9129 37.8571 45.9129 37.8571H42.8851H42.83H39.1416C38.591 37.8571 38.1506 37.4276 38.1506 36.8369C38.1506 36.2999 38.591 35.8166 39.1416 35.8166H42.83H45.8578V35.8703ZM30.994 13.5856L32.0399 11.4377L32.095 11.384L51.418 18.7943L51.8584 18.9554L50.8675 20.9959L37.6552 15.9483C37.2698 15.7872 36.8845 15.8946 36.6092 16.2168C36.389 16.539 36.389 16.9686 36.6092 17.2908L46.5185 30.1783L46.1881 30.9301C46.023 30.9838 45.9129 31.0375 45.7477 31.0912C45.4725 31.1986 45.1972 31.2523 44.977 31.4134C44.922 31.4671 44.8119 31.4671 44.7018 31.5208L30.994 13.5856ZM29.948 9.93414L28.0762 8.86018L23.8373 6.44377C23.507 6.28268 23.3418 5.96049 23.2868 5.6383H26.2045C26.4247 5.6383 26.5898 5.6383 26.81 5.5846H26.8651L30.9389 7.89362L31.049 7.94732C31.1041 7.94732 31.1041 8.00101 31.1591 8.00101C31.4344 8.16211 31.5995 8.3769 31.7096 8.69909C31.7647 8.96758 31.7647 9.28977 31.5995 9.55826C31.5445 9.66565 31.4894 9.71935 31.4344 9.77305C31.3793 9.82675 31.2692 9.88044 31.1591 9.98784C31.1041 9.98784 31.049 10.0415 30.994 10.0415C30.8838 10.0952 30.8288 10.0952 30.8288 10.0952C30.3884 10.0952 30.1682 10.0415 29.948 9.93414ZM25.2686 21.4255L18.8276 34.9037C18.7175 35.1722 18.4973 35.3333 18.222 35.4407C17.9468 35.5481 17.6715 35.5481 17.3962 35.387C17.2861 35.3333 17.176 35.2259 17.0659 35.1722C16.9008 34.9574 16.7907 34.7427 16.7907 34.4742C16.7907 34.4742 16.7907 34.4742 16.7907 34.4205C16.7907 34.3131 16.8457 34.152 16.9008 34.0446L23.2868 20.6738V20.6201L27.9111 10.9007L28.9571 11.4914C29.1773 11.6525 29.4525 11.7062 29.7278 11.7599H29.7828L29.0672 13.3171C29.0672 13.3708 29.0121 13.4782 29.0121 13.4782L25.2686 21.4255ZM15.2492 35.387C15.5245 36.0851 16.02 36.6221 16.7356 36.9443C16.9008 37.0517 17.121 37.1054 17.2861 37.1054C17.3412 37.1054 17.4513 37.1054 17.5064 37.1591C17.6165 37.1591 17.7266 37.2128 17.8367 37.2128H17.8917C17.9468 37.2128 17.9468 37.2128 18.0018 37.2128C18.2771 37.2128 18.6074 37.1591 18.8826 37.0517C19.5983 36.7832 20.1488 36.2999 20.4791 35.6018L24.4979 27.1712C27.2505 29.2118 28.8469 32.3799 28.8469 35.8166C28.8469 41.8308 23.8373 46.771 17.6165 46.771C11.3956 46.771 6.38596 41.8308 6.38596 35.8166C6.38596 29.8024 11.3956 24.8622 17.6165 24.8622C18.167 24.8622 18.7725 24.9159 19.323 24.9696L15.3593 33.2391C15.029 33.9372 14.974 34.689 15.2492 35.387ZM1.81669 35.8166C1.81669 27.3323 8.91833 20.4053 17.6165 20.4053C18.8826 20.4053 20.0938 20.5664 21.3049 20.8349L20.0938 23.4124C19.268 23.2513 18.4973 23.1439 17.6165 23.1439C10.4598 23.1439 4.62432 28.8359 4.62432 35.8166C4.62432 42.7974 10.4598 48.4894 17.6165 48.4894C24.7731 48.4894 30.6086 42.7974 30.6086 35.8166C30.6086 31.7356 28.6267 27.9767 25.2686 25.614L26.4797 23.0902C30.7737 25.9362 33.4162 30.7153 33.4162 35.8703C33.4162 44.4083 26.3146 51.3354 17.5614 51.3354C8.86328 51.2817 1.81669 44.3546 1.81669 35.8166Z" fill="#0099FF"/>
</svg>
