<svg width="128" height="48" viewBox="0 0 128 48" fill="none" xmlns="http://www.w3.org/2000/svg">
<g clip-path="url(#clip0_84_184)">
<path d="M16.3413 24.5946L18.4747 26.5911L29.0133 36.446C32 39.2495 35.84 40.7787 39.8933 40.7787H92.9707C95.8293 40.7787 98.6453 39.8867 100.992 38.2725C101.675 39.7592 103.168 40.7787 104.832 40.7787C106.325 40.7787 107.648 40.0991 108.459 38.9097C108.971 38.1451 109.269 37.253 109.269 36.3185V33.0053C111.019 32.2831 112.213 30.4991 112.213 28.5026V23.0654C112.213 20.3893 110.123 18.1805 107.52 18.1805H102.315C100.267 18.1805 98.5173 19.5398 97.8773 21.4938H88.448C87.552 20.8566 84.0533 18.223 84.096 15.0796C84.096 12.9982 85.632 10.9592 88.6613 9.04774C89.0453 8.83535 89.216 8.36809 89.088 7.94332C88.96 7.51854 88.6187 7.22119 88.192 7.22119H61.8667C59.3067 7.22119 56.832 8.07075 54.7413 9.68491L39.552 21.4938H17.4933C16.768 21.4938 16.128 21.961 15.9147 22.6407C15.6587 23.3203 15.8293 24.0849 16.3413 24.5946ZM85.376 21.4938H42.7093L55.8933 11.2566C57.6427 9.8973 59.7333 9.17517 61.8667 9.17517H85.2053C83.2 11.0017 82.176 12.9557 82.176 15.0796C82.176 17.7982 83.8827 20.0495 85.376 21.4938ZM107.52 31.3911H106.752C106.752 31.3486 106.795 31.3061 106.795 31.2212C107.051 30.5415 107.307 29.8619 107.477 29.1398C107.52 29.0548 107.563 28.8424 107.605 28.63L107.648 28.4177C107.776 27.9504 107.776 27.4831 107.776 27.1858C107.776 24 105.301 21.4513 102.229 21.4513H99.9253C100.437 20.6442 101.291 20.1345 102.315 20.1345H107.52C109.056 20.1345 110.336 21.4513 110.336 23.0654V28.4601C110.336 29.8194 109.397 31.0088 108.117 31.3061C107.904 31.3486 107.691 31.3911 107.52 31.3911ZM102.571 37.1256C102.613 37.0831 102.656 37.0407 102.699 36.9982C103.211 36.5309 103.723 36.0212 104.149 35.5115C104.192 35.469 104.235 35.4265 104.277 35.3415C104.747 34.7893 105.173 34.1522 105.557 33.5575C105.6 33.4725 105.643 33.43 105.685 33.3451H107.307V36.3185C107.307 36.8283 107.136 37.338 106.88 37.7628C106.411 38.4424 105.728 38.8247 104.917 38.8247C103.808 38.8247 102.912 38.1026 102.571 37.1256ZM21.4613 26.6761C22.016 26.6336 22.6133 26.5911 23.168 26.5911C24.0213 26.5486 24.832 26.5061 25.6853 26.5061C26.6667 26.4637 27.6053 26.4637 28.5867 26.4637C29.44 26.4637 30.2933 26.4637 31.1467 26.4637C32.128 26.4637 33.1093 26.5061 34.0907 26.5486C34.944 26.5911 35.7973 26.5911 36.6507 26.6336C37.632 26.6761 38.656 26.7185 39.6373 26.8035C40.4907 26.846 41.344 26.8884 42.1973 26.9734C43.2213 27.0584 44.2027 27.1433 45.2267 27.2283C46.08 27.3132 46.8907 27.3557 47.744 27.4407C48.768 27.5256 49.792 27.653 50.816 27.7805C51.6267 27.8654 52.48 27.9504 53.2907 28.0354C54.3573 28.1628 55.3813 28.2902 56.448 28.4601C58.1547 28.6725 59.8613 28.9274 61.568 29.1823C62.3787 29.3097 63.1893 29.4371 64 29.5646C65.024 29.7345 66.0053 29.9044 66.9867 30.0743C67.7547 30.2017 68.5227 30.3292 69.248 30.4566C70.2293 30.6265 71.2107 30.7964 72.192 31.0088C72.9173 31.1362 73.6427 31.2637 74.3253 31.3911C75.3067 31.561 76.2453 31.7734 77.184 31.9433C77.8667 32.0707 78.592 32.2407 79.232 32.3681C80.1707 32.5805 81.0667 32.7504 81.9627 32.9628C82.6027 33.0902 83.2853 33.2601 83.9253 33.3876C84.8213 33.6 85.6747 33.7699 86.5707 33.9823C87.2107 34.1097 87.808 34.2796 88.4053 34.407C89.2587 34.6194 90.0693 34.7893 90.88 35.0017C91.4773 35.1292 92.0747 35.2991 92.6293 35.4265C93.3973 35.5964 94.1653 35.8088 94.8907 35.9787C95.488 36.1061 96.0427 36.2761 96.5973 36.4035C97.28 36.5734 97.92 36.7433 98.6027 36.9132C98.8587 36.9982 99.1147 37.0407 99.328 37.1256C97.408 38.2725 95.1467 38.8672 92.8853 38.8672H39.8933C36.3093 38.8672 32.896 37.5079 30.2507 35.0442L21.4613 26.6761ZM18.0053 23.4477H39.8933H88.1493H98.56H102.187C104.192 23.4477 105.813 25.1469 105.813 27.2283C105.813 27.5681 105.771 27.7805 105.728 27.9929L105.685 28.2053C105.643 28.3327 105.643 28.4601 105.6 28.5451C105.301 29.7345 104.875 30.8389 104.32 31.8159C103.979 32.4531 103.552 33.0902 103.125 33.6424C103.083 33.6849 103.04 33.7699 102.997 33.8123C102.571 34.3646 102.059 34.8743 101.547 35.3415C101.504 35.384 101.461 35.4265 101.376 35.469C101.077 35.384 100.693 35.2991 100.395 35.2141C99.584 35.0017 98.7733 34.7893 97.8773 34.5345C97.2373 34.3646 96.5973 34.1946 95.9147 34.0247C95.232 33.8548 94.592 33.6849 93.9093 33.515C92.9707 33.3026 92.032 33.0477 91.0507 32.8354C90.5813 32.7079 90.112 32.623 89.6 32.4955C88.32 32.1982 87.04 31.9008 85.7173 31.6035C85.504 31.561 85.2907 31.5185 85.0347 31.4336C69.248 28.0354 49.152 24.5946 30.2507 24.5097C29.9093 24.5097 29.6107 24.5097 29.312 24.5097C27.776 24.5097 26.24 24.5097 24.704 24.5522C24.1067 24.5522 23.5093 24.5946 22.912 24.6371C21.76 24.6796 20.608 24.7221 19.456 24.807L18.0053 23.4477Z" fill="#0099FF"/>
<path d="M51.968 19.03C52.1813 19.7096 52.8213 20.1769 53.504 20.1769H75.5627C76.9707 20.1769 78.08 18.9875 78.08 17.5433V13.1256C78.08 11.6813 76.928 10.4919 75.5627 10.4919H64.2133C61.824 10.4919 59.4347 11.3415 57.5573 12.9132L52.48 17.161C51.9253 17.5857 51.712 18.3503 51.968 19.03ZM54.272 18.1804L58.752 14.4849C60.288 13.2105 62.2507 12.4884 64.2133 12.4884H75.5627C75.904 12.4884 76.2027 12.7857 76.2027 13.1256V17.5433C76.2027 17.8831 75.904 18.1804 75.5627 18.1804H54.272Z" fill="#0099FF"/>
</g>
<defs>
<clipPath id="clip0_84_184">
<rect width="128" height="48" fill="white"/>
</clipPath>
</defs>
</svg>
