<?xml version="1.0" encoding="utf-8"?>
<!-- Generator: Adobe Illustrator 28.2.0, SVG Export Plug-In . SVG Version: 6.00 Build 0)  -->
<svg version="1.1" id="Layer_1" xmlns="http://www.w3.org/2000/svg" xmlns:xlink="http://www.w3.org/1999/xlink" x="0px" y="0px"
	 viewBox="0 0 128 48" style="enable-background:new 0 0 128 48;" xml:space="preserve">
<style type="text/css">
	.st0{fill:none;}
	.st1{fill:#FFFFFF;}
</style>
<rect class="st0" width="128" height="48"/>
<g>
	<path class="st1" d="M1.7,24.8l2.8,2.6l13.8,12.9c3.9,3.7,8.9,5.7,14.2,5.7h69.4c3.7,0,7.4-1.2,10.5-3.3c0.9,1.9,2.8,3.3,5,3.3
		c2,0,3.7-0.9,4.7-2.4c0.7-1,1.1-2.2,1.1-3.4v-4.3c2.3-0.9,3.8-3.3,3.8-5.9v-7.1c0-3.5-2.7-6.4-6.1-6.4h-6.8c-2.7,0-5,1.8-5.8,4.3
		H95.9c-1.2-0.8-5.7-4.3-5.7-8.4c0-2.7,2-5.4,6-7.9c0.5-0.3,0.7-0.9,0.6-1.4c-0.2-0.6-0.6-0.9-1.2-0.9H61.2c-3.3,0-6.6,1.1-9.3,3.2
		L32.1,20.7H3.2c-0.9,0-1.8,0.6-2.1,1.5C0.8,23.1,1.1,24.1,1.7,24.8z M91.9,20.7H36.2L53.4,7.3c2.3-1.8,5-2.7,7.8-2.7h30.5
		c-2.6,2.4-4,4.9-4,7.7C87.7,15.9,90,18.8,91.9,20.7z M120.9,33.7h-1c0-0.1,0.1-0.1,0.1-0.2c0.3-0.9,0.7-1.8,0.9-2.7
		c0.1-0.1,0.1-0.4,0.2-0.7l0.1-0.3c0.2-0.6,0.2-1.2,0.2-1.6c0-4.2-3.2-7.5-7.2-7.5h-3c0.7-1.1,1.8-1.7,3.1-1.7h6.8
		c2,0,3.7,1.7,3.7,3.8v7c0,1.8-1.2,3.3-2.9,3.7C121.4,33.6,121.1,33.7,120.9,33.7z M114.4,41.2c0.1-0.1,0.1-0.1,0.2-0.2
		c0.7-0.6,1.3-1.3,1.9-1.9c0.1-0.1,0.1-0.1,0.2-0.2c0.6-0.7,1.2-1.6,1.7-2.3c0.1-0.1,0.1-0.2,0.2-0.3h2.1v3.9c0,0.7-0.2,1.3-0.6,1.9
		c-0.6,0.9-1.5,1.4-2.6,1.4C116,43.4,114.8,42.4,114.4,41.2z M8.4,27.5c0.7-0.1,1.5-0.1,2.2-0.1c1.1-0.1,2.2-0.1,3.3-0.1
		c1.3-0.1,2.5-0.1,3.8-0.1c1.1,0,2.2,0,3.3,0c1.3,0,2.6,0.1,3.8,0.1c1.1,0.1,2.2,0.1,3.3,0.1c1.3,0.1,2.6,0.1,3.9,0.2
		c1.1,0.1,2.2,0.1,3.3,0.2c1.3,0.1,2.6,0.2,4,0.3c1.1,0.1,2.2,0.2,3.3,0.3c1.3,0.1,2.7,0.3,4,0.4c1.1,0.1,2.2,0.2,3.2,0.3
		c1.4,0.2,2.7,0.3,4.1,0.6c2.2,0.3,4.5,0.6,6.7,0.9c1.1,0.2,2.1,0.3,3.2,0.5c1.3,0.2,2.6,0.4,3.9,0.7c1,0.2,2,0.3,3,0.5
		c1.3,0.2,2.6,0.4,3.8,0.7c0.9,0.2,1.9,0.3,2.8,0.5c1.3,0.2,2.5,0.5,3.7,0.7c0.9,0.2,1.8,0.4,2.7,0.6c1.2,0.3,2.4,0.5,3.6,0.8
		c0.8,0.2,1.7,0.4,2.6,0.6c1.2,0.3,2.3,0.5,3.5,0.8c0.8,0.2,1.6,0.4,2.4,0.6c1.1,0.3,2.2,0.5,3.2,0.8c0.8,0.2,1.6,0.4,2.3,0.6
		c1,0.2,2,0.5,3,0.7c0.8,0.2,1.5,0.4,2.2,0.6c0.9,0.2,1.7,0.4,2.6,0.7c0.3,0.1,0.7,0.2,0.9,0.3c-2.5,1.5-5.5,2.3-8.4,2.3H32.5
		c-4.7,0-9.1-1.8-12.6-5L8.4,27.5z M3.9,23.3h28.6h63.1h13.6h4.7c2.6,0,4.7,2.2,4.7,4.9c0,0.4-0.1,0.7-0.1,1l-0.1,0.3
		c-0.1,0.2-0.1,0.3-0.1,0.4c-0.4,1.6-0.9,3-1.7,4.3c-0.4,0.8-1,1.7-1.6,2.4c-0.1,0.1-0.1,0.2-0.2,0.2c-0.6,0.7-1.2,1.4-1.9,2
		c-0.1,0.1-0.1,0.1-0.2,0.2c-0.4-0.1-0.9-0.2-1.3-0.3c-1.1-0.3-2.1-0.6-3.3-0.9c-0.8-0.2-1.7-0.4-2.6-0.7c-0.9-0.2-1.7-0.4-2.6-0.7
		c-1.2-0.3-2.5-0.6-3.7-0.9c-0.6-0.2-1.2-0.3-1.9-0.4c-1.7-0.4-3.3-0.8-5.1-1.2c-0.3-0.1-0.6-0.1-0.9-0.2c-20.6-4.4-46.9-8.9-71.6-9
		c-0.4,0-0.8,0-1.2,0c-2,0-4,0-6,0.1c-0.8,0-1.6,0.1-2.3,0.1c-1.5,0.1-3,0.1-4.5,0.2L3.9,23.3z"/>
	<path class="st1" d="M48.3,17.5c0.3,0.9,1.1,1.5,2,1.5h28.8c1.8,0,3.3-1.6,3.3-3.4V9.8c0-1.9-1.5-3.4-3.3-3.4H64.3
		c-3.1,0-6.2,1.1-8.7,3.2l-6.6,5.6C48.2,15.6,47.9,16.6,48.3,17.5z M51.3,16.4l5.9-4.8c2-1.7,4.6-2.6,7.1-2.6h14.8
		c0.4,0,0.8,0.4,0.8,0.8v5.8c0,0.4-0.4,0.8-0.8,0.8H51.3z"/>
</g>
</svg>
