<?xml version="1.0" encoding="utf-8"?>
<!-- Generator: Adobe Illustrator 28.2.0, SVG Export Plug-In . SVG Version: 6.00 Build 0)  -->
<svg version="1.1" id="Layer_1" xmlns="http://www.w3.org/2000/svg" xmlns:xlink="http://www.w3.org/1999/xlink" x="0px" y="0px"
	 viewBox="0 0 92 49" style="enable-background:new 0 0 92 49;" xml:space="preserve">
<style type="text/css">
	.st0{fill:#FFFFFF;}
</style>
<path class="st0" d="M0,35.3C0,42.9,6.2,49,13.8,49c5.1,0,9.7-2.8,12.1-7.1c0.7,0.5,1.4,0.8,2.3,0.8h0.8h16.3c1.8,0,3.3-1.3,3.6-3
	h6.4c0.1,0.1,0.2,0.1,0.3,0.2c2,5.4,7.1,9.1,13,9.1c7.6,0,13.8-6.1,13.8-13.7s-6.2-13.7-13.8-13.7c-2.3,0-4.5,0.6-6.6,1.7l-0.1-0.1
	L73.8,14l13.6,9.3c0.1,0.1,0.3,0.1,0.5,0.1h3.2c0.4,0,0.7-0.2,0.8-0.6c0.1-0.3,0-0.7-0.2-1L79.4,9.7L80.3,9c0.5-0.4,0.7-1.1,0.3-1.6
	c-0.4-0.6-1.1-0.7-1.7-0.5l-1.8,0.9h-11c-1.4,0-2.7,0.4-3.9,1.1c-2,1.3-6.5,3.3-13.8,3.1c-0.1-0.1-0.2-0.3-0.3-0.4l-3.7-3.1
	c-2.7-2.3-6.4-3.3-9.9-2.8l-1.4,0.2c-0.9,0.1-1.8,0.5-2.6,1c-0.2-0.4-0.6-0.7-1-0.9l-5-2.2c-1.1-0.5-2.5,0-2.9,1.1
	c-0.1,0.2-0.2,0.6-0.2,0.9c0,0.7,0.3,1.3,0.8,1.6L21,10.8c-0.1,0-0.2,0-0.4,0.1L18,8.1c1.5-2.8,5.4-5.2,5.5-5.2
	c0.3-0.2,0.5-0.5,0.4-0.9c0-0.3-0.3-0.6-0.6-0.7l-4-1.2c-0.2,0-0.4,0-0.7,0c-0.6,0.3-12.8,6.5-13,17.5c0,0.5,0.3,0.8,0.8,0.9
	l2.3,0.3C8.9,19,9,19.2,9.2,19.4c-1.8,0.8-3.4,2.1-4.4,3.6c-0.4,0.6-0.4,1.2,0,1.8c0,0,0.1,0.1,0.1,0.1C1.8,27.5,0,31.3,0,35.3z
	 M10.7,20.7l0.9,0.7l1.5,1.1c-0.2,0-0.5,0-0.7,0c-2,0-4,0.5-5.7,1.3l-0.1,0c0,0-0.1,0-0.1,0C7.3,22.4,8.8,21.3,10.7,20.7z
	 M18.8,11.5c-0.1,0-0.3,0.1-0.4,0.2L10,16c-0.4,0.2-0.8,0.6-0.9,0.9l-1.5-0.2C8.2,8.3,17.4,2.8,19.2,1.9L21,2.4
	c-1.6,1.2-3.9,3.2-4.9,5.5C16,8.2,16,8.5,16.3,8.8L18.8,11.5z M29.1,8.1c0,0,0,0.1,0,0.2c0,0.1-0.2,0.2-0.2,0.2c0,0-0.2,0-0.3,0
	l-4.9-2.2l-0.2-0.1c-0.2-0.1-0.3-0.2-0.3-0.4c0,0,0-0.1,0-0.2c0-0.1,0.2-0.2,0.4-0.2c0,0,0.1,0,0.2,0l5,2.2C29,7.8,29.1,8,29.1,8.1z
	 M23.7,8.4L25.1,9l-0.5,1.3c-0.1,0-0.2,0-0.3,0c-0.2,0-0.5,0-0.8,0c-0.1,0-0.3,0-0.4,0c-0.1,0-0.1,0-0.2,0L23.7,8.4z M26.8,9.7
	l0.9,0.4c0.1,0,0.2,0,0.3,0c0,0.2-0.1,0.4-0.2,0.6c-0.4-0.1-0.9-0.2-1.3-0.3L26.8,9.7z M46.9,13l-11.1,2.3h0l-3.6-2.6
	c-0.5-0.3-0.9-0.6-1.4-0.8c-0.1-0.1-0.3-0.1-0.5-0.2c-0.2-0.1-0.4-0.2-0.7-0.3c0.3-1.8,1.8-3.3,3.8-3.6l1.4-0.2
	c0.5-0.1,1-0.1,1.6-0.1c2.5,0,5,0.9,6.9,2.5L46.9,13z M73.4,9.6l-13.8,6.8c-1.7,0.8-3.5,1-5.3,0.6l-8-2l1-0.2c0.2,0,0.5-0.2,0.7-0.3
	c0,0,0.1-0.1,0.2-0.1c0.1-0.1,0.2-0.2,0.3-0.4c0,0,0,0,0.1-0.1c7.7,0.2,12.5-2.1,14.7-3.4c0.8-0.6,1.9-0.8,2.9-0.8L73.4,9.6
	L73.4,9.6z M75.2,12.9l2.7-2.1l11,10.9h-0.8L75.2,12.9z M63.9,27.6l-1.3,0.9l-3.3-3.3l0.4-0.3l0.9-0.7L63.9,27.6z M61,29.5l0.2,0.2
	L56.8,33c0.4-1.9,1.2-3.7,2.5-5.2L61,29.5z M69.6,23.4C69.6,23.4,69.6,23.5,69.6,23.4c-0.3,0.1-0.5,0.3-0.7,0.4l-3.6,2.8l-2-2
	C65.3,23.7,67.5,23.2,69.6,23.4z M57.7,40.3c0.2,0,0.3-0.1,0.5-0.1c0.1,0,0.2,0,0.3-0.1c0.3-0.1,0.6-0.3,0.9-0.5l13.8-10.4
	c0.8-0.6,1.2-1.4,1.4-2.2c0-0.2,0-0.4,0-0.7c0-0.1,0-0.1,0-0.2c0-0.1,0-0.3,0-0.4c0-0.1,0-0.1-0.1-0.2c0-0.1-0.1-0.2-0.1-0.4
	c0-0.1-0.1-0.1-0.1-0.2c0-0.1-0.1-0.2-0.1-0.2c3.9,2,6.7,6,6.7,10.7c0,6.6-5.4,11.9-12,11.9C63.9,47.2,59.6,44.5,57.7,40.3z
	 M55.9,36c0.1-0.1,0.1-0.2,0.2-0.2c0,0,0.1-0.1,0.2-0.1L70,25.2c0.4-0.3,0.8-0.3,1-0.3c0.6,0,1,0.2,1.4,0.7c0.3,0.4,0.4,0.8,0.3,1.2
	c0,0.4-0.3,0.8-0.7,1.1L58.3,38.2c-0.7,0.5-1.2,0.4-1.7,0.2c-0.2-0.1-0.3-0.1-0.4-0.2c0,0,0,0-0.1-0.1C56.1,38,56,38,56,37.9
	C55.5,37.4,55.5,36.6,55.9,36z M48.9,36.4h5c0,0.1,0,0.2,0,0.4c0,0.1,0,0.2,0,0.4c0,0.3,0,0.6,0.1,0.8H49L48.9,36.4L48.9,36.4z
	 M48.9,33.3l9-7l0.1,0.1c-1.9,2.2-3.1,5.1-3.2,8h-5.9V33.3z M44.5,21.5l-0.8-0.5l-6-4.3l4.4-0.9l11.7,2.9c0.5,0.1,1,0.2,1.5,0.2
	c0.1,0,0.2,0,0.4,0c0.1,0,0.3,0,0.4,0c0.3,0,0.7,0,0.9,0c0,0,0,0,0.1,0c0.5,0,1-0.1,1.5-0.3c0.1,0,0.2,0,0.3-0.1
	c0.5-0.1,0.9-0.3,1.4-0.6l14.8-7.2l-0.8,0.7l-1.1,0.9L58.5,23.7l-1.1,0.9c0,0,0,0,0,0l-8.4,6.5v-1.3C48.9,26.5,47.3,23.4,44.5,21.5z
	 M29.7,39.7c0-0.5,0-1,0-1.5c0-0.2,0-0.3,0-0.5c0-0.3,0.1-0.7,0.1-1c0-0.2,0.1-0.4,0.1-0.6c0-0.3,0.1-0.6,0.2-0.8
	c0-0.2,0.1-0.4,0.2-0.7c0.1-0.2,0.1-0.5,0.2-0.7c0.1-0.2,0.2-0.4,0.3-0.7c0.1-0.2,0.2-0.5,0.3-0.7c0.1-0.2,0.2-0.4,0.3-0.7
	c0.1-0.2,0.2-0.4,0.3-0.7c0.1-0.2,0.2-0.4,0.4-0.7c0.1-0.2,0.2-0.4,0.4-0.6c0.1-0.2,0.3-0.4,0.4-0.6c0.1-0.2,0.3-0.4,0.4-0.6
	c0.1-0.2,0.3-0.4,0.5-0.6c0.1-0.2,0.3-0.4,0.5-0.5c0.2-0.2,0.3-0.4,0.5-0.5c0.2-0.1,0.3-0.3,0.5-0.5c0.2-0.2,0.4-0.3,0.6-0.5
	c0.2-0.1,0.4-0.3,0.5-0.5c0.2-0.1,0.4-0.3,0.6-0.4c0.2-0.1,0.4-0.3,0.6-0.4c0.2-0.1,0.4-0.3,0.7-0.4c0.2-0.1,0.4-0.2,0.6-0.4
	c0.2-0.1,0.5-0.2,0.7-0.3c0.2-0.1,0.4-0.2,0.7-0.3c0.2-0.1,0.5-0.2,0.7-0.3c0.2-0.1,0.5-0.2,0.7-0.3c0.2-0.1,0.5-0.1,0.7-0.2
	c0.2,0,0.4-0.1,0.6-0.1l0.4,0.3c2.2,1.6,3.6,4.2,3.6,6.9v3.1v2.6v3.3v0.3c0,1-0.8,1.9-1.9,1.9H29.8C29.7,40.5,29.7,40.2,29.7,39.7z
	 M24.3,29.2c-0.4-0.5-0.8-0.9-1.4-1.3l-5.8-4.4c0,0-0.1,0-0.1-0.1l-6.4-5c-0.2-0.1-0.2-0.4-0.2-0.5c0,0,0,0,0,0
	c0-0.2,0.1-0.3,0.3-0.4l8.4-4.3c0.5-0.2,0.9-0.4,1.4-0.6c0.4-0.1,0.8-0.3,1.2-0.3c1.1-0.3,2.3-0.4,3.4-0.3c1,0,2.1,0.3,3,0.7
	c1,0.3,1.9,0.8,2.8,1.4l10.2,7.2c-0.3,0.1-0.7,0.2-0.9,0.4c-0.1,0-0.3,0.1-0.5,0.2c-0.5,0.2-1,0.4-1.5,0.7c-0.1,0-0.1,0.1-0.2,0.1
	c-0.4,0.2-0.8,0.4-1.1,0.7c-0.1,0.1-0.3,0.2-0.5,0.3c-0.3,0.2-0.6,0.4-0.8,0.6c-0.2,0.1-0.3,0.3-0.5,0.4c-0.2,0.2-0.5,0.4-0.7,0.6
	c-0.1,0.1-0.3,0.3-0.5,0.5c-0.2,0.2-0.4,0.4-0.7,0.6c-0.1,0.1-0.3,0.3-0.5,0.5c-0.2,0.2-0.4,0.4-0.6,0.7c-0.1,0.2-0.3,0.4-0.4,0.5
	c-0.2,0.2-0.3,0.5-0.5,0.7c-0.1,0.2-0.2,0.4-0.4,0.6c-0.1,0.2-0.3,0.5-0.5,0.7c-0.1,0.2-0.2,0.4-0.3,0.6c-0.1,0.3-0.3,0.5-0.4,0.8
	c-0.1,0.2-0.2,0.4-0.3,0.6c-0.1,0.3-0.2,0.6-0.3,0.8c-0.1,0.2-0.1,0.4-0.2,0.7c-0.1,0.3-0.2,0.6-0.3,0.9c0,0.2-0.1,0.4-0.2,0.7
	c-0.1,0.3-0.1,0.6-0.2,0.9c0,0.2-0.1,0.4-0.1,0.6c0,0.4-0.1,0.7-0.1,1.1c0,0.2,0,0.4,0,0.5c0,0.6,0,1.1,0,1.6c0,0.4,0,0.8,0,1.2
	c-0.6,0-1.1-0.4-1.4-0.9c0,0,0-0.1,0-0.1c-0.1-0.2-0.2-0.5-0.2-0.8v-4.6C26.2,32.5,25.6,30.7,24.3,29.2z M1.8,35.3
	c0-3.9,1.9-7.6,5.2-9.8c0.1,0,0.2-0.1,0.4-0.1c1.5-0.7,3.2-1.1,4.9-1.1c0.7,0,1.4,0.1,2.1,0.2c0.2,0,0.4,0.1,0.7,0.2
	c0.4,0.1,0.8,0.2,1.3,0.4l5.6,4.3c0.4,0.3,0.8,0.7,1,1c1,1.2,1.5,2.7,1.5,4.2v4.6c0,0.3,0,0.5,0.1,0.7c0,0.1,0,0.1,0,0.2
	c0,0.1,0,0.2,0.1,0.3c-2,4.2-6.2,6.9-10.9,6.9C7.2,47.2,1.8,41.9,1.8,35.3z"/>
</svg>
