<svg width="92" height="49" viewBox="0 0 92 49" fill="none" xmlns="http://www.w3.org/2000/svg">
<path d="M0 35.2961C0 42.873 6.17922 49 13.8207 49C18.915 49 23.4905 46.2405 25.8961 41.8908C26.5565 42.4053 27.3112 42.6859 28.1602 42.6859H28.915H45.1885C46.9809 42.6859 48.4903 41.3763 48.8205 39.6926H55.2356C55.3299 39.7861 55.4243 39.8329 55.5658 39.9264C57.5469 45.3519 62.6884 49 68.5374 49C76.1317 49 82.3581 42.873 82.3581 35.2961C82.3581 27.7192 76.1789 21.5922 68.5846 21.5922C66.2733 21.5922 64.0563 22.2002 62.028 23.2759L61.9337 23.1824L73.7732 14.0153L87.3581 23.3227C87.4996 23.4162 87.6883 23.463 87.8769 23.463H91.0845C91.4618 23.463 91.792 23.2292 91.9335 22.9018C92.075 22.5744 91.9807 22.2002 91.7448 21.9196L79.3864 9.66556L80.2826 8.96399C80.8015 8.58982 80.943 7.88826 80.5656 7.327C80.1883 6.76575 79.4807 6.57867 78.9147 6.85929L77.0751 7.74794H66.0846C64.7167 7.74794 63.3959 8.12211 62.2167 8.87045C60.2356 10.1333 55.7544 12.1912 48.4432 12.0041C48.3488 11.8638 48.2545 11.6767 48.113 11.5832L44.3866 8.49628C41.6507 6.2045 38.0187 5.22231 34.481 5.73679L33.113 5.92387C32.1697 6.06419 31.3206 6.39158 30.5187 6.90606C30.2829 6.5319 29.9527 6.2045 29.5282 6.01742L24.481 3.7724C23.3489 3.30469 22.0282 3.81918 21.5565 4.89491C21.4622 5.12877 21.3678 5.45616 21.3678 5.78356C21.3678 6.43835 21.6508 7.04638 22.1697 7.42055L20.9905 10.7881C20.849 10.8348 20.7546 10.8348 20.6131 10.8816L18.0188 8.07534C19.5282 5.31585 23.4433 2.83698 23.4905 2.83698C23.7735 2.6499 23.9621 2.3225 23.915 1.94833C23.8678 1.62094 23.632 1.34031 23.3018 1.2L19.3395 0.0307218C19.1037 -0.0160493 18.915 -0.0160493 18.6792 0.0774928C18.1131 0.358119 5.84903 6.57867 5.70752 17.5699C5.70752 18.0376 6.03771 18.4117 6.5094 18.4585L8.82071 18.7391C8.91505 18.973 9.00939 19.2068 9.1509 19.4407C7.31129 20.2358 5.75469 21.4986 4.71696 23.0421C4.3396 23.6033 4.3396 24.2581 4.71696 24.8194C4.76413 24.8661 4.8113 24.9129 4.85847 24.9597C1.79244 27.4853 0 31.2738 0 35.2961ZM10.6603 20.6567L11.5565 21.3115L13.0188 22.4341C12.783 22.4341 12.5471 22.434 12.3113 22.3873C10.283 22.3873 8.30185 22.855 6.60374 23.6969L6.5094 23.7436C6.46223 23.7436 6.41506 23.7436 6.36789 23.7436C7.31129 22.3873 8.82071 21.3115 10.6603 20.6567ZM18.8207 11.5364C18.6792 11.5832 18.5376 11.6299 18.3961 11.7235L9.95278 15.9796C9.52825 16.2135 9.19807 16.5409 9.00939 16.9151L7.54713 16.728C8.16034 8.26243 17.3584 2.83698 19.1508 1.85479L20.9905 2.36927C19.4339 3.53855 17.0754 5.59648 16.132 7.84149C15.9905 8.16888 16.0377 8.54305 16.3207 8.77691L18.8207 11.5364ZM29.0565 8.12211C29.0565 8.16888 29.0565 8.26243 29.0093 8.3092C28.9621 8.44951 28.8206 8.49628 28.7734 8.49628C28.7263 8.49628 28.5848 8.54305 28.4433 8.49628L23.5376 6.34481L23.3489 6.25127C23.1603 6.15773 23.0659 6.01742 23.0659 5.8771C23.0659 5.83033 23.0659 5.78356 23.1131 5.64325C23.1603 5.50293 23.3489 5.40939 23.4905 5.40939C23.5376 5.40939 23.632 5.40939 23.6791 5.45616L28.7263 7.70117C29.0093 7.84149 29.0565 8.02857 29.0565 8.12211ZM23.6791 8.35597L25.1414 9.01076L24.6697 10.3204C24.5754 10.3204 24.481 10.3204 24.3867 10.3204C24.1508 10.3204 23.915 10.3671 23.632 10.3671C23.4904 10.3671 23.3489 10.3671 23.2074 10.4139C23.1131 10.4139 23.0659 10.4139 22.9716 10.4139L23.6791 8.35597ZM26.7923 9.71233L27.7357 10.1333C27.8301 10.18 27.9244 10.18 28.0659 10.18C28.0187 10.3671 27.9244 10.5542 27.8772 10.7413C27.4527 10.601 26.981 10.5074 26.5565 10.4607L26.7923 9.71233ZM46.8866 12.9863L35.8017 15.2781H35.7545L32.1225 12.7057C31.6508 12.3783 31.1791 12.0976 30.7074 11.8638C30.5659 11.7703 30.3772 11.7235 30.2357 11.6299C29.9999 11.5364 29.8112 11.3961 29.5753 11.3025C29.9055 9.47847 31.4149 7.9818 33.3489 7.74794L34.7168 7.56086C35.2357 7.46732 35.7545 7.46732 36.2734 7.46732C38.7734 7.46732 41.2262 8.35597 43.2073 9.94618L46.8866 12.9863ZM73.3959 9.61878L59.5752 16.4006C57.9242 17.1957 56.0375 17.4295 54.245 16.9618L46.2734 14.9975L47.2639 14.8104C47.4998 14.7636 47.7356 14.6233 47.9243 14.5297C47.9715 14.483 48.0186 14.4362 48.113 14.3894C48.2545 14.2959 48.3488 14.1556 48.4432 14.0153C48.4432 13.9685 48.4903 13.9685 48.5375 13.9217C56.2733 14.1088 61.0374 11.8638 63.2072 10.5074C64.0563 9.94618 65.094 9.66556 66.0846 9.66556H73.3959V9.61878ZM75.2355 12.8928L77.9241 10.8348L88.9147 21.7325H88.1599L75.2355 12.8928ZM63.8676 27.6256L62.594 28.5611L59.245 25.2403L59.6223 24.9597L60.5186 24.2581L63.8676 27.6256ZM60.9903 29.4965L61.1789 29.6836L56.7922 33.0043C57.1695 31.0867 58.0186 29.2626 59.2922 27.7659L60.9903 29.4965ZM69.6223 23.4162C69.5751 23.4162 69.5751 23.463 69.528 23.463C69.2921 23.5566 69.1034 23.6969 68.9148 23.8372L65.2827 26.5967L63.3016 24.6323C65.2827 23.6501 67.4997 23.2292 69.6223 23.4162ZM57.6884 40.3474C57.8771 40.3474 58.0186 40.2538 58.1601 40.2538C58.2544 40.207 58.3959 40.2071 58.4903 40.1603C58.8205 40.0667 59.1035 39.8797 59.3865 39.6926L73.16 29.3094C73.9147 28.7481 74.3864 27.953 74.5279 27.0644C74.5751 26.8305 74.5751 26.6434 74.5751 26.4096C74.5751 26.316 74.5751 26.2693 74.5279 26.1757C74.5279 26.0354 74.4808 25.8951 74.4808 25.7548C74.4808 25.6613 74.4336 25.6145 74.3864 25.5209C74.3393 25.3806 74.2921 25.2871 74.2449 25.1468C74.1977 25.0532 74.1506 25.0065 74.1034 24.9129C74.0562 24.8194 74.0091 24.7258 73.9619 24.6791C77.877 26.6434 80.6128 30.6658 80.6128 35.3429C80.6128 41.9376 75.2355 47.2695 68.5846 47.2695C63.8676 47.2227 59.6224 44.51 57.6884 40.3474ZM55.9431 35.9977C56.0375 35.8573 56.0846 35.7638 56.1318 35.7638C56.179 35.717 56.2733 35.6703 56.3205 35.6235L70.0468 25.2403C70.4242 24.9597 70.8015 24.9129 71.0846 24.9129C71.6506 24.9129 72.1223 25.1468 72.4525 25.5677C72.7355 25.9419 72.8298 26.3628 72.7827 26.7838C72.7355 27.2047 72.4996 27.6256 72.1223 27.8595L58.3488 38.2427C57.6412 38.7571 57.1224 38.6168 56.6978 38.4297C56.5092 38.3362 56.3676 38.2894 56.2733 38.1959C56.2261 38.1491 56.2261 38.1491 56.179 38.1024C56.0846 38.0088 56.0375 37.962 55.9903 37.9153C55.5186 37.4008 55.5186 36.5589 55.9431 35.9977ZM48.9149 36.3718H53.9148C53.9148 36.5121 53.9148 36.6057 53.9148 36.746C53.9148 36.8863 53.8677 36.9798 53.9148 37.1202C53.9148 37.4008 53.962 37.6814 54.0563 37.962H48.962V36.3718H48.9149ZM48.9149 33.3317L57.8771 26.3628L58.0186 26.5031C56.0846 28.7481 54.9526 31.5544 54.8111 34.5478H48.9149V33.3317ZM44.5281 21.4519L43.7734 20.9374L37.7357 16.6812L42.1224 15.7926L53.7733 18.6456C54.245 18.7859 54.7639 18.8327 55.2827 18.8794C55.4243 18.8794 55.5186 18.8794 55.6601 18.8794C55.8016 18.8794 55.9431 18.9262 56.0846 18.9262C56.4148 18.9262 56.745 18.9262 57.028 18.8794C57.0752 18.8794 57.0752 18.8794 57.1224 18.8794C57.5941 18.8327 58.1129 18.7391 58.5846 18.5988C58.679 18.5521 58.8205 18.5521 58.9148 18.5053C59.3865 18.365 59.8582 18.1779 60.3299 17.944L75.1411 10.6945L74.3393 11.3493L73.2072 12.238L58.4903 23.6501L57.3582 24.5387C57.3582 24.5387 57.3582 24.5387 57.311 24.5855L48.8677 31.1335V29.8706C48.9149 26.5031 47.2639 23.3695 44.5281 21.4519ZM29.7168 39.7393C29.7168 39.2249 29.7168 38.7104 29.764 38.1959C29.764 38.0088 29.8112 37.8685 29.8112 37.6814C29.8583 37.354 29.9055 37.0266 29.9527 36.6992C29.9999 36.5121 30.047 36.2783 30.0942 36.0912C30.1414 35.8106 30.1885 35.5299 30.2829 35.2493C30.33 35.0155 30.4244 34.8284 30.4715 34.5945C30.5659 34.3607 30.6131 34.08 30.7074 33.8462C30.8017 33.6123 30.8961 33.4252 30.9904 33.1914C31.0848 32.9575 31.1791 32.7237 31.2734 32.4898C31.3678 32.256 31.5093 32.0689 31.6036 31.835C31.698 31.6012 31.7923 31.4141 31.9338 31.1802C32.0753 30.9464 32.1697 30.7593 32.3112 30.5254C32.4527 30.3384 32.547 30.1045 32.6885 29.9174C32.83 29.7303 32.9715 29.4965 33.113 29.3094C33.2546 29.1223 33.3961 28.9352 33.5376 28.7481C33.6791 28.5611 33.8678 28.374 34.0093 28.1869C34.1508 27.9998 34.2923 27.8127 34.481 27.6724C34.6696 27.4853 34.8111 27.2982 34.9998 27.1579C35.1885 27.0176 35.33 26.8305 35.5187 26.6902C35.7074 26.5031 35.896 26.3628 36.0847 26.2225C36.2734 26.0822 36.4621 25.9419 36.6036 25.7548C36.7923 25.6145 37.0281 25.4742 37.2168 25.3339C37.4055 25.1935 37.5942 25.0532 37.7828 24.9129C37.9715 24.7726 38.2074 24.6323 38.4432 24.5387C38.6319 24.3984 38.8677 24.3049 39.0564 24.1646C39.2923 24.071 39.5281 23.9307 39.7168 23.8372C39.9526 23.7436 40.1413 23.6033 40.3772 23.5098C40.613 23.4162 40.8489 23.3227 41.0847 23.2292C41.3206 23.1356 41.5564 23.0421 41.7923 22.9485C42.0281 22.855 42.2639 22.8082 42.4998 22.7147C42.6885 22.6679 42.8772 22.6211 43.0658 22.5744L43.4904 22.855C45.7073 24.4452 47.0752 27.0176 47.0752 29.7771V32.864V35.4364V38.7571V39.0845C47.0752 40.1135 46.2262 40.9554 45.1885 40.9554H29.764C29.7168 40.5344 29.7168 40.1603 29.7168 39.7393ZM24.3395 29.2159C23.9621 28.7481 23.4904 28.2804 22.9716 27.9063L17.2169 23.5098C17.1697 23.463 17.1226 23.463 17.1226 23.4162L10.7075 18.4585C10.5188 18.3182 10.5188 18.0843 10.5188 17.9908C10.5188 17.9908 10.5188 17.9908 10.5188 17.944C10.5188 17.7569 10.6603 17.6166 10.8018 17.5231L19.2452 13.2669C19.7169 13.0331 20.1414 12.846 20.6131 12.6589C20.9905 12.5186 21.415 12.3783 21.8395 12.3315C22.9716 12.0509 24.1037 11.9573 25.2357 12.0509C26.2735 12.0977 27.3112 12.3315 28.2546 12.7057C29.2451 13.0331 30.1885 13.5008 31.0376 14.1088L41.2262 21.3115C40.896 21.4051 40.5658 21.5454 40.2828 21.6857C40.1413 21.7325 39.9526 21.7793 39.8111 21.8728C39.3394 22.0599 38.8206 22.2937 38.3489 22.5276C38.2545 22.5744 38.2074 22.6211 38.113 22.6679C37.7357 22.855 37.3583 23.0888 36.9809 23.3227C36.8394 23.4162 36.6508 23.5098 36.5093 23.6501C36.2262 23.8372 35.9432 24.0243 35.6602 24.2113C35.4715 24.3517 35.33 24.492 35.1885 24.5855C34.9527 24.7726 34.7168 24.9597 34.481 25.1935C34.3395 25.3339 34.1508 25.4742 34.0093 25.6613C33.7734 25.8483 33.5847 26.0822 33.3489 26.2693C33.2074 26.4096 33.0659 26.5967 32.8772 26.7838C32.6885 27.0176 32.4998 27.2047 32.3112 27.4386C32.1697 27.6256 32.0281 27.8127 31.8866 27.953C31.698 28.1869 31.5564 28.4207 31.3678 28.6546C31.2263 28.8417 31.1319 29.0288 30.9904 29.2159C30.8489 29.4497 30.6602 29.6836 30.5187 29.9642C30.4244 30.1513 30.2829 30.3384 30.1885 30.5722C30.047 30.8528 29.9055 31.0867 29.8112 31.3673C29.7168 31.5544 29.6225 31.7883 29.5282 31.9753C29.3866 32.256 29.2923 32.5366 29.198 32.8172C29.1036 33.0511 29.0565 33.2382 28.9621 33.472C28.8678 33.7526 28.7734 34.0333 28.6791 34.3607C28.6319 34.5945 28.5376 34.7816 28.4904 35.0155C28.3961 35.3429 28.3489 35.6235 28.3017 35.9509C28.2546 36.138 28.2074 36.3718 28.1602 36.5589C28.1131 36.9331 28.0659 37.2605 28.0187 37.6346C28.0187 37.8217 27.9716 38.0088 27.9716 38.1491C27.9244 38.7104 27.9244 39.2249 27.9244 39.7861C27.9244 40.1603 27.9244 40.5812 27.9716 40.9554C27.3584 40.9086 26.8395 40.5344 26.5565 40.02C26.5565 39.9732 26.5093 39.9264 26.5093 39.9264C26.3678 39.6926 26.3206 39.4119 26.3206 39.0845V34.4542C26.2263 32.5366 25.5659 30.6658 24.3395 29.2159ZM1.79244 35.2961C1.79244 31.3673 3.7264 27.6724 6.9811 25.4742C7.12261 25.4274 7.21695 25.3806 7.35845 25.3339C8.82071 24.5855 10.5188 24.2113 12.2169 24.2113C12.9245 24.2113 13.632 24.3049 14.3396 24.4452C14.5754 24.492 14.7641 24.5855 14.9999 24.6323C15.4245 24.7258 15.849 24.8661 16.2735 25.0065L21.8867 29.3094C22.264 29.59 22.6414 29.9642 22.9244 30.3384C23.915 31.5076 24.4338 33.0043 24.4338 34.501V39.1313C24.4338 39.4119 24.481 39.6458 24.5282 39.8797C24.5282 39.9732 24.5754 40.02 24.5754 40.1135C24.6225 40.207 24.6225 40.3006 24.6697 40.3941C22.6886 44.6035 18.4905 47.2695 13.7735 47.2695C7.21694 47.2227 1.79244 41.8908 1.79244 35.2961Z" fill="#0099FF"/>
</svg>
